# MagicaVoxel @ Ephtracy

# group
o 

# material
mtllib HeartsAndHealth-3.mtl
usemtl palette

# normals
vn -1 0 0
vn 1 0 0
vn 0 0 1
vn 0 0 -1
vn 0 -1 0
vn 0 1 0

# texcoords
vt 0.822266 0.5
vt 0.826172 0.5

# verts
v -0.7 0.8 0.1
v -0.7 0.8 -0.2
v -0.7 1.2 0.1
v -0.7 1.2 -0.2
v -0.6 0.7 0.1
v -0.6 0.7 -0.2
v -0.6 0.8 0.1
v -0.6 0.8 -0.2
v -0.6 0.9 0.2
v -0.6 0.9 0.1
v -0.6 0.9 -0.2
v -0.6 0.9 -0.3
v -0.6 1.1 0.2
v -0.6 1.1 0.1
v -0.6 1.1 -0.2
v -0.6 1.1 -0.3
v -0.6 1.2 0.1
v -0.6 1.2 -0.2
v -0.6 1.3 0.1
v -0.6 1.3 -0.2
v -0.5 0.6 0.1
v -0.5 0.6 -0.2
v -0.5 0.7 0.1
v -0.5 0.7 -0.2
v -0.5 0.8 0.2
v -0.5 0.8 0.1
v -0.5 0.8 -0.2
v -0.5 0.8 -0.3
v -0.5 0.9 0.2
v -0.5 0.9 0.1
v -0.5 0.9 -0.2
v -0.5 0.9 -0.3
v -0.5 1.1 0.2
v -0.5 1.1 0.1
v -0.5 1.1 -0.2
v -0.5 1.1 -0.3
v -0.5 1.2 0.2
v -0.5 1.2 0.1
v -0.5 1.2 -0.2
v -0.5 1.2 -0.3
v -0.5 1.3 0.1
v -0.5 1.3 -0.2
v -0.5 1.4 0.1
v -0.5 1.4 -0.2
v -0.4 0.5 0.1
v -0.4 0.5 -0.2
v -0.4 0.6 0.1
v -0.4 0.6 -0.2
v -0.4 0.7 0.2
v -0.4 0.7 0.1
v -0.4 0.7 -0.2
v -0.4 0.7 -0.3
v -0.4 0.8 0.2
v -0.4 0.8 0.1
v -0.4 0.8 -0.2
v -0.4 0.8 -0.3
v -0.3 0.4 0.1
v -0.3 0.4 -0.2
v -0.3 0.5 0.1
v -0.3 0.5 -0.2
v -0.3 0.6 0.2
v -0.3 0.6 0.1
v -0.3 0.6 -0.2
v -0.3 0.6 -0.3
v -0.3 0.7 0.2
v -0.3 0.7 0.1
v -0.3 0.7 -0.2
v -0.3 0.7 -0.3
v -0.2 0.3 0.1
v -0.2 0.3 -0.2
v -0.2 0.4 0.1
v -0.2 0.4 -0.2
v -0.2 0.5 0.2
v -0.2 0.5 0.1
v -0.2 0.5 -0.2
v -0.2 0.5 -0.3
v -0.2 0.6 0.2
v -0.2 0.6 0.1
v -0.2 0.6 -0.2
v -0.2 0.6 -0.3
v -0.1 0.2 0.1
v -0.1 0.2 -0.2
v -0.1 0.3 0.1
v -0.1 0.3 -0.2
v -0.1 0.4 0.2
v -0.1 0.4 0.1
v -0.1 0.4 -0.2
v -0.1 0.4 -0.3
v -0.1 0.5 0.2
v -0.1 0.5 0.1
v -0.1 0.5 -0.2
v -0.1 0.5 -0.3
v 0.1 1 0.2
v 0.1 1 0.1
v 0.1 1 -0.2
v 0.1 1 -0.3
v 0.1 1.1 0.2
v 0.1 1.1 0.1
v 0.1 1.1 -0.2
v 0.1 1.1 -0.3
v 0.1 1.2 0.1
v 0.1 1.2 -0.2
v 0.1 1.3 0.1
v 0.1 1.3 -0.2
v 0.2 1.1 0.2
v 0.2 1.1 0.1
v 0.2 1.1 -0.2
v 0.2 1.1 -0.3
v 0.2 1.2 0.2
v 0.2 1.2 0.1
v 0.2 1.2 -0.2
v 0.2 1.2 -0.3
v 0.2 1.3 0.1
v 0.2 1.3 -0.2
v 0.2 1.4 0.1
v 0.2 1.4 -0.2
v -0.2 1.1 0.2
v -0.2 1.1 0.1
v -0.2 1.1 -0.2
v -0.2 1.1 -0.3
v -0.2 1.2 0.2
v -0.2 1.2 0.1
v -0.2 1.2 -0.2
v -0.2 1.2 -0.3
v -0.2 1.3 0.1
v -0.2 1.3 -0.2
v -0.2 1.4 0.1
v -0.2 1.4 -0.2
v -0.1 1 0.2
v -0.1 1 0.1
v -0.1 1 -0.2
v -0.1 1 -0.3
v -0.1 1.1 0.2
v -0.1 1.1 0.1
v -0.1 1.1 -0.2
v -0.1 1.1 -0.3
v -0.1 1.2 0.1
v -0.1 1.2 -0.2
v -0.1 1.3 0.1
v -0.1 1.3 -0.2
v 0.1 0.2 0.1
v 0.1 0.2 -0.2
v 0.1 0.3 0.1
v 0.1 0.3 -0.2
v 0.1 0.4 0.2
v 0.1 0.4 0.1
v 0.1 0.4 -0.2
v 0.1 0.4 -0.3
v 0.1 0.5 0.2
v 0.1 0.5 0.1
v 0.1 0.5 -0.2
v 0.1 0.5 -0.3
v 0.2 0.3 0.1
v 0.2 0.3 -0.2
v 0.2 0.4 0.1
v 0.2 0.4 -0.2
v 0.2 0.5 0.2
v 0.2 0.5 0.1
v 0.2 0.5 -0.2
v 0.2 0.5 -0.3
v 0.2 0.6 0.2
v 0.2 0.6 0.1
v 0.2 0.6 -0.2
v 0.2 0.6 -0.3
v 0.3 0.4 0.1
v 0.3 0.4 -0.2
v 0.3 0.5 0.1
v 0.3 0.5 -0.2
v 0.3 0.6 0.2
v 0.3 0.6 0.1
v 0.3 0.6 -0.2
v 0.3 0.6 -0.3
v 0.3 0.7 0.2
v 0.3 0.7 0.1
v 0.3 0.7 -0.2
v 0.3 0.7 -0.3
v 0.4 0.5 0.1
v 0.4 0.5 -0.2
v 0.4 0.6 0.1
v 0.4 0.6 -0.2
v 0.4 0.7 0.2
v 0.4 0.7 0.1
v 0.4 0.7 -0.2
v 0.4 0.7 -0.3
v 0.4 0.8 0.2
v 0.4 0.8 0.1
v 0.4 0.8 -0.2
v 0.4 0.8 -0.3
v 0.5 0.6 0.1
v 0.5 0.6 -0.2
v 0.5 0.7 0.1
v 0.5 0.7 -0.2
v 0.5 0.8 0.2
v 0.5 0.8 0.1
v 0.5 0.8 -0.2
v 0.5 0.8 -0.3
v 0.5 0.9 0.2
v 0.5 0.9 0.1
v 0.5 0.9 -0.2
v 0.5 0.9 -0.3
v 0.5 1.1 0.2
v 0.5 1.1 0.1
v 0.5 1.1 -0.2
v 0.5 1.1 -0.3
v 0.5 1.2 0.2
v 0.5 1.2 0.1
v 0.5 1.2 -0.2
v 0.5 1.2 -0.3
v 0.5 1.3 0.1
v 0.5 1.3 -0.2
v 0.5 1.4 0.1
v 0.5 1.4 -0.2
v 0.6 0.7 0.1
v 0.6 0.7 -0.2
v 0.6 0.8 0.1
v 0.6 0.8 -0.2
v 0.6 0.9 0.2
v 0.6 0.9 0.1
v 0.6 0.9 -0.2
v 0.6 0.9 -0.3
v 0.6 1.1 0.2
v 0.6 1.1 0.1
v 0.6 1.1 -0.2
v 0.6 1.1 -0.3
v 0.6 1.2 0.1
v 0.6 1.2 -0.2
v 0.6 1.3 0.1
v 0.6 1.3 -0.2
v 0.7 0.8 0.1
v 0.7 0.8 -0.2
v 0.7 1.2 0.1
v 0.7 1.2 -0.2
v -0.6 0.9 0.2
v -0.6 1.1 0.2
v -0.5 0.8 0.2
v -0.5 0.9 0.2
v -0.5 1.1 0.2
v -0.5 1.2 0.2
v -0.4 0.7 0.2
v -0.4 0.8 0.2
v -0.4 1.1 0.2
v -0.4 1.2 0.2
v -0.3 0.6 0.2
v -0.3 0.7 0.2
v -0.2 0.5 0.2
v -0.2 0.6 0.2
v -0.2 1.1 0.2
v -0.2 1.2 0.2
v -0.1 0.4 0.2
v -0.1 0.5 0.2
v -0.1 1 0.2
v -0.1 1.1 0.2
v 0.1 0.4 0.2
v 0.1 0.5 0.2
v 0.1 1 0.2
v 0.1 1.1 0.2
v 0.2 0.5 0.2
v 0.2 0.6 0.2
v 0.2 1.1 0.2
v 0.2 1.2 0.2
v 0.3 0.6 0.2
v 0.3 0.7 0.2
v 0.4 0.7 0.2
v 0.4 0.8 0.2
v 0.4 1.1 0.2
v 0.4 1.2 0.2
v 0.5 0.8 0.2
v 0.5 0.9 0.2
v 0.5 1.1 0.2
v 0.5 1.2 0.2
v 0.6 0.9 0.2
v 0.6 1.1 0.2
v -0.7 0.8 0.1
v -0.7 1.2 0.1
v -0.6 0.7 0.1
v -0.6 0.8 0.1
v -0.6 0.9 0.1
v -0.6 1.1 0.1
v -0.6 1.2 0.1
v -0.6 1.3 0.1
v -0.5 0.6 0.1
v -0.5 0.7 0.1
v -0.5 0.8 0.1
v -0.5 0.9 0.1
v -0.5 1.1 0.1
v -0.5 1.2 0.1
v -0.5 1.3 0.1
v -0.5 1.4 0.1
v -0.4 0.5 0.1
v -0.4 0.6 0.1
v -0.4 0.7 0.1
v -0.4 0.8 0.1
v -0.4 1.2 0.1
v -0.3 0.4 0.1
v -0.3 0.5 0.1
v -0.3 0.6 0.1
v -0.3 0.7 0.1
v -0.2 0.3 0.1
v -0.2 0.4 0.1
v -0.2 0.5 0.1
v -0.2 0.6 0.1
v -0.2 1.1 0.1
v -0.2 1.2 0.1
v -0.2 1.3 0.1
v -0.2 1.4 0.1
v -0.1 0.2 0.1
v -0.1 0.3 0.1
v -0.1 0.4 0.1
v -0.1 0.5 0.1
v -0.1 1 0.1
v -0.1 1.1 0.1
v -0.1 1.2 0.1
v -0.1 1.3 0.1
v 0.1 0.2 0.1
v 0.1 0.3 0.1
v 0.1 0.4 0.1
v 0.1 0.5 0.1
v 0.1 1 0.1
v 0.1 1.1 0.1
v 0.1 1.2 0.1
v 0.1 1.3 0.1
v 0.2 0.3 0.1
v 0.2 0.4 0.1
v 0.2 0.5 0.1
v 0.2 0.6 0.1
v 0.2 1.1 0.1
v 0.2 1.2 0.1
v 0.2 1.3 0.1
v 0.2 1.4 0.1
v 0.3 0.4 0.1
v 0.3 0.5 0.1
v 0.3 0.6 0.1
v 0.3 0.7 0.1
v 0.4 0.5 0.1
v 0.4 0.6 0.1
v 0.4 0.7 0.1
v 0.4 0.8 0.1
v 0.4 1.2 0.1
v 0.5 0.6 0.1
v 0.5 0.7 0.1
v 0.5 0.8 0.1
v 0.5 0.9 0.1
v 0.5 1.1 0.1
v 0.5 1.2 0.1
v 0.5 1.3 0.1
v 0.5 1.4 0.1
v 0.6 0.7 0.1
v 0.6 0.8 0.1
v 0.6 0.9 0.1
v 0.6 1.1 0.1
v 0.6 1.2 0.1
v 0.6 1.3 0.1
v 0.7 0.8 0.1
v 0.7 1.2 0.1
v -0.7 0.8 -0.2
v -0.7 1.2 -0.2
v -0.6 0.7 -0.2
v -0.6 0.8 -0.2
v -0.6 0.9 -0.2
v -0.6 1.1 -0.2
v -0.6 1.2 -0.2
v -0.6 1.3 -0.2
v -0.5 0.6 -0.2
v -0.5 0.7 -0.2
v -0.5 0.8 -0.2
v -0.5 0.9 -0.2
v -0.5 1.1 -0.2
v -0.5 1.2 -0.2
v -0.5 1.3 -0.2
v -0.5 1.4 -0.2
v -0.4 0.5 -0.2
v -0.4 0.6 -0.2
v -0.4 0.7 -0.2
v -0.4 0.8 -0.2
v -0.4 1.2 -0.2
v -0.3 0.4 -0.2
v -0.3 0.5 -0.2
v -0.3 0.6 -0.2
v -0.3 0.7 -0.2
v -0.2 0.3 -0.2
v -0.2 0.4 -0.2
v -0.2 0.5 -0.2
v -0.2 0.6 -0.2
v -0.2 1.1 -0.2
v -0.2 1.2 -0.2
v -0.2 1.3 -0.2
v -0.2 1.4 -0.2
v -0.1 0.2 -0.2
v -0.1 0.3 -0.2
v -0.1 0.4 -0.2
v -0.1 0.5 -0.2
v -0.1 1 -0.2
v -0.1 1.1 -0.2
v -0.1 1.2 -0.2
v -0.1 1.3 -0.2
v 0.1 0.2 -0.2
v 0.1 0.3 -0.2
v 0.1 0.4 -0.2
v 0.1 0.5 -0.2
v 0.1 1 -0.2
v 0.1 1.1 -0.2
v 0.1 1.2 -0.2
v 0.1 1.3 -0.2
v 0.2 0.3 -0.2
v 0.2 0.4 -0.2
v 0.2 0.5 -0.2
v 0.2 0.6 -0.2
v 0.2 1.1 -0.2
v 0.2 1.2 -0.2
v 0.2 1.3 -0.2
v 0.2 1.4 -0.2
v 0.3 0.4 -0.2
v 0.3 0.5 -0.2
v 0.3 0.6 -0.2
v 0.3 0.7 -0.2
v 0.4 0.5 -0.2
v 0.4 0.6 -0.2
v 0.4 0.7 -0.2
v 0.4 0.8 -0.2
v 0.4 1.2 -0.2
v 0.5 0.6 -0.2
v 0.5 0.7 -0.2
v 0.5 0.8 -0.2
v 0.5 0.9 -0.2
v 0.5 1.1 -0.2
v 0.5 1.2 -0.2
v 0.5 1.3 -0.2
v 0.5 1.4 -0.2
v 0.6 0.7 -0.2
v 0.6 0.8 -0.2
v 0.6 0.9 -0.2
v 0.6 1.1 -0.2
v 0.6 1.2 -0.2
v 0.6 1.3 -0.2
v 0.7 0.8 -0.2
v 0.7 1.2 -0.2
v -0.6 0.9 -0.3
v -0.6 1.1 -0.3
v -0.5 0.8 -0.3
v -0.5 0.9 -0.3
v -0.5 1.1 -0.3
v -0.5 1.2 -0.3
v -0.4 0.7 -0.3
v -0.4 0.8 -0.3
v -0.4 1.1 -0.3
v -0.4 1.2 -0.3
v -0.3 0.6 -0.3
v -0.3 0.7 -0.3
v -0.2 0.5 -0.3
v -0.2 0.6 -0.3
v -0.2 1.1 -0.3
v -0.2 1.2 -0.3
v -0.1 0.4 -0.3
v -0.1 0.5 -0.3
v -0.1 1 -0.3
v -0.1 1.1 -0.3
v 0.1 0.4 -0.3
v 0.1 0.5 -0.3
v 0.1 1 -0.3
v 0.1 1.1 -0.3
v 0.2 0.5 -0.3
v 0.2 0.6 -0.3
v 0.2 1.1 -0.3
v 0.2 1.2 -0.3
v 0.3 0.6 -0.3
v 0.3 0.7 -0.3
v 0.4 0.7 -0.3
v 0.4 0.8 -0.3
v 0.4 1.1 -0.3
v 0.4 1.2 -0.3
v 0.5 0.8 -0.3
v 0.5 0.9 -0.3
v 0.5 1.1 -0.3
v 0.5 1.2 -0.3
v 0.6 0.9 -0.3
v 0.6 1.1 -0.3
v -0.1 0.2 0.1
v 0.1 0.2 0.1
v -0.1 0.2 -0.2
v 0.1 0.2 -0.2
v -0.2 0.3 0.1
v -0.1 0.3 0.1
v 0.1 0.3 0.1
v 0.2 0.3 0.1
v -0.2 0.3 -0.2
v -0.1 0.3 -0.2
v 0.1 0.3 -0.2
v 0.2 0.3 -0.2
v -0.1 0.4 0.2
v 0.1 0.4 0.2
v -0.3 0.4 0.1
v -0.2 0.4 0.1
v -0.1 0.4 0.1
v 0.1 0.4 0.1
v 0.2 0.4 0.1
v 0.3 0.4 0.1
v -0.3 0.4 -0.2
v -0.2 0.4 -0.2
v -0.1 0.4 -0.2
v 0.1 0.4 -0.2
v 0.2 0.4 -0.2
v 0.3 0.4 -0.2
v -0.1 0.4 -0.3
v 0.1 0.4 -0.3
v -0.2 0.5 0.2
v -0.1 0.5 0.2
v 0.1 0.5 0.2
v 0.2 0.5 0.2
v -0.4 0.5 0.1
v -0.3 0.5 0.1
v -0.2 0.5 0.1
v -0.1 0.5 0.1
v 0.1 0.5 0.1
v 0.2 0.5 0.1
v 0.3 0.5 0.1
v 0.4 0.5 0.1
v -0.4 0.5 -0.2
v -0.3 0.5 -0.2
v -0.2 0.5 -0.2
v -0.1 0.5 -0.2
v 0.1 0.5 -0.2
v 0.2 0.5 -0.2
v 0.3 0.5 -0.2
v 0.4 0.5 -0.2
v -0.2 0.5 -0.3
v -0.1 0.5 -0.3
v 0.1 0.5 -0.3
v 0.2 0.5 -0.3
v -0.3 0.6 0.2
v -0.2 0.6 0.2
v 0.2 0.6 0.2
v 0.3 0.6 0.2
v -0.5 0.6 0.1
v -0.4 0.6 0.1
v -0.3 0.6 0.1
v -0.2 0.6 0.1
v 0.2 0.6 0.1
v 0.3 0.6 0.1
v 0.4 0.6 0.1
v 0.5 0.6 0.1
v -0.5 0.6 -0.2
v -0.4 0.6 -0.2
v -0.3 0.6 -0.2
v -0.2 0.6 -0.2
v 0.2 0.6 -0.2
v 0.3 0.6 -0.2
v 0.4 0.6 -0.2
v 0.5 0.6 -0.2
v -0.3 0.6 -0.3
v -0.2 0.6 -0.3
v 0.2 0.6 -0.3
v 0.3 0.6 -0.3
v -0.4 0.7 0.2
v -0.3 0.7 0.2
v 0.3 0.7 0.2
v 0.4 0.7 0.2
v -0.6 0.7 0.1
v -0.5 0.7 0.1
v -0.4 0.7 0.1
v -0.3 0.7 0.1
v 0.3 0.7 0.1
v 0.4 0.7 0.1
v 0.5 0.7 0.1
v 0.6 0.7 0.1
v -0.6 0.7 -0.2
v -0.5 0.7 -0.2
v -0.4 0.7 -0.2
v -0.3 0.7 -0.2
v 0.3 0.7 -0.2
v 0.4 0.7 -0.2
v 0.5 0.7 -0.2
v 0.6 0.7 -0.2
v -0.4 0.7 -0.3
v -0.3 0.7 -0.3
v 0.3 0.7 -0.3
v 0.4 0.7 -0.3
v -0.5 0.8 0.2
v -0.4 0.8 0.2
v 0.4 0.8 0.2
v 0.5 0.8 0.2
v -0.7 0.8 0.1
v -0.6 0.8 0.1
v -0.5 0.8 0.1
v -0.4 0.8 0.1
v 0.4 0.8 0.1
v 0.5 0.8 0.1
v 0.6 0.8 0.1
v 0.7 0.8 0.1
v -0.7 0.8 -0.2
v -0.6 0.8 -0.2
v -0.5 0.8 -0.2
v -0.4 0.8 -0.2
v 0.4 0.8 -0.2
v 0.5 0.8 -0.2
v 0.6 0.8 -0.2
v 0.7 0.8 -0.2
v -0.5 0.8 -0.3
v -0.4 0.8 -0.3
v 0.4 0.8 -0.3
v 0.5 0.8 -0.3
v -0.6 0.9 0.2
v -0.5 0.9 0.2
v 0.5 0.9 0.2
v 0.6 0.9 0.2
v -0.6 0.9 0.1
v -0.5 0.9 0.1
v 0.5 0.9 0.1
v 0.6 0.9 0.1
v -0.6 0.9 -0.2
v -0.5 0.9 -0.2
v 0.5 0.9 -0.2
v 0.6 0.9 -0.2
v -0.6 0.9 -0.3
v -0.5 0.9 -0.3
v 0.5 0.9 -0.3
v 0.6 0.9 -0.3
v -0.1 1 0.2
v 0.1 1 0.2
v -0.1 1 0.1
v 0.1 1 0.1
v -0.1 1 -0.2
v 0.1 1 -0.2
v -0.1 1 -0.3
v 0.1 1 -0.3
v -0.6 1.1 0.2
v -0.5 1.1 0.2
v -0.2 1.1 0.2
v -0.1 1.1 0.2
v 0.1 1.1 0.2
v 0.2 1.1 0.2
v 0.5 1.1 0.2
v 0.6 1.1 0.2
v -0.6 1.1 0.1
v -0.5 1.1 0.1
v -0.2 1.1 0.1
v -0.1 1.1 0.1
v 0.1 1.1 0.1
v 0.2 1.1 0.1
v 0.5 1.1 0.1
v 0.6 1.1 0.1
v -0.6 1.1 -0.2
v -0.5 1.1 -0.2
v -0.2 1.1 -0.2
v -0.1 1.1 -0.2
v 0.1 1.1 -0.2
v 0.2 1.1 -0.2
v 0.5 1.1 -0.2
v 0.6 1.1 -0.2
v -0.6 1.1 -0.3
v -0.5 1.1 -0.3
v -0.2 1.1 -0.3
v -0.1 1.1 -0.3
v 0.1 1.1 -0.3
v 0.2 1.1 -0.3
v 0.5 1.1 -0.3
v 0.6 1.1 -0.3
v -0.5 1.2 0.2
v -0.4 1.2 0.2
v -0.2 1.2 0.2
v 0.2 1.2 0.2
v 0.4 1.2 0.2
v 0.5 1.2 0.2
v -0.7 1.2 0.1
v -0.6 1.2 0.1
v -0.5 1.2 0.1
v -0.4 1.2 0.1
v -0.2 1.2 0.1
v -0.1 1.2 0.1
v 0.1 1.2 0.1
v 0.2 1.2 0.1
v 0.4 1.2 0.1
v 0.5 1.2 0.1
v 0.6 1.2 0.1
v 0.7 1.2 0.1
v -0.7 1.2 -0.2
v -0.6 1.2 -0.2
v -0.5 1.2 -0.2
v -0.4 1.2 -0.2
v -0.2 1.2 -0.2
v -0.1 1.2 -0.2
v 0.1 1.2 -0.2
v 0.2 1.2 -0.2
v 0.4 1.2 -0.2
v 0.5 1.2 -0.2
v 0.6 1.2 -0.2
v 0.7 1.2 -0.2
v -0.5 1.2 -0.3
v -0.4 1.2 -0.3
v -0.2 1.2 -0.3
v 0.2 1.2 -0.3
v 0.4 1.2 -0.3
v 0.5 1.2 -0.3
v -0.6 1.3 0.1
v -0.5 1.3 0.1
v -0.2 1.3 0.1
v -0.1 1.3 0.1
v 0.1 1.3 0.1
v 0.2 1.3 0.1
v 0.5 1.3 0.1
v 0.6 1.3 0.1
v -0.6 1.3 -0.2
v -0.5 1.3 -0.2
v -0.2 1.3 -0.2
v -0.1 1.3 -0.2
v 0.1 1.3 -0.2
v 0.2 1.3 -0.2
v 0.5 1.3 -0.2
v 0.6 1.3 -0.2
v -0.5 1.4 0.1
v -0.2 1.4 0.1
v 0.2 1.4 0.1
v 0.5 1.4 0.1
v -0.5 1.4 -0.2
v -0.2 1.4 -0.2
v 0.2 1.4 -0.2
v 0.5 1.4 -0.2

# faces
f 3/2/1 2/2/1 1/2/1
f 4/2/1 2/2/1 3/2/1
f 7/2/1 6/2/1 5/2/1
f 8/2/1 6/2/1 7/2/1
f 13/1/1 10/1/1 9/1/1
f 14/1/1 10/1/1 13/1/1
f 15/1/1 12/1/1 11/1/1
f 16/1/1 12/1/1 15/1/1
f 19/2/1 18/2/1 17/2/1
f 20/2/1 18/2/1 19/2/1
f 23/2/1 22/2/1 21/2/1
f 24/2/1 22/2/1 23/2/1
f 29/2/1 26/2/1 25/2/1
f 30/2/1 26/2/1 29/2/1
f 31/2/1 28/2/1 27/2/1
f 32/2/1 28/2/1 31/2/1
f 37/1/1 34/1/1 33/1/1
f 38/1/1 34/1/1 37/1/1
f 39/1/1 36/1/1 35/1/1
f 40/1/1 36/1/1 39/1/1
f 43/2/1 42/2/1 41/2/1
f 44/2/1 42/2/1 43/2/1
f 47/2/1 46/2/1 45/2/1
f 48/2/1 46/2/1 47/2/1
f 53/2/1 50/2/1 49/2/1
f 54/2/1 50/2/1 53/2/1
f 55/2/1 52/2/1 51/2/1
f 56/2/1 52/2/1 55/2/1
f 59/2/1 58/2/1 57/2/1
f 60/2/1 58/2/1 59/2/1
f 65/2/1 62/2/1 61/2/1
f 66/2/1 62/2/1 65/2/1
f 67/2/1 64/2/1 63/2/1
f 68/2/1 64/2/1 67/2/1
f 71/2/1 70/2/1 69/2/1
f 72/2/1 70/2/1 71/2/1
f 77/2/1 74/2/1 73/2/1
f 78/2/1 74/2/1 77/2/1
f 79/2/1 76/2/1 75/2/1
f 80/2/1 76/2/1 79/2/1
f 83/2/1 82/2/1 81/2/1
f 84/2/1 82/2/1 83/2/1
f 89/2/1 86/2/1 85/2/1
f 90/2/1 86/2/1 89/2/1
f 91/2/1 88/2/1 87/2/1
f 92/2/1 88/2/1 91/2/1
f 97/2/1 94/2/1 93/2/1
f 98/2/1 94/2/1 97/2/1
f 99/2/1 96/2/1 95/2/1
f 100/2/1 96/2/1 99/2/1
f 103/2/1 102/2/1 101/2/1
f 104/2/1 102/2/1 103/2/1
f 109/2/1 106/2/1 105/2/1
f 110/2/1 106/2/1 109/2/1
f 111/2/1 108/2/1 107/2/1
f 112/2/1 108/2/1 111/2/1
f 115/2/1 114/2/1 113/2/1
f 116/2/1 114/2/1 115/2/1
f 117/2/2 118/2/2 121/2/2
f 121/2/2 118/2/2 122/2/2
f 119/2/2 120/2/2 123/2/2
f 123/2/2 120/2/2 124/2/2
f 125/2/2 126/2/2 127/2/2
f 127/2/2 126/2/2 128/2/2
f 129/2/2 130/2/2 133/2/2
f 133/2/2 130/2/2 134/2/2
f 131/2/2 132/2/2 135/2/2
f 135/2/2 132/2/2 136/2/2
f 137/2/2 138/2/2 139/2/2
f 139/2/2 138/2/2 140/2/2
f 141/2/2 142/2/2 143/2/2
f 143/2/2 142/2/2 144/2/2
f 145/2/2 146/2/2 149/2/2
f 149/2/2 146/2/2 150/2/2
f 147/2/2 148/2/2 151/2/2
f 151/2/2 148/2/2 152/2/2
f 153/2/2 154/2/2 155/2/2
f 155/2/2 154/2/2 156/2/2
f 157/2/2 158/2/2 161/2/2
f 161/2/2 158/2/2 162/2/2
f 159/2/2 160/2/2 163/2/2
f 163/2/2 160/2/2 164/2/2
f 165/2/2 166/2/2 167/2/2
f 167/2/2 166/2/2 168/2/2
f 169/2/2 170/2/2 173/2/2
f 173/2/2 170/2/2 174/2/2
f 171/2/2 172/2/2 175/2/2
f 175/2/2 172/2/2 176/2/2
f 177/2/2 178/2/2 179/2/2
f 179/2/2 178/2/2 180/2/2
f 181/2/2 182/2/2 185/2/2
f 185/2/2 182/2/2 186/2/2
f 183/2/2 184/2/2 187/2/2
f 187/2/2 184/2/2 188/2/2
f 189/2/2 190/2/2 191/2/2
f 191/2/2 190/2/2 192/2/2
f 193/2/2 194/2/2 197/2/2
f 197/2/2 194/2/2 198/2/2
f 195/2/2 196/2/2 199/2/2
f 199/2/2 196/2/2 200/2/2
f 201/1/2 202/1/2 205/1/2
f 205/1/2 202/1/2 206/1/2
f 203/1/2 204/1/2 207/1/2
f 207/1/2 204/1/2 208/1/2
f 209/2/2 210/2/2 211/2/2
f 211/2/2 210/2/2 212/2/2
f 213/2/2 214/2/2 215/2/2
f 215/2/2 214/2/2 216/2/2
f 217/1/2 218/1/2 221/1/2
f 221/1/2 218/1/2 222/1/2
f 219/1/2 220/1/2 223/1/2
f 223/1/2 220/1/2 224/1/2
f 225/2/2 226/2/2 227/2/2
f 227/2/2 226/2/2 228/2/2
f 229/2/2 230/2/2 231/2/2
f 231/2/2 230/2/2 232/2/2
f 236/1/3 234/1/3 233/1/3
f 237/1/3 234/1/3 236/1/3
f 240/2/3 236/2/3 235/2/3
f 240/2/3 237/2/3 236/2/3
f 241/1/3 238/1/3 237/1/3
f 241/2/3 237/2/3 240/2/3
f 242/1/3 238/1/3 241/1/3
f 244/2/3 240/2/3 239/2/3
f 244/2/3 241/2/3 240/2/3
f 244/2/3 242/2/3 241/2/3
f 246/2/3 244/2/3 243/2/3
f 247/2/3 242/2/3 244/2/3
f 247/2/3 244/2/3 246/2/3
f 248/2/3 242/2/3 247/2/3
f 250/2/3 246/2/3 245/2/3
f 250/2/3 247/2/3 246/2/3
f 251/2/3 247/2/3 250/2/3
f 252/2/3 247/2/3 251/2/3
f 253/2/3 250/2/3 249/2/3
f 253/2/3 251/2/3 250/2/3
f 254/2/3 251/2/3 253/2/3
f 255/2/3 251/2/3 254/2/3
f 257/2/3 256/2/3 255/2/3
f 257/2/3 255/2/3 254/2/3
f 258/2/3 256/2/3 257/2/3
f 259/2/3 256/2/3 258/2/3
f 261/2/3 259/2/3 258/2/3
f 261/2/3 260/2/3 259/2/3
f 262/2/3 260/2/3 261/2/3
f 263/2/3 260/2/3 262/2/3
f 264/2/3 260/2/3 263/2/3
f 265/2/3 260/2/3 264/2/3
f 266/2/3 260/2/3 265/2/3
f 267/2/3 265/2/3 264/2/3
f 268/2/3 265/2/3 267/2/3
f 269/1/3 266/1/3 265/1/3
f 269/2/3 265/2/3 268/2/3
f 270/1/3 266/1/3 269/1/3
f 271/1/3 269/1/3 268/1/3
f 272/1/3 269/1/3 271/1/3
f 276/2/3 274/2/3 273/2/3
f 277/2/3 274/2/3 276/2/3
f 278/2/3 274/2/3 277/2/3
f 279/2/3 274/2/3 278/2/3
f 282/2/3 276/2/3 275/2/3
f 282/2/3 277/2/3 276/2/3
f 283/2/3 277/2/3 282/2/3
f 284/2/3 277/2/3 283/2/3
f 285/1/3 279/1/3 278/1/3
f 286/2/3 280/2/3 279/2/3
f 286/1/3 279/1/3 285/1/3
f 287/2/3 280/2/3 286/2/3
f 290/2/3 282/2/3 281/2/3
f 290/2/3 283/2/3 282/2/3
f 291/2/3 283/2/3 290/2/3
f 292/2/3 283/2/3 291/2/3
f 293/1/3 287/1/3 286/1/3
f 295/2/3 290/2/3 289/2/3
f 295/2/3 291/2/3 290/2/3
f 296/2/3 291/2/3 295/2/3
f 297/2/3 291/2/3 296/2/3
f 299/2/3 295/2/3 294/2/3
f 299/2/3 296/2/3 295/2/3
f 300/2/3 296/2/3 299/2/3
f 301/2/3 296/2/3 300/2/3
f 303/1/3 287/1/3 293/1/3
f 304/2/3 288/2/3 287/2/3
f 304/1/3 287/1/3 303/1/3
f 305/2/3 288/2/3 304/2/3
f 307/2/3 300/2/3 299/2/3
f 307/2/3 299/2/3 298/2/3
f 308/2/3 300/2/3 307/2/3
f 309/2/3 300/2/3 308/2/3
f 311/2/3 303/2/3 302/2/3
f 311/2/3 304/2/3 303/2/3
f 312/2/3 304/2/3 311/2/3
f 313/2/3 304/2/3 312/2/3
f 314/2/3 308/2/3 307/2/3
f 314/2/3 307/2/3 306/2/3
f 315/2/3 308/2/3 314/2/3
f 316/2/3 308/2/3 315/2/3
f 318/2/3 312/2/3 311/2/3
f 318/2/3 311/2/3 310/2/3
f 319/2/3 312/2/3 318/2/3
f 320/2/3 312/2/3 319/2/3
f 322/2/3 317/2/3 316/2/3
f 322/2/3 316/2/3 315/2/3
f 323/2/3 317/2/3 322/2/3
f 324/2/3 317/2/3 323/2/3
f 326/2/3 321/2/3 320/2/3
f 326/2/3 320/2/3 319/2/3
f 327/2/3 321/2/3 326/2/3
f 328/2/3 321/2/3 327/2/3
f 330/2/3 325/2/3 324/2/3
f 330/2/3 324/2/3 323/2/3
f 331/2/3 325/2/3 330/2/3
f 332/2/3 325/2/3 331/2/3
f 334/2/3 333/2/3 332/2/3
f 334/2/3 332/2/3 331/2/3
f 335/2/3 333/2/3 334/2/3
f 336/2/3 333/2/3 335/2/3
f 338/1/3 328/1/3 327/1/3
f 339/2/3 337/2/3 336/2/3
f 339/2/3 336/2/3 335/2/3
f 340/2/3 337/2/3 339/2/3
f 341/2/3 337/2/3 340/2/3
f 344/1/3 328/1/3 338/1/3
f 345/2/3 329/2/3 328/2/3
f 345/1/3 328/1/3 344/1/3
f 346/2/3 329/2/3 345/2/3
f 347/2/3 342/2/3 341/2/3
f 347/2/3 341/2/3 340/2/3
f 348/2/3 342/2/3 347/2/3
f 349/2/3 342/2/3 348/2/3
f 350/1/3 344/1/3 343/1/3
f 351/2/3 345/2/3 344/2/3
f 351/1/3 344/1/3 350/1/3
f 352/2/3 345/2/3 351/2/3
f 353/2/3 349/2/3 348/2/3
f 353/2/3 350/2/3 349/2/3
f 353/2/3 351/2/3 350/2/3
f 354/2/3 351/2/3 353/2/3
f 355/2/4 356/2/4 358/2/4
f 358/2/4 356/2/4 359/2/4
f 359/2/4 356/2/4 360/2/4
f 360/2/4 356/2/4 361/2/4
f 357/2/4 358/2/4 364/2/4
f 358/2/4 359/2/4 364/2/4
f 364/2/4 359/2/4 365/2/4
f 365/2/4 359/2/4 366/2/4
f 360/1/4 361/1/4 367/1/4
f 361/2/4 362/2/4 368/2/4
f 367/1/4 361/1/4 368/1/4
f 368/2/4 362/2/4 369/2/4
f 363/2/4 364/2/4 372/2/4
f 364/2/4 365/2/4 372/2/4
f 372/2/4 365/2/4 373/2/4
f 373/2/4 365/2/4 374/2/4
f 368/1/4 369/1/4 375/1/4
f 371/2/4 372/2/4 377/2/4
f 372/2/4 373/2/4 377/2/4
f 377/2/4 373/2/4 378/2/4
f 378/2/4 373/2/4 379/2/4
f 376/2/4 377/2/4 381/2/4
f 377/2/4 378/2/4 381/2/4
f 381/2/4 378/2/4 382/2/4
f 382/2/4 378/2/4 383/2/4
f 375/1/4 369/1/4 385/1/4
f 369/2/4 370/2/4 386/2/4
f 385/1/4 369/1/4 386/1/4
f 386/2/4 370/2/4 387/2/4
f 381/2/4 382/2/4 389/2/4
f 380/2/4 381/2/4 389/2/4
f 389/2/4 382/2/4 390/2/4
f 390/2/4 382/2/4 391/2/4
f 384/2/4 385/2/4 393/2/4
f 385/2/4 386/2/4 393/2/4
f 393/2/4 386/2/4 394/2/4
f 394/2/4 386/2/4 395/2/4
f 389/2/4 390/2/4 396/2/4
f 388/2/4 389/2/4 396/2/4
f 396/2/4 390/2/4 397/2/4
f 397/2/4 390/2/4 398/2/4
f 393/2/4 394/2/4 400/2/4
f 392/2/4 393/2/4 400/2/4
f 400/2/4 394/2/4 401/2/4
f 401/2/4 394/2/4 402/2/4
f 398/2/4 399/2/4 404/2/4
f 397/2/4 398/2/4 404/2/4
f 404/2/4 399/2/4 405/2/4
f 405/2/4 399/2/4 406/2/4
f 402/2/4 403/2/4 408/2/4
f 401/2/4 402/2/4 408/2/4
f 408/2/4 403/2/4 409/2/4
f 409/2/4 403/2/4 410/2/4
f 406/2/4 407/2/4 412/2/4
f 405/2/4 406/2/4 412/2/4
f 412/2/4 407/2/4 413/2/4
f 413/2/4 407/2/4 414/2/4
f 414/2/4 415/2/4 416/2/4
f 413/2/4 414/2/4 416/2/4
f 416/2/4 415/2/4 417/2/4
f 417/2/4 415/2/4 418/2/4
f 409/1/4 410/1/4 420/1/4
f 418/2/4 419/2/4 421/2/4
f 417/2/4 418/2/4 421/2/4
f 421/2/4 419/2/4 422/2/4
f 422/2/4 419/2/4 423/2/4
f 420/1/4 410/1/4 426/1/4
f 410/2/4 411/2/4 427/2/4
f 426/1/4 410/1/4 427/1/4
f 427/2/4 411/2/4 428/2/4
f 423/2/4 424/2/4 429/2/4
f 422/2/4 423/2/4 429/2/4
f 429/2/4 424/2/4 430/2/4
f 430/2/4 424/2/4 431/2/4
f 425/1/4 426/1/4 432/1/4
f 426/2/4 427/2/4 433/2/4
f 432/1/4 426/1/4 433/1/4
f 433/2/4 427/2/4 434/2/4
f 430/2/4 431/2/4 435/2/4
f 431/2/4 432/2/4 435/2/4
f 432/2/4 433/2/4 435/2/4
f 435/2/4 433/2/4 436/2/4
f 437/1/4 438/1/4 440/1/4
f 440/1/4 438/1/4 441/1/4
f 439/2/4 440/2/4 444/2/4
f 440/2/4 441/2/4 444/2/4
f 441/1/4 442/1/4 445/1/4
f 444/2/4 441/2/4 445/2/4
f 445/1/4 442/1/4 446/1/4
f 443/2/4 444/2/4 448/2/4
f 444/2/4 445/2/4 448/2/4
f 445/2/4 446/2/4 448/2/4
f 447/2/4 448/2/4 450/2/4
f 448/2/4 446/2/4 451/2/4
f 450/2/4 448/2/4 451/2/4
f 451/2/4 446/2/4 452/2/4
f 449/2/4 450/2/4 454/2/4
f 450/2/4 451/2/4 454/2/4
f 454/2/4 451/2/4 455/2/4
f 455/2/4 451/2/4 456/2/4
f 453/2/4 454/2/4 457/2/4
f 454/2/4 455/2/4 457/2/4
f 457/2/4 455/2/4 458/2/4
f 458/2/4 455/2/4 459/2/4
f 459/2/4 460/2/4 461/2/4
f 458/2/4 459/2/4 461/2/4
f 461/2/4 460/2/4 462/2/4
f 462/2/4 460/2/4 463/2/4
f 462/2/4 463/2/4 465/2/4
f 463/2/4 464/2/4 465/2/4
f 465/2/4 464/2/4 466/2/4
f 466/2/4 464/2/4 467/2/4
f 467/2/4 464/2/4 468/2/4
f 468/2/4 464/2/4 469/2/4
f 469/2/4 464/2/4 470/2/4
f 468/2/4 469/2/4 471/2/4
f 471/2/4 469/2/4 472/2/4
f 469/1/4 470/1/4 473/1/4
f 472/2/4 469/2/4 473/2/4
f 473/1/4 470/1/4 474/1/4
f 472/1/4 473/1/4 475/1/4
f 475/1/4 473/1/4 476/1/4
f 479/2/5 478/2/5 477/2/5
f 480/2/5 478/2/5 479/2/5
f 485/2/5 482/2/5 481/2/5
f 486/2/5 482/2/5 485/2/5
f 487/2/5 484/2/5 483/2/5
f 488/2/5 484/2/5 487/2/5
f 493/2/5 490/2/5 489/2/5
f 494/2/5 490/2/5 493/2/5
f 497/2/5 492/2/5 491/2/5
f 498/2/5 492/2/5 497/2/5
f 501/2/5 496/2/5 495/2/5
f 502/2/5 496/2/5 501/2/5
f 503/2/5 500/2/5 499/2/5
f 504/2/5 500/2/5 503/2/5
f 511/2/5 506/2/5 505/2/5
f 512/2/5 506/2/5 511/2/5
f 513/2/5 508/2/5 507/2/5
f 514/2/5 508/2/5 513/2/5
f 517/2/5 510/2/5 509/2/5
f 518/2/5 510/2/5 517/2/5
f 523/2/5 516/2/5 515/2/5
f 524/2/5 516/2/5 523/2/5
f 525/2/5 520/2/5 519/2/5
f 526/2/5 520/2/5 525/2/5
f 527/2/5 522/2/5 521/2/5
f 528/2/5 522/2/5 527/2/5
f 535/2/5 530/2/5 529/2/5
f 536/2/5 530/2/5 535/2/5
f 537/2/5 532/2/5 531/2/5
f 538/2/5 532/2/5 537/2/5
f 541/2/5 534/2/5 533/2/5
f 542/2/5 534/2/5 541/2/5
f 547/2/5 540/2/5 539/2/5
f 548/2/5 540/2/5 547/2/5
f 549/2/5 544/2/5 543/2/5
f 550/2/5 544/2/5 549/2/5
f 551/2/5 546/2/5 545/2/5
f 552/2/5 546/2/5 551/2/5
f 559/2/5 554/2/5 553/2/5
f 560/2/5 554/2/5 559/2/5
f 561/2/5 556/2/5 555/2/5
f 562/2/5 556/2/5 561/2/5
f 565/2/5 558/2/5 557/2/5
f 566/2/5 558/2/5 565/2/5
f 571/2/5 564/2/5 563/2/5
f 572/2/5 564/2/5 571/2/5
f 573/2/5 568/2/5 567/2/5
f 574/2/5 568/2/5 573/2/5
f 575/2/5 570/2/5 569/2/5
f 576/2/5 570/2/5 575/2/5
f 583/2/5 578/2/5 577/2/5
f 584/2/5 578/2/5 583/2/5
f 585/2/5 580/2/5 579/2/5
f 586/2/5 580/2/5 585/2/5
f 589/2/5 582/2/5 581/2/5
f 590/2/5 582/2/5 589/2/5
f 595/2/5 588/2/5 587/2/5
f 596/2/5 588/2/5 595/2/5
f 597/2/5 592/2/5 591/2/5
f 598/2/5 592/2/5 597/2/5
f 599/2/5 594/2/5 593/2/5
f 600/2/5 594/2/5 599/2/5
f 605/1/5 602/1/5 601/1/5
f 606/1/5 602/1/5 605/1/5
f 607/1/5 604/1/5 603/1/5
f 608/1/5 604/1/5 607/1/5
f 613/1/5 610/1/5 609/1/5
f 614/1/5 610/1/5 613/1/5
f 615/1/5 612/1/5 611/1/5
f 616/1/5 612/1/5 615/1/5
f 617/2/6 618/2/6 619/2/6
f 619/2/6 618/2/6 620/2/6
f 621/2/6 622/2/6 623/2/6
f 623/2/6 622/2/6 624/2/6
f 625/1/6 626/1/6 633/1/6
f 633/1/6 626/1/6 634/1/6
f 627/2/6 628/2/6 635/2/6
f 635/2/6 628/2/6 636/2/6
f 629/2/6 630/2/6 637/2/6
f 637/2/6 630/2/6 638/2/6
f 631/1/6 632/1/6 639/1/6
f 639/1/6 632/1/6 640/1/6
f 641/1/6 642/1/6 649/1/6
f 649/1/6 642/1/6 650/1/6
f 643/2/6 644/2/6 651/2/6
f 651/2/6 644/2/6 652/2/6
f 645/2/6 646/2/6 653/2/6
f 653/2/6 646/2/6 654/2/6
f 647/1/6 648/1/6 655/1/6
f 655/1/6 648/1/6 656/1/6
f 657/1/6 658/1/6 665/1/6
f 658/2/6 659/2/6 666/2/6
f 665/1/6 658/1/6 666/1/6
f 666/2/6 659/2/6 667/2/6
f 660/2/6 661/2/6 670/2/6
f 661/1/6 662/1/6 671/1/6
f 670/2/6 661/2/6 671/2/6
f 671/1/6 662/1/6 672/1/6
f 663/2/6 664/2/6 675/2/6
f 675/2/6 664/2/6 676/2/6
f 668/2/6 669/2/6 680/2/6
f 680/2/6 669/2/6 681/2/6
f 673/2/6 674/2/6 685/2/6
f 685/2/6 674/2/6 686/2/6
f 677/1/6 678/1/6 687/1/6
f 678/2/6 679/2/6 688/2/6
f 687/1/6 678/1/6 688/1/6
f 688/2/6 679/2/6 689/2/6
f 682/2/6 683/2/6 690/2/6
f 683/1/6 684/1/6 691/1/6
f 690/2/6 683/2/6 691/2/6
f 691/1/6 684/1/6 692/1/6
f 693/2/6 694/2/6 701/2/6
f 701/2/6 694/2/6 702/2/6
f 695/2/6 696/2/6 703/2/6
f 703/2/6 696/2/6 704/2/6
f 697/2/6 698/2/6 705/2/6
f 705/2/6 698/2/6 706/2/6
f 699/2/6 700/2/6 707/2/6
f 707/2/6 700/2/6 708/2/6
f 709/2/6 710/2/6 713/2/6
f 713/2/6 710/2/6 714/2/6
f 711/2/6 712/2/6 715/2/6
f 715/2/6 712/2/6 716/2/6
