# MagicaVoxel @ Ephtracy

# group
o 

# material
mtllib Items-0.mtl
usemtl palette

# normals
vn -1 0 0
vn 1 0 0
vn 0 0 1
vn 0 0 -1
vn 0 -1 0
vn 0 1 0

# texcoords
vt 0.939453 0.5
vt 0.943359 0.5
vt 0.947266 0.5

# verts
v -0.3 0.2 0.1
v -0.3 0.2 -0.1
v -0.3 0.6 0.1
v -0.3 0.6 -0.1
v -0.2 0.1 0.1
v -0.2 0.1 -0.1
v -0.2 0.2 0.1
v -0.2 0.2 -0.1
v -0.2 0.6 0.1
v -0.2 0.6 -0.1
v -0.2 0.7 0.1
v -0.2 0.7 -0.1
v -0.1 0 0.1
v -0.1 0 -0.1
v -0.1 0.1 0.1
v -0.1 0.1 -0.1
v -0.1 0.7 0.1
v -0.1 0.7 -0.1
v -0.1 0.8 0.1
v -0.1 0.8 -0.1
v 0 0.2 0.1
v 0 0.2 -0.1
v 0 0.6 0.1
v 0 0.6 -0.1
v 0.1 0.1 0.1
v 0.1 0.1 -0.1
v 0.1 0.2 0.1
v 0.1 0.2 -0.1
v 0.1 0.6 0.1
v 0.1 0.6 -0.1
v 0.1 0.7 0.1
v 0.1 0.7 -0.1
v 0.2 0 0.1
v 0.2 0 -0.1
v 0.2 0.1 0.1
v 0.2 0.1 -0.1
v 0.2 0.7 0.1
v 0.2 0.7 -0.1
v 0.2 0.8 0.1
v 0.2 0.8 -0.1
v -0.3 0.2 0.1
v -0.3 0.6 0.1
v -0.2 0.1 0.1
v -0.2 0.2 0.1
v -0.2 0.5 0.1
v -0.2 0.6 0.1
v -0.2 0.7 0.1
v -0.1 0 0.1
v -0.1 0.1 0.1
v -0.1 0.2 0.1
v -0.1 0.5 0.1
v -0.1 0.6 0.1
v -0.1 0.7 0.1
v -0.1 0.8 0.1
v 0 0.1 0.1
v 0 0.2 0.1
v 0 0.6 0.1
v 0 0.7 0.1
v 0 0.8 0.1
v 0.1 0 0.1
v 0.1 0.1 0.1
v 0.1 0.2 0.1
v 0.1 0.6 0.1
v 0.1 0.7 0.1
v 0.1 0.8 0.1
v 0.2 0 0.1
v 0.2 0.1 0.1
v 0.2 0.7 0.1
v 0.2 0.8 0.1
v -0.3 0.2 -0.1
v -0.3 0.6 -0.1
v -0.2 0.1 -0.1
v -0.2 0.2 -0.1
v -0.2 0.5 -0.1
v -0.2 0.6 -0.1
v -0.2 0.7 -0.1
v -0.1 0 -0.1
v -0.1 0.1 -0.1
v -0.1 0.2 -0.1
v -0.1 0.5 -0.1
v -0.1 0.6 -0.1
v -0.1 0.7 -0.1
v -0.1 0.8 -0.1
v 0 0.1 -0.1
v 0 0.2 -0.1
v 0 0.6 -0.1
v 0 0.7 -0.1
v 0 0.8 -0.1
v 0.1 0 -0.1
v 0.1 0.1 -0.1
v 0.1 0.2 -0.1
v 0.1 0.6 -0.1
v 0.1 0.7 -0.1
v 0.1 0.8 -0.1
v 0.2 0 -0.1
v 0.2 0.1 -0.1
v 0.2 0.7 -0.1
v 0.2 0.8 -0.1
v -0.1 0 0.1
v 0.1 0 0.1
v 0.2 0 0.1
v -0.1 0 -0.1
v 0.1 0 -0.1
v 0.2 0 -0.1
v -0.2 0.1 0.1
v -0.1 0.1 0.1
v -0.2 0.1 -0.1
v -0.1 0.1 -0.1
v -0.3 0.2 0.1
v -0.2 0.2 0.1
v -0.3 0.2 -0.1
v -0.2 0.2 -0.1
v 0 0.6 0.1
v 0.1 0.6 0.1
v 0 0.6 -0.1
v 0.1 0.6 -0.1
v 0.1 0.7 0.1
v 0.2 0.7 0.1
v 0.1 0.7 -0.1
v 0.2 0.7 -0.1
v 0.1 0.1 0.1
v 0.2 0.1 0.1
v 0.1 0.1 -0.1
v 0.2 0.1 -0.1
v 0 0.2 0.1
v 0.1 0.2 0.1
v 0 0.2 -0.1
v 0.1 0.2 -0.1
v -0.3 0.6 0.1
v -0.2 0.6 0.1
v -0.3 0.6 -0.1
v -0.2 0.6 -0.1
v -0.2 0.7 0.1
v -0.1 0.7 0.1
v -0.2 0.7 -0.1
v -0.1 0.7 -0.1
v -0.1 0.8 0.1
v 0 0.8 0.1
v 0.1 0.8 0.1
v 0.2 0.8 0.1
v -0.1 0.8 -0.1
v 0 0.8 -0.1
v 0.1 0.8 -0.1
v 0.2 0.8 -0.1

# faces
f 3/1/1 2/1/1 1/1/1
f 4/1/1 2/1/1 3/1/1
f 7/1/1 6/1/1 5/1/1
f 8/1/1 6/1/1 7/1/1
f 11/2/1 10/2/1 9/2/1
f 12/2/1 10/2/1 11/2/1
f 15/1/1 14/1/1 13/1/1
f 16/1/1 14/1/1 15/1/1
f 19/2/1 18/2/1 17/2/1
f 20/2/1 18/2/1 19/2/1
f 21/3/2 22/3/2 23/3/2
f 23/3/2 22/3/2 24/3/2
f 25/3/2 26/3/2 27/3/2
f 27/3/2 26/3/2 28/3/2
f 29/3/2 30/3/2 31/3/2
f 31/3/2 30/3/2 32/3/2
f 33/3/2 34/3/2 35/3/2
f 35/3/2 34/3/2 36/3/2
f 37/3/2 38/3/2 39/3/2
f 39/3/2 38/3/2 40/3/2
f 44/1/3 42/1/3 41/1/3
f 45/1/3 42/1/3 44/1/3
f 46/1/3 42/1/3 45/1/3
f 49/1/3 44/1/3 43/1/3
f 49/1/3 45/1/3 44/1/3
f 50/1/3 45/1/3 49/1/3
f 51/2/3 47/2/3 46/2/3
f 51/1/3 45/1/3 50/1/3
f 51/2/3 46/2/3 45/2/3
f 52/2/3 47/2/3 51/2/3
f 53/2/3 47/2/3 52/2/3
f 55/1/3 50/1/3 49/1/3
f 55/1/3 49/1/3 48/1/3
f 56/3/3 51/3/3 50/3/3
f 56/1/3 50/1/3 55/1/3
f 56/3/3 52/3/3 51/3/3
f 57/2/3 54/2/3 53/2/3
f 57/3/3 52/3/3 56/3/3
f 57/2/3 53/2/3 52/2/3
f 58/2/3 54/2/3 57/2/3
f 59/2/3 54/2/3 58/2/3
f 60/1/3 55/1/3 48/1/3
f 61/3/3 56/3/3 55/3/3
f 61/1/3 55/1/3 60/1/3
f 62/3/3 56/3/3 61/3/3
f 63/3/3 58/3/3 57/3/3
f 64/1/3 59/1/3 58/1/3
f 64/3/3 58/3/3 63/3/3
f 65/1/3 59/1/3 64/1/3
f 66/3/3 61/3/3 60/3/3
f 67/3/3 61/3/3 66/3/3
f 68/3/3 65/3/3 64/3/3
f 69/3/3 65/3/3 68/3/3
f 70/1/4 71/1/4 73/1/4
f 73/1/4 71/1/4 74/1/4
f 74/1/4 71/1/4 75/1/4
f 72/1/4 73/1/4 78/1/4
f 73/1/4 74/1/4 78/1/4
f 78/1/4 74/1/4 79/1/4
f 75/2/4 76/2/4 80/2/4
f 79/1/4 74/1/4 80/1/4
f 74/2/4 75/2/4 80/2/4
f 80/2/4 76/2/4 81/2/4
f 81/2/4 76/2/4 82/2/4
f 78/1/4 79/1/4 84/1/4
f 77/1/4 78/1/4 84/1/4
f 79/3/4 80/3/4 85/3/4
f 84/1/4 79/1/4 85/1/4
f 80/3/4 81/3/4 85/3/4
f 82/2/4 83/2/4 86/2/4
f 85/3/4 81/3/4 86/3/4
f 81/2/4 82/2/4 86/2/4
f 86/2/4 83/2/4 87/2/4
f 87/2/4 83/2/4 88/2/4
f 77/1/4 84/1/4 89/1/4
f 84/3/4 85/3/4 90/3/4
f 89/1/4 84/1/4 90/1/4
f 90/3/4 85/3/4 91/3/4
f 86/3/4 87/3/4 92/3/4
f 87/1/4 88/1/4 93/1/4
f 92/3/4 87/3/4 93/3/4
f 93/1/4 88/1/4 94/1/4
f 89/3/4 90/3/4 95/3/4
f 95/3/4 90/3/4 96/3/4
f 93/3/4 94/3/4 97/3/4
f 97/3/4 94/3/4 98/3/4
f 102/1/5 100/1/5 99/1/5
f 103/3/5 101/3/5 100/3/5
f 103/1/5 100/1/5 102/1/5
f 104/3/5 101/3/5 103/3/5
f 107/1/5 106/1/5 105/1/5
f 108/1/5 106/1/5 107/1/5
f 111/1/5 110/1/5 109/1/5
f 112/1/5 110/1/5 111/1/5
f 115/3/5 114/3/5 113/3/5
f 116/3/5 114/3/5 115/3/5
f 119/3/5 118/3/5 117/3/5
f 120/3/5 118/3/5 119/3/5
f 121/3/6 122/3/6 123/3/6
f 123/3/6 122/3/6 124/3/6
f 125/3/6 126/3/6 127/3/6
f 127/3/6 126/3/6 128/3/6
f 129/1/6 130/1/6 131/1/6
f 131/1/6 130/1/6 132/1/6
f 133/2/6 134/2/6 135/2/6
f 135/2/6 134/2/6 136/2/6
f 137/2/6 138/2/6 141/2/6
f 138/1/6 139/1/6 142/1/6
f 141/2/6 138/2/6 142/2/6
f 139/3/6 140/3/6 143/3/6
f 142/1/6 139/1/6 143/1/6
f 143/3/6 140/3/6 144/3/6
