# MagicaVoxel @ Ephtracy

# group
o 

# material
mtllib Items-5.mtl
usemtl palette

# normals
vn -1 0 0
vn 1 0 0
vn 0 0 1
vn 0 0 -1
vn 0 -1 0
vn 0 1 0

# texcoords
vt 0.939453 0.5
vt 0.943359 0.5
vt 0.947266 0.5

# verts
v -0.2 1.2 0.1
v -0.2 1.2 -0.1
v -0.2 1.3 0.1
v -0.2 1.3 -0.1
v -0.2 1.5 0.1
v -0.2 1.5 -0.1
v -0.1 0 0.1
v -0.1 0 -0.1
v -0.1 0.9 0.1
v -0.1 0.9 -0.1
v -0.1 1 0.1
v -0.1 1 -0.1
v -0.1 1.1 0.1
v -0.1 1.1 -0.1
v -0.1 1.2 0.1
v -0.1 1.2 -0.1
v -0.1 1.3 0.2
v -0.1 1.3 0.1
v -0.1 1.3 -0.1
v -0.1 1.3 -0.2
v -0.1 1.5 0.2
v -0.1 1.5 0.1
v -0.1 1.5 -0.1
v -0.1 1.5 -0.2
v -0.1 1.6 0.1
v -0.1 1.6 -0.1
v 0.1 0 0.1
v 0.1 0 -0.1
v 0.1 0.9 0.1
v 0.1 0.9 -0.1
v 0.1 1 0.1
v 0.1 1 -0.1
v 0.1 1.1 0.1
v 0.1 1.1 -0.1
v 0.1 1.2 0.1
v 0.1 1.2 -0.1
v 0.1 1.3 0.2
v 0.1 1.3 0.1
v 0.1 1.3 -0.1
v 0.1 1.3 -0.2
v 0.1 1.4 0.2
v 0.1 1.4 0.1
v 0.1 1.5 0.2
v 0.1 1.5 0.1
v 0.1 1.5 -0.1
v 0.1 1.5 -0.2
v 0.1 1.6 0.1
v 0.1 1.6 -0.1
v 0.2 1.2 0.1
v 0.2 1.2 -0.1
v 0.2 1.3 0.1
v 0.2 1.3 -0.1
v 0.2 1.5 0.1
v 0.2 1.5 -0.1
v -0.1 1.3 0.2
v -0.1 1.5 0.2
v 0 1.4 0.2
v 0 1.5 0.2
v 0.1 1.3 0.2
v 0.1 1.4 0.2
v 0.1 1.5 0.2
v -0.2 1.2 0.1
v -0.2 1.3 0.1
v -0.2 1.5 0.1
v -0.1 0 0.1
v -0.1 0.9 0.1
v -0.1 1 0.1
v -0.1 1.1 0.1
v -0.1 1.2 0.1
v -0.1 1.3 0.1
v -0.1 1.5 0.1
v -0.1 1.6 0.1
v 0 1.5 0.1
v 0.1 0 0.1
v 0.1 0.9 0.1
v 0.1 1 0.1
v 0.1 1.1 0.1
v 0.1 1.2 0.1
v 0.1 1.3 0.1
v 0.1 1.4 0.1
v 0.1 1.5 0.1
v 0.1 1.6 0.1
v 0.2 1.2 0.1
v 0.2 1.3 0.1
v 0.2 1.5 0.1
v -0.2 1.2 -0.1
v -0.2 1.3 -0.1
v -0.2 1.5 -0.1
v -0.1 0 -0.1
v -0.1 0.9 -0.1
v -0.1 1 -0.1
v -0.1 1.1 -0.1
v -0.1 1.2 -0.1
v -0.1 1.3 -0.1
v -0.1 1.5 -0.1
v -0.1 1.6 -0.1
v 0.1 0 -0.1
v 0.1 0.9 -0.1
v 0.1 1 -0.1
v 0.1 1.1 -0.1
v 0.1 1.2 -0.1
v 0.1 1.3 -0.1
v 0.1 1.5 -0.1
v 0.1 1.6 -0.1
v 0.2 1.2 -0.1
v 0.2 1.3 -0.1
v 0.2 1.5 -0.1
v -0.1 1.3 -0.2
v -0.1 1.5 -0.2
v 0.1 1.3 -0.2
v 0.1 1.5 -0.2
v -0.1 0 0.1
v 0.1 0 0.1
v -0.1 0 -0.1
v 0.1 0 -0.1
v -0.2 1.2 0.1
v -0.1 1.2 0.1
v 0.1 1.2 0.1
v 0.2 1.2 0.1
v -0.2 1.2 -0.1
v -0.1 1.2 -0.1
v 0.1 1.2 -0.1
v 0.2 1.2 -0.1
v -0.1 1.3 0.2
v 0.1 1.3 0.2
v -0.1 1.3 0.1
v 0.1 1.3 0.1
v -0.1 1.3 -0.1
v 0.1 1.3 -0.1
v -0.1 1.3 -0.2
v 0.1 1.3 -0.2
v -0.1 1.5 0.2
v 0 1.5 0.2
v 0.1 1.5 0.2
v -0.2 1.5 0.1
v -0.1 1.5 0.1
v 0 1.5 0.1
v 0.1 1.5 0.1
v 0.2 1.5 0.1
v -0.2 1.5 -0.1
v -0.1 1.5 -0.1
v 0.1 1.5 -0.1
v 0.2 1.5 -0.1
v -0.1 1.5 -0.2
v 0.1 1.5 -0.2
v -0.1 1.6 0.1
v 0.1 1.6 0.1
v -0.1 1.6 -0.1
v 0.1 1.6 -0.1

# faces
f 3/3/1 2/3/1 1/3/1
f 4/3/1 2/3/1 3/3/1
f 5/2/1 4/2/1 3/2/1
f 6/2/1 4/2/1 5/2/1
f 9/1/1 8/1/1 7/1/1
f 10/1/1 8/1/1 9/1/1
f 11/3/1 10/3/1 9/3/1
f 12/3/1 10/3/1 11/3/1
f 13/1/1 12/1/1 11/1/1
f 14/1/1 12/1/1 13/1/1
f 15/3/1 14/3/1 13/3/1
f 16/3/1 14/3/1 15/3/1
f 21/2/1 18/2/1 17/2/1
f 22/2/1 18/2/1 21/2/1
f 23/2/1 20/2/1 19/2/1
f 24/2/1 20/2/1 23/2/1
f 25/2/1 23/2/1 22/2/1
f 26/2/1 23/2/1 25/2/1
f 27/1/2 28/1/2 29/1/2
f 29/1/2 28/1/2 30/1/2
f 29/3/2 30/3/2 31/3/2
f 31/3/2 30/3/2 32/3/2
f 31/1/2 32/1/2 33/1/2
f 33/1/2 32/1/2 34/1/2
f 33/3/2 34/3/2 35/3/2
f 35/3/2 34/3/2 36/3/2
f 37/2/2 38/2/2 41/2/2
f 41/2/2 38/2/2 42/2/2
f 41/3/2 42/3/2 43/3/2
f 43/3/2 42/3/2 44/3/2
f 39/2/2 40/2/2 45/2/2
f 45/2/2 40/2/2 46/2/2
f 44/2/2 45/2/2 47/2/2
f 47/2/2 45/2/2 48/2/2
f 49/3/2 50/3/2 51/3/2
f 51/3/2 50/3/2 52/3/2
f 51/2/2 52/2/2 53/2/2
f 53/2/2 52/2/2 54/2/2
f 57/2/3 56/2/3 55/2/3
f 58/2/3 56/2/3 57/2/3
f 59/2/3 57/2/3 55/2/3
f 60/3/3 58/3/3 57/3/3
f 60/2/3 57/2/3 59/2/3
f 61/3/3 58/3/3 60/3/3
f 69/3/3 63/3/3 62/3/3
f 70/2/3 64/2/3 63/2/3
f 70/3/3 63/3/3 69/3/3
f 71/2/3 64/2/3 70/2/3
f 73/2/3 72/2/3 71/2/3
f 74/1/3 66/1/3 65/1/3
f 75/3/3 67/3/3 66/3/3
f 75/1/3 66/1/3 74/1/3
f 76/1/3 68/1/3 67/1/3
f 76/3/3 67/3/3 75/3/3
f 77/3/3 69/3/3 68/3/3
f 77/1/3 68/1/3 76/1/3
f 78/2/3 70/2/3 69/2/3
f 78/3/3 69/3/3 77/3/3
f 79/2/3 70/2/3 78/2/3
f 81/2/3 72/2/3 73/2/3
f 82/2/3 72/2/3 81/2/3
f 83/3/3 79/3/3 78/3/3
f 84/2/3 81/2/3 80/2/3
f 84/3/3 79/3/3 83/3/3
f 84/2/3 80/2/3 79/2/3
f 85/2/3 81/2/3 84/2/3
f 86/3/4 87/3/4 93/3/4
f 87/2/4 88/2/4 94/2/4
f 93/3/4 87/3/4 94/3/4
f 94/2/4 88/2/4 95/2/4
f 89/1/4 90/1/4 97/1/4
f 90/3/4 91/3/4 98/3/4
f 97/1/4 90/1/4 98/1/4
f 91/1/4 92/1/4 99/1/4
f 98/3/4 91/3/4 99/3/4
f 92/3/4 93/3/4 100/3/4
f 99/1/4 92/1/4 100/1/4
f 93/2/4 94/2/4 101/2/4
f 100/3/4 93/3/4 101/3/4
f 101/2/4 94/2/4 102/2/4
f 95/2/4 96/2/4 103/2/4
f 103/2/4 96/2/4 104/2/4
f 101/3/4 102/3/4 105/3/4
f 102/2/4 103/2/4 106/2/4
f 105/3/4 102/3/4 106/3/4
f 106/2/4 103/2/4 107/2/4
f 108/2/4 109/2/4 110/2/4
f 110/2/4 109/2/4 111/2/4
f 114/1/5 113/1/5 112/1/5
f 115/1/5 113/1/5 114/1/5
f 120/3/5 117/3/5 116/3/5
f 121/3/5 117/3/5 120/3/5
f 122/3/5 119/3/5 118/3/5
f 123/3/5 119/3/5 122/3/5
f 126/2/5 125/2/5 124/2/5
f 127/2/5 125/2/5 126/2/5
f 130/2/5 129/2/5 128/2/5
f 131/2/5 129/2/5 130/2/5
f 132/2/6 133/2/6 136/2/6
f 133/3/6 134/3/6 137/3/6
f 136/2/6 133/2/6 137/2/6
f 137/3/6 134/3/6 138/3/6
f 135/2/6 136/2/6 140/2/6
f 140/2/6 136/2/6 141/2/6
f 138/2/6 139/2/6 142/2/6
f 142/2/6 139/2/6 143/2/6
f 141/2/6 142/2/6 144/2/6
f 144/2/6 142/2/6 145/2/6
f 146/2/6 147/2/6 148/2/6
f 148/2/6 147/2/6 149/2/6
