# MagicaVoxel @ Ephtracy

# group
o 

# material
mtllib MarioSmallWalk3.mtl
usemtl palette

# normals
vn -1 0 0
vn 1 0 0
vn 0 0 1
vn 0 0 -1
vn 0 -1 0
vn 0 1 0

# texcoords
vt 0.908203 0.5
vt 0.974609 0.5
vt 0.978516 0.5

# verts
v -0.6 0 0.2
v -0.6 0 0
v -0.6 0.2 0.2
v -0.6 0.2 0
v -0.6 0.3 0.2
v -0.6 0.3 0
v -0.6 0.4 0.2
v -0.6 0.4 0
v -0.5 0.2 0.2
v -0.5 0.2 0
v -0.5 0.3 0.2
v -0.5 0.3 0
v -0.5 0.4 0.2
v -0.5 0.4 0
v -0.5 0.5 0.2
v -0.5 0.5 0
v -0.5 0.7 0.2
v -0.5 0.7 -0.2
v -0.5 0.8 0.2
v -0.5 0.8 0.1
v -0.5 0.8 -0.1
v -0.5 0.8 -0.2
v -0.5 0.9 0.1
v -0.5 0.9 -0.1
v -0.4 0.5 0.2
v -0.4 0.5 0
v -0.4 0.6 0.2
v -0.4 0.6 0
v -0.4 0.8 0.2
v -0.4 0.8 0.1
v -0.4 0.8 -0.1
v -0.4 0.8 -0.2
v -0.4 0.9 0.2
v -0.4 0.9 0.1
v -0.4 0.9 -0.1
v -0.4 0.9 -0.2
v -0.4 1 0.1
v -0.4 1 -0.1
v -0.3 0.3 0
v -0.3 0.3 -0.1
v -0.3 0.4 0
v -0.3 0.4 -0.1
v -0.3 0.5 0
v -0.3 0.5 -0.1
v -0.3 0.6 0.1
v -0.3 0.6 0
v -0.3 0.6 -0.1
v -0.3 0.7 0.1
v -0.3 0.7 -0.1
v -0.3 0.9 0.2
v -0.3 0.9 0.1
v -0.3 0.9 -0.1
v -0.3 0.9 -0.2
v -0.3 1 0.1
v -0.3 1 -0.1
v -0.3 1.1 0.2
v -0.3 1.1 -0.2
v -0.2 0.5 0
v -0.2 0.5 -0.1
v -0.2 0.6 0.2
v -0.2 0.6 0.1
v -0.2 0.6 0
v -0.2 0.6 -0.1
v -0.2 0.6 -0.2
v -0.2 0.7 0.2
v -0.2 0.7 0.1
v -0.2 0.7 -0.1
v -0.2 0.7 -0.2
v -0.2 1 0.3
v -0.2 1 0.2
v -0.2 1 -0.2
v -0.2 1 -0.3
v -0.2 1.1 0.3
v -0.2 1.1 0.2
v -0.2 1.1 0.1
v -0.2 1.1 -0.1
v -0.2 1.1 -0.2
v -0.2 1.1 -0.3
v -0.2 1.2 0.1
v -0.2 1.2 -0.1
v -0.1 0 0
v -0.1 0 -0.2
v -0.1 0.2 0
v -0.1 0.2 -0.2
v -0.1 0.3 0
v -0.1 0.3 -0.1
v -0.1 0.3 -0.2
v 0 0.3 -0.1
v 0 0.3 -0.2
v 0 0.4 -0.1
v 0 0.4 -0.2
v 0.1 0.4 -0.1
v 0.1 0.4 -0.2
v 0.1 0.5 -0.1
v 0.1 0.6 -0.1
v 0.1 0.6 -0.2
v -0.5 0 0.2
v -0.5 0 0
v -0.5 0.1 0.2
v -0.5 0.1 0
v -0.3 0.3 0.2
v -0.3 0.3 0.1
v -0.3 0.4 0.2
v -0.3 0.4 0.1
v -0.2 0.1 0.2
v -0.2 0.1 0
v -0.2 0.2 0.2
v -0.2 0.2 0
v -0.2 0.4 0.2
v -0.2 0.4 0.1
v -0.2 0.6 0.2
v -0.2 0.6 0.1
v -0.1 0.2 0.2
v -0.1 0.2 0.1
v -0.1 0.3 0.2
v -0.1 0.3 0.1
v 0.1 0.1 0
v 0.1 0.1 -0.2
v 0.1 0.2 0.1
v 0.1 0.2 0
v 0.1 0.2 -0.2
v 0.1 0.3 0.1
v 0.1 0.3 0
v 0.1 0.4 0.1
v 0.1 0.4 0
v 0.1 0.5 0.1
v 0.1 0.5 0
v 0.1 0.6 0.1
v 0.1 0.6 0
v 0.1 1 0.3
v 0.1 1 0.2
v 0.1 1 -0.2
v 0.1 1 -0.3
v 0.1 1.1 0.3
v 0.1 1.1 0.2
v 0.1 1.1 0.1
v 0.1 1.1 -0.1
v 0.1 1.1 -0.2
v 0.1 1.1 -0.3
v 0.1 1.2 0.1
v 0.1 1.2 -0.1
v 0.2 0 0
v 0.2 0 -0.2
v 0.2 0.1 0
v 0.2 0.1 -0.2
v 0.2 0.2 0
v 0.2 0.2 -0.2
v 0.2 0.3 0.1
v 0.2 0.3 0
v 0.2 0.3 -0.2
v 0.2 0.4 0.1
v 0.2 0.4 0
v 0.2 0.6 0.2
v 0.2 0.6 0.1
v 0.2 0.6 -0.1
v 0.2 0.6 -0.2
v 0.2 0.7 0.2
v 0.2 0.7 0.1
v 0.2 0.7 -0.1
v 0.2 0.7 -0.2
v 0.2 0.9 0.2
v 0.2 0.9 0.1
v 0.2 0.9 -0.1
v 0.2 0.9 -0.2
v 0.2 1 0.2
v 0.2 1 0.1
v 0.2 1 -0.1
v 0.2 1 -0.2
v 0.3 0.3 0
v 0.3 0.3 -0.2
v 0.3 0.4 0
v 0.3 0.4 -0.2
v 0.3 0.6 0.1
v 0.3 0.6 0
v 0.3 0.6 -0.1
v 0.3 0.7 0.2
v 0.3 0.7 0.1
v 0.3 0.7 -0.1
v 0.3 0.7 -0.2
v 0.3 0.8 0.2
v 0.3 0.8 0.1
v 0.3 0.8 -0.1
v 0.3 0.8 -0.2
v 0.3 0.9 0.2
v 0.3 0.9 0.1
v 0.3 0.9 -0.1
v 0.3 0.9 -0.2
v 0.3 1 0.2
v 0.3 1 0.1
v 0.3 1 -0.1
v 0.3 1 -0.2
v 0.3 1.1 0.2
v 0.3 1.1 0.1
v 0.3 1.1 -0.1
v 0.3 1.1 -0.2
v 0.4 0.7 0.1
v 0.4 0.7 -0.1
v 0.4 0.9 0.1
v 0.4 0.9 -0.1
v 0.4 1 0.1
v 0.4 1 -0.1
v 0.4 1.1 0.1
v 0.4 1.1 -0.1
v 0.5 0.4 0
v 0.5 0.4 -0.2
v 0.5 0.6 0
v 0.5 0.6 -0.2
v -0.2 1 0.3
v -0.2 1.1 0.3
v 0.1 1 0.3
v 0.1 1.1 0.3
v -0.6 0 0.2
v -0.6 0.2 0.2
v -0.6 0.3 0.2
v -0.6 0.4 0.2
v -0.5 0 0.2
v -0.5 0.1 0.2
v -0.5 0.2 0.2
v -0.5 0.3 0.2
v -0.5 0.4 0.2
v -0.5 0.5 0.2
v -0.5 0.7 0.2
v -0.5 0.8 0.2
v -0.4 0.1 0.2
v -0.4 0.3 0.2
v -0.4 0.4 0.2
v -0.4 0.5 0.2
v -0.4 0.6 0.2
v -0.4 0.8 0.2
v -0.4 0.9 0.2
v -0.3 0.3 0.2
v -0.3 0.4 0.2
v -0.3 0.7 0.2
v -0.3 0.9 0.2
v -0.3 1.1 0.2
v -0.2 0.1 0.2
v -0.2 0.2 0.2
v -0.2 0.4 0.2
v -0.2 0.6 0.2
v -0.2 0.7 0.2
v -0.2 0.8 0.2
v -0.2 0.9 0.2
v -0.2 1 0.2
v -0.2 1.1 0.2
v -0.1 0.2 0.2
v -0.1 0.3 0.2
v -0.1 0.9 0.2
v -0.1 1 0.2
v 0 0.8 0.2
v 0 0.9 0.2
v 0.1 0.7 0.2
v 0.1 0.8 0.2
v 0.1 0.9 0.2
v 0.1 1 0.2
v 0.1 1.1 0.2
v 0.2 0.6 0.2
v 0.2 0.7 0.2
v 0.2 0.9 0.2
v 0.2 1 0.2
v 0.3 0.7 0.2
v 0.3 0.8 0.2
v 0.3 0.9 0.2
v 0.3 1 0.2
v 0.3 1.1 0.2
v -0.5 0.8 0.1
v -0.5 0.9 0.1
v -0.4 0.8 0.1
v -0.4 0.9 0.1
v -0.4 1 0.1
v -0.3 0.3 0.1
v -0.3 0.4 0.1
v -0.3 0.6 0.1
v -0.3 0.7 0.1
v -0.3 0.9 0.1
v -0.3 1 0.1
v -0.2 0.4 0.1
v -0.2 0.6 0.1
v -0.2 0.7 0.1
v -0.2 1.1 0.1
v -0.2 1.2 0.1
v -0.1 0.2 0.1
v -0.1 0.3 0.1
v 0 0.5 0.1
v 0 0.6 0.1
v 0.1 0.2 0.1
v 0.1 0.3 0.1
v 0.1 0.4 0.1
v 0.1 0.5 0.1
v 0.1 0.6 0.1
v 0.1 1.1 0.1
v 0.1 1.2 0.1
v 0.2 0.3 0.1
v 0.2 0.4 0.1
v 0.2 0.6 0.1
v 0.2 0.7 0.1
v 0.2 0.9 0.1
v 0.2 1 0.1
v 0.3 0.6 0.1
v 0.3 0.7 0.1
v 0.3 0.8 0.1
v 0.3 0.9 0.1
v 0.3 1 0.1
v 0.3 1.1 0.1
v 0.4 0.7 0.1
v 0.4 0.9 0.1
v 0.4 1 0.1
v 0.4 1.1 0.1
v -0.1 0 0
v -0.1 0.2 0
v 0.1 0.1 0
v 0.1 0.2 0
v 0.1 0.3 0
v 0.1 0.4 0
v 0.1 0.5 0
v 0.1 0.6 0
v 0.2 0 0
v 0.2 0.1 0
v 0.2 0.2 0
v 0.2 0.3 0
v 0.2 0.4 0
v 0.2 0.6 0
v 0.3 0.3 0
v 0.3 0.4 0
v 0.3 0.6 0
v 0.5 0.4 0
v 0.5 0.6 0
v -0.6 0 0
v -0.6 0.2 0
v -0.6 0.3 0
v -0.6 0.4 0
v -0.5 0 0
v -0.5 0.1 0
v -0.5 0.2 0
v -0.5 0.3 0
v -0.5 0.4 0
v -0.5 0.5 0
v -0.4 0.1 0
v -0.4 0.3 0
v -0.4 0.4 0
v -0.4 0.5 0
v -0.4 0.6 0
v -0.3 0.3 0
v -0.3 0.4 0
v -0.3 0.5 0
v -0.3 0.6 0
v -0.2 0.1 0
v -0.2 0.2 0
v -0.2 0.5 0
v -0.2 0.6 0
v -0.1 0.2 0
v -0.1 0.3 0
v -0.5 0.8 -0.1
v -0.5 0.9 -0.1
v -0.4 0.8 -0.1
v -0.4 0.9 -0.1
v -0.4 1 -0.1
v -0.3 0.3 -0.1
v -0.3 0.4 -0.1
v -0.3 0.5 -0.1
v -0.3 0.6 -0.1
v -0.3 0.7 -0.1
v -0.3 0.9 -0.1
v -0.3 1 -0.1
v -0.2 0.5 -0.1
v -0.2 0.6 -0.1
v -0.2 0.7 -0.1
v -0.2 1.1 -0.1
v -0.2 1.2 -0.1
v -0.1 0.3 -0.1
v 0 0.3 -0.1
v 0 0.4 -0.1
v 0 0.5 -0.1
v 0 0.6 -0.1
v 0.1 0.4 -0.1
v 0.1 0.5 -0.1
v 0.1 0.6 -0.1
v 0.1 1.1 -0.1
v 0.1 1.2 -0.1
v 0.2 0.6 -0.1
v 0.2 0.7 -0.1
v 0.2 0.9 -0.1
v 0.2 1 -0.1
v 0.3 0.6 -0.1
v 0.3 0.7 -0.1
v 0.3 0.8 -0.1
v 0.3 0.9 -0.1
v 0.3 1 -0.1
v 0.3 1.1 -0.1
v 0.4 0.7 -0.1
v 0.4 0.9 -0.1
v 0.4 1 -0.1
v 0.4 1.1 -0.1
v -0.5 0.7 -0.2
v -0.5 0.8 -0.2
v -0.4 0.8 -0.2
v -0.4 0.9 -0.2
v -0.3 0.7 -0.2
v -0.3 0.9 -0.2
v -0.3 1.1 -0.2
v -0.2 0.6 -0.2
v -0.2 0.7 -0.2
v -0.2 0.8 -0.2
v -0.2 0.9 -0.2
v -0.2 1 -0.2
v -0.2 1.1 -0.2
v -0.1 0 -0.2
v -0.1 0.2 -0.2
v -0.1 0.3 -0.2
v -0.1 0.9 -0.2
v -0.1 1 -0.2
v 0 0.3 -0.2
v 0 0.4 -0.2
v 0 0.8 -0.2
v 0 0.9 -0.2
v 0.1 0.1 -0.2
v 0.1 0.2 -0.2
v 0.1 0.4 -0.2
v 0.1 0.6 -0.2
v 0.1 0.7 -0.2
v 0.1 0.8 -0.2
v 0.1 0.9 -0.2
v 0.1 1 -0.2
v 0.1 1.1 -0.2
v 0.2 0 -0.2
v 0.2 0.1 -0.2
v 0.2 0.2 -0.2
v 0.2 0.3 -0.2
v 0.2 0.4 -0.2
v 0.2 0.6 -0.2
v 0.2 0.7 -0.2
v 0.2 0.9 -0.2
v 0.2 1 -0.2
v 0.3 0.3 -0.2
v 0.3 0.4 -0.2
v 0.3 0.7 -0.2
v 0.3 0.8 -0.2
v 0.3 0.9 -0.2
v 0.3 1 -0.2
v 0.3 1.1 -0.2
v 0.5 0.4 -0.2
v 0.5 0.6 -0.2
v -0.2 1 -0.3
v -0.2 1.1 -0.3
v 0.1 1 -0.3
v 0.1 1.1 -0.3
v -0.6 0 0.2
v -0.5 0 0.2
v -0.6 0 0
v -0.5 0 0
v -0.1 0 0
v 0.2 0 0
v -0.1 0 -0.2
v 0.2 0 -0.2
v -0.5 0.1 0.2
v -0.4 0.1 0.2
v -0.2 0.1 0.2
v -0.5 0.1 0
v -0.4 0.1 0
v -0.2 0.1 0
v -0.2 0.2 0.2
v -0.1 0.2 0.2
v -0.1 0.2 0.1
v 0.1 0.2 0.1
v -0.2 0.2 0
v -0.1 0.2 0
v 0.1 0.2 0
v 0.2 0.2 0
v 0.1 0.2 -0.2
v 0.2 0.2 -0.2
v -0.6 0.3 0.2
v -0.5 0.3 0.2
v 0.1 0.3 0.1
v 0.2 0.3 0.1
v -0.6 0.3 0
v -0.5 0.3 0
v -0.3 0.3 0
v -0.1 0.3 0
v 0.1 0.3 0
v 0.2 0.3 0
v 0.3 0.3 0
v -0.3 0.3 -0.1
v -0.1 0.3 -0.1
v 0.2 0.3 -0.2
v 0.3 0.3 -0.2
v -0.3 0.4 0.2
v -0.2 0.4 0.2
v -0.3 0.4 0.1
v -0.2 0.4 0.1
v 0.3 0.4 0
v 0.5 0.4 0
v 0.3 0.4 -0.2
v 0.5 0.4 -0.2
v -0.2 0.6 0.2
v 0.2 0.6 0.2
v -0.2 0.6 0.1
v 0 0.6 0.1
v 0.1 0.6 0.1
v 0.2 0.6 0.1
v 0.3 0.6 0.1
v -0.3 0.6 0
v -0.2 0.6 0
v 0.1 0.6 0
v 0.2 0.6 0
v 0.3 0.6 0
v -0.3 0.6 -0.1
v -0.2 0.6 -0.1
v 0 0.6 -0.1
v 0.1 0.6 -0.1
v -0.2 0.6 -0.2
v 0.1 0.6 -0.2
v -0.5 0.7 0.2
v -0.3 0.7 0.2
v -0.2 0.7 0.2
v 0.2 0.7 0.2
v 0.3 0.7 0.2
v -0.3 0.7 0.1
v -0.2 0.7 0.1
v 0.2 0.7 0.1
v 0.3 0.7 0.1
v 0.4 0.7 0.1
v -0.3 0.7 -0.1
v -0.2 0.7 -0.1
v 0.2 0.7 -0.1
v 0.3 0.7 -0.1
v 0.4 0.7 -0.1
v -0.5 0.7 -0.2
v -0.3 0.7 -0.2
v -0.2 0.7 -0.2
v 0.2 0.7 -0.2
v 0.3 0.7 -0.2
v -0.2 1 0.3
v 0.1 1 0.3
v -0.2 1 0.2
v -0.1 1 0.2
v 0.1 1 0.2
v 0.2 1 0.2
v 0.3 1 0.2
v 0.2 1 0.1
v 0.3 1 0.1
v 0.4 1 0.1
v 0.2 1 -0.1
v 0.3 1 -0.1
v 0.4 1 -0.1
v -0.2 1 -0.2
v -0.1 1 -0.2
v 0.1 1 -0.2
v 0.2 1 -0.2
v 0.3 1 -0.2
v -0.2 1 -0.3
v 0.1 1 -0.3
v 0.1 0.1 0
v 0.2 0.1 0
v 0.1 0.1 -0.2
v 0.2 0.1 -0.2
v -0.6 0.2 0.2
v -0.5 0.2 0.2
v -0.6 0.2 0
v -0.5 0.2 0
v -0.3 0.3 0.2
v -0.1 0.3 0.2
v -0.3 0.3 0.1
v -0.1 0.3 0.1
v -0.1 0.3 -0.1
v 0 0.3 -0.1
v -0.1 0.3 -0.2
v 0 0.3 -0.2
v -0.6 0.4 0.2
v -0.5 0.4 0.2
v 0.1 0.4 0.1
v 0.2 0.4 0.1
v -0.6 0.4 0
v -0.5 0.4 0
v 0.1 0.4 0
v 0.2 0.4 0
v 0 0.4 -0.1
v 0.1 0.4 -0.1
v 0 0.4 -0.2
v 0.1 0.4 -0.2
v -0.5 0.5 0.2
v -0.4 0.5 0.2
v -0.5 0.5 0
v -0.4 0.5 0
v -0.3 0.5 0
v -0.2 0.5 0
v -0.3 0.5 -0.1
v -0.2 0.5 -0.1
v -0.4 0.6 0.2
v -0.2 0.6 0.2
v -0.3 0.6 0.1
v -0.2 0.6 0.1
v -0.4 0.6 0
v -0.3 0.6 0
v 0.3 0.6 0
v 0.5 0.6 0
v 0.2 0.6 -0.1
v 0.3 0.6 -0.1
v 0.2 0.6 -0.2
v 0.5 0.6 -0.2
v -0.5 0.8 0.2
v -0.4 0.8 0.2
v -0.5 0.8 0.1
v -0.4 0.8 0.1
v -0.5 0.8 -0.1
v -0.4 0.8 -0.1
v -0.5 0.8 -0.2
v -0.4 0.8 -0.2
v -0.4 0.9 0.2
v -0.3 0.9 0.2
v 0.2 0.9 0.2
v 0.3 0.9 0.2
v -0.5 0.9 0.1
v -0.4 0.9 0.1
v -0.3 0.9 0.1
v 0.2 0.9 0.1
v 0.3 0.9 0.1
v 0.4 0.9 0.1
v -0.5 0.9 -0.1
v -0.4 0.9 -0.1
v -0.3 0.9 -0.1
v 0.2 0.9 -0.1
v 0.3 0.9 -0.1
v 0.4 0.9 -0.1
v -0.4 0.9 -0.2
v -0.3 0.9 -0.2
v 0.2 0.9 -0.2
v 0.3 0.9 -0.2
v -0.4 1 0.1
v -0.3 1 0.1
v -0.4 1 -0.1
v -0.3 1 -0.1
v -0.2 1.1 0.3
v 0.1 1.1 0.3
v -0.3 1.1 0.2
v -0.2 1.1 0.2
v 0.1 1.1 0.2
v 0.3 1.1 0.2
v -0.2 1.1 0.1
v 0.1 1.1 0.1
v 0.3 1.1 0.1
v 0.4 1.1 0.1
v -0.2 1.1 -0.1
v 0.1 1.1 -0.1
v 0.3 1.1 -0.1
v 0.4 1.1 -0.1
v -0.3 1.1 -0.2
v -0.2 1.1 -0.2
v 0.1 1.1 -0.2
v 0.3 1.1 -0.2
v -0.2 1.1 -0.3
v 0.1 1.1 -0.3
v -0.2 1.2 0.1
v 0.1 1.2 0.1
v -0.2 1.2 -0.1
v 0.1 1.2 -0.1

# faces
f 3/1/1 2/1/1 1/1/1
f 4/1/1 2/1/1 3/1/1
f 7/3/1 6/3/1 5/3/1
f 8/3/1 6/3/1 7/3/1
f 11/1/1 10/1/1 9/1/1
f 12/1/1 10/1/1 11/1/1
f 15/3/1 14/3/1 13/3/1
f 16/3/1 14/3/1 15/3/1
f 19/1/1 18/1/1 17/1/1
f 20/1/1 18/1/1 19/1/1
f 21/1/1 18/1/1 20/1/1
f 22/1/1 18/1/1 21/1/1
f 23/1/1 21/1/1 20/1/1
f 24/1/1 21/1/1 23/1/1
f 27/1/1 26/1/1 25/1/1
f 28/1/1 26/1/1 27/1/1
f 33/1/1 30/1/1 29/1/1
f 34/1/1 30/1/1 33/1/1
f 35/1/1 32/1/1 31/1/1
f 36/1/1 32/1/1 35/1/1
f 37/1/1 35/1/1 34/1/1
f 38/1/1 35/1/1 37/1/1
f 41/2/1 40/2/1 39/2/1
f 42/2/1 40/2/1 41/2/1
f 43/1/1 42/1/1 41/1/1
f 44/1/1 42/1/1 43/1/1
f 48/3/1 46/3/1 45/3/1
f 48/3/1 47/3/1 46/3/1
f 49/3/1 47/3/1 48/3/1
f 54/1/1 51/1/1 50/1/1
f 55/1/1 53/1/1 52/1/1
f 56/1/1 54/1/1 50/1/1
f 56/1/1 55/1/1 54/1/1
f 57/1/1 53/1/1 55/1/1
f 57/1/1 55/1/1 56/1/1
f 62/1/1 59/1/1 58/1/1
f 63/1/1 59/1/1 62/1/1
f 65/3/1 61/3/1 60/3/1
f 66/3/1 61/3/1 65/3/1
f 67/3/1 64/3/1 63/3/1
f 68/3/1 64/3/1 67/3/1
f 73/1/1 70/1/1 69/1/1
f 74/1/1 70/1/1 73/1/1
f 77/1/1 72/1/1 71/1/1
f 78/1/1 72/1/1 77/1/1
f 79/1/1 76/1/1 75/1/1
f 80/1/1 76/1/1 79/1/1
f 83/1/1 82/1/1 81/1/1
f 84/1/1 82/1/1 83/1/1
f 85/2/1 84/2/1 83/2/1
f 86/2/1 84/2/1 85/2/1
f 87/2/1 84/2/1 86/2/1
f 90/2/1 89/2/1 88/2/1
f 91/2/1 89/2/1 90/2/1
f 94/1/1 93/1/1 92/1/1
f 95/1/1 93/1/1 94/1/1
f 96/1/1 93/1/1 95/1/1
f 97/1/2 98/1/2 99/1/2
f 99/1/2 98/1/2 100/1/2
f 101/2/2 102/2/2 103/2/2
f 103/2/2 102/2/2 104/2/2
f 105/2/2 106/2/2 107/2/2
f 107/2/2 106/2/2 108/2/2
f 109/1/2 110/1/2 111/1/2
f 111/1/2 110/1/2 112/1/2
f 113/2/2 114/2/2 115/2/2
f 115/2/2 114/2/2 116/2/2
f 117/1/2 118/1/2 120/1/2
f 120/1/2 118/1/2 121/1/2
f 119/2/2 120/2/2 122/2/2
f 122/2/2 120/2/2 123/2/2
f 124/1/2 125/1/2 126/1/2
f 126/1/2 125/1/2 127/1/2
f 126/2/2 127/2/2 128/2/2
f 128/2/2 127/2/2 129/2/2
f 130/1/2 131/1/2 134/1/2
f 134/1/2 131/1/2 135/1/2
f 132/1/2 133/1/2 138/1/2
f 138/1/2 133/1/2 139/1/2
f 136/1/2 137/1/2 140/1/2
f 140/1/2 137/1/2 141/1/2
f 142/1/2 143/1/2 144/1/2
f 144/1/2 143/1/2 145/1/2
f 146/2/2 147/2/2 149/2/2
f 149/2/2 147/2/2 150/2/2
f 148/2/2 149/2/2 151/2/2
f 151/2/2 149/2/2 152/2/2
f 153/3/2 154/3/2 157/3/2
f 157/3/2 154/3/2 158/3/2
f 155/3/2 156/3/2 159/3/2
f 159/3/2 156/3/2 160/3/2
f 161/1/2 162/1/2 165/1/2
f 165/1/2 162/1/2 166/1/2
f 163/1/2 164/1/2 167/1/2
f 167/1/2 164/1/2 168/1/2
f 169/2/2 170/2/2 171/2/2
f 171/2/2 170/2/2 172/2/2
f 173/3/2 174/3/2 177/3/2
f 174/3/2 175/3/2 177/3/2
f 177/3/2 175/3/2 178/3/2
f 176/1/2 177/1/2 180/1/2
f 180/1/2 177/1/2 181/1/2
f 178/1/2 179/1/2 182/1/2
f 182/1/2 179/1/2 183/1/2
f 180/3/2 181/3/2 184/3/2
f 184/3/2 181/3/2 185/3/2
f 182/3/2 183/3/2 186/3/2
f 186/3/2 183/3/2 187/3/2
f 185/3/2 186/3/2 189/3/2
f 189/3/2 186/3/2 190/3/2
f 188/1/2 189/1/2 192/1/2
f 192/1/2 189/1/2 193/1/2
f 190/1/2 191/1/2 194/1/2
f 194/1/2 191/1/2 195/1/2
f 196/3/2 197/3/2 198/3/2
f 198/3/2 197/3/2 199/3/2
f 200/1/2 201/1/2 202/1/2
f 202/1/2 201/1/2 203/1/2
f 204/3/2 205/3/2 206/3/2
f 206/3/2 205/3/2 207/3/2
f 210/1/3 209/1/3 208/1/3
f 211/1/3 209/1/3 210/1/3
f 216/1/3 213/1/3 212/1/3
f 217/1/3 213/1/3 216/1/3
f 218/1/3 213/1/3 217/1/3
f 219/3/3 215/3/3 214/3/3
f 220/3/3 215/3/3 219/3/3
f 224/1/3 218/1/3 217/1/3
f 224/1/3 219/1/3 218/1/3
f 225/3/3 221/3/3 220/3/3
f 225/1/3 219/1/3 224/1/3
f 225/3/3 220/3/3 219/3/3
f 226/3/3 221/3/3 225/3/3
f 227/3/3 221/3/3 226/3/3
f 229/1/3 223/1/3 222/1/3
f 231/2/3 225/2/3 224/2/3
f 231/2/3 226/2/3 225/2/3
f 232/1/3 228/1/3 227/1/3
f 232/2/3 226/2/3 231/2/3
f 232/1/3 227/1/3 226/1/3
f 233/1/3 230/1/3 229/1/3
f 233/1/3 229/1/3 222/1/3
f 234/1/3 230/1/3 233/1/3
f 236/2/3 231/2/3 224/2/3
f 237/2/3 231/2/3 236/2/3
f 238/1/3 228/1/3 232/1/3
f 239/1/3 228/1/3 238/1/3
f 240/3/3 234/3/3 233/3/3
f 241/3/3 234/3/3 240/3/3
f 242/1/3 235/1/3 234/1/3
f 242/3/3 234/3/3 241/3/3
f 243/1/3 235/1/3 242/1/3
f 244/1/3 235/1/3 243/1/3
f 245/2/3 231/2/3 237/2/3
f 246/2/3 231/2/3 245/2/3
f 247/1/3 243/1/3 242/1/3
f 247/1/3 242/1/3 241/1/3
f 248/1/3 243/1/3 247/1/3
f 249/3/3 241/3/3 240/3/3
f 249/3/3 240/3/3 239/3/3
f 249/1/3 247/1/3 241/1/3
f 250/3/3 248/3/3 247/3/3
f 250/1/3 247/1/3 249/1/3
f 251/3/3 249/3/3 239/3/3
f 251/3/3 250/3/3 249/3/3
f 252/3/3 250/3/3 251/3/3
f 253/3/3 248/3/3 250/3/3
f 253/3/3 250/3/3 252/3/3
f 254/3/3 248/3/3 253/3/3
f 256/3/3 251/3/3 239/3/3
f 257/1/3 252/1/3 251/1/3
f 257/3/3 251/3/3 256/3/3
f 258/1/3 254/1/3 253/1/3
f 258/1/3 255/1/3 254/1/3
f 258/3/3 253/3/3 252/3/3
f 259/1/3 255/1/3 258/1/3
f 260/1/3 252/1/3 257/1/3
f 261/3/3 258/3/3 252/3/3
f 261/1/3 252/1/3 260/1/3
f 262/3/3 258/3/3 261/3/3
f 263/1/3 255/1/3 259/1/3
f 264/1/3 255/1/3 263/1/3
f 267/1/3 266/1/3 265/1/3
f 268/1/3 266/1/3 267/1/3
f 274/1/3 269/1/3 268/1/3
f 275/1/3 269/1/3 274/1/3
f 276/2/3 271/2/3 270/2/3
f 277/3/3 273/3/3 272/3/3
f 278/3/3 273/3/3 277/3/3
f 282/2/3 276/2/3 270/2/3
f 283/1/3 277/1/3 276/1/3
f 284/1/3 277/1/3 283/1/3
f 285/2/3 282/2/3 281/2/3
f 286/2/3 276/2/3 282/2/3
f 286/2/3 282/2/3 285/2/3
f 287/1/3 283/1/3 276/1/3
f 287/2/3 276/2/3 286/2/3
f 288/2/3 284/2/3 283/2/3
f 288/1/3 283/1/3 287/1/3
f 289/2/3 284/2/3 288/2/3
f 290/1/3 280/1/3 279/1/3
f 291/1/3 280/1/3 290/1/3
f 292/2/3 287/2/3 286/2/3
f 293/2/3 287/2/3 292/2/3
f 298/3/3 295/3/3 294/3/3
f 299/3/3 295/3/3 298/3/3
f 301/3/3 297/3/3 296/3/3
f 302/3/3 297/3/3 301/3/3
f 304/3/3 300/3/3 299/3/3
f 304/3/3 301/3/3 300/3/3
f 305/3/3 301/3/3 304/3/3
f 306/1/3 303/1/3 302/1/3
f 307/1/3 303/1/3 306/1/3
f 310/1/3 309/1/3 308/1/3
f 311/1/3 309/1/3 310/1/3
f 316/1/3 310/1/3 308/1/3
f 317/1/3 310/1/3 316/1/3
f 318/2/3 312/2/3 311/2/3
f 319/2/3 312/2/3 318/2/3
f 320/1/3 315/1/3 314/1/3
f 320/1/3 314/1/3 313/1/3
f 321/1/3 315/1/3 320/1/3
f 322/2/3 320/2/3 319/2/3
f 323/3/3 321/3/3 320/3/3
f 323/2/3 320/2/3 322/2/3
f 324/3/3 321/3/3 323/3/3
f 325/3/3 324/3/3 323/3/3
f 326/3/3 324/3/3 325/3/3
f 327/1/4 328/1/4 331/1/4
f 331/1/4 328/1/4 332/1/4
f 332/1/4 328/1/4 333/1/4
f 329/3/4 330/3/4 334/3/4
f 334/3/4 330/3/4 335/3/4
f 332/1/4 333/1/4 337/1/4
f 333/1/4 334/1/4 337/1/4
f 335/3/4 336/3/4 338/3/4
f 337/1/4 334/1/4 338/1/4
f 334/3/4 335/3/4 338/3/4
f 338/3/4 336/3/4 339/3/4
f 339/3/4 336/3/4 340/3/4
f 337/2/4 338/2/4 342/2/4
f 338/2/4 339/2/4 342/2/4
f 340/1/4 341/1/4 343/1/4
f 342/2/4 339/2/4 343/2/4
f 339/1/4 340/1/4 343/1/4
f 343/1/4 341/1/4 344/1/4
f 344/1/4 341/1/4 345/1/4
f 337/2/4 342/2/4 346/2/4
f 346/2/4 342/2/4 347/2/4
f 344/1/4 345/1/4 348/1/4
f 348/1/4 345/1/4 349/1/4
f 347/2/4 342/2/4 350/2/4
f 350/2/4 342/2/4 351/2/4
f 352/1/4 353/1/4 354/1/4
f 354/1/4 353/1/4 355/1/4
f 355/1/4 356/1/4 362/1/4
f 362/1/4 356/1/4 363/1/4
f 358/1/4 359/1/4 364/1/4
f 360/3/4 361/3/4 365/3/4
f 365/3/4 361/3/4 366/3/4
f 357/2/4 358/2/4 369/2/4
f 369/2/4 358/2/4 370/2/4
f 358/1/4 364/1/4 371/1/4
f 370/2/4 358/2/4 371/2/4
f 364/1/4 365/1/4 371/1/4
f 371/1/4 365/1/4 372/1/4
f 372/1/4 365/1/4 373/1/4
f 371/1/4 372/1/4 374/1/4
f 372/2/4 373/2/4 375/2/4
f 374/1/4 372/1/4 375/1/4
f 375/2/4 373/2/4 376/2/4
f 367/1/4 368/1/4 377/1/4
f 377/1/4 368/1/4 378/1/4
f 379/3/4 380/3/4 383/3/4
f 383/3/4 380/3/4 384/3/4
f 381/3/4 382/3/4 386/3/4
f 386/3/4 382/3/4 387/3/4
f 384/3/4 385/3/4 389/3/4
f 385/3/4 386/3/4 389/3/4
f 389/3/4 386/3/4 390/3/4
f 387/1/4 388/1/4 391/1/4
f 391/1/4 388/1/4 392/1/4
f 393/1/4 394/1/4 395/1/4
f 393/1/4 395/1/4 397/1/4
f 395/1/4 396/1/4 397/1/4
f 397/1/4 396/1/4 398/1/4
f 397/3/4 398/3/4 401/3/4
f 401/3/4 398/3/4 402/3/4
f 398/1/4 399/1/4 403/1/4
f 402/3/4 398/3/4 403/3/4
f 403/1/4 399/1/4 404/1/4
f 404/1/4 399/1/4 405/1/4
f 402/1/4 403/1/4 409/1/4
f 403/1/4 404/1/4 409/1/4
f 409/1/4 404/1/4 410/1/4
f 407/2/4 408/2/4 411/2/4
f 401/3/4 402/3/4 413/3/4
f 400/3/4 401/3/4 413/3/4
f 402/1/4 409/1/4 413/1/4
f 409/3/4 410/3/4 414/3/4
f 413/1/4 409/1/4 414/1/4
f 406/1/4 407/1/4 415/1/4
f 411/2/4 412/2/4 416/2/4
f 415/1/4 407/1/4 416/1/4
f 407/2/4 411/2/4 416/2/4
f 416/2/4 412/2/4 417/2/4
f 413/3/4 414/3/4 418/3/4
f 400/3/4 413/3/4 418/3/4
f 418/3/4 414/3/4 419/3/4
f 419/3/4 414/3/4 420/3/4
f 414/3/4 410/3/4 421/3/4
f 420/3/4 414/3/4 421/3/4
f 421/3/4 410/3/4 422/3/4
f 406/1/4 415/1/4 424/1/4
f 424/1/4 415/1/4 425/1/4
f 416/2/4 417/2/4 426/2/4
f 426/2/4 417/2/4 427/2/4
f 417/1/4 418/1/4 428/1/4
f 427/2/4 417/2/4 428/2/4
f 418/3/4 419/3/4 429/3/4
f 428/1/4 418/1/4 429/1/4
f 419/1/4 420/1/4 430/1/4
f 429/3/4 419/3/4 430/3/4
f 422/1/4 423/1/4 431/1/4
f 421/1/4 422/1/4 431/1/4
f 420/3/4 421/3/4 431/3/4
f 431/1/4 423/1/4 432/1/4
f 427/2/4 428/2/4 433/2/4
f 428/3/4 429/3/4 434/3/4
f 433/2/4 428/2/4 434/2/4
f 430/1/4 420/1/4 435/1/4
f 420/3/4 431/3/4 436/3/4
f 435/1/4 420/1/4 436/1/4
f 436/3/4 431/3/4 437/3/4
f 432/1/4 423/1/4 438/1/4
f 438/1/4 423/1/4 439/1/4
f 434/3/4 429/3/4 440/3/4
f 440/3/4 429/3/4 441/3/4
f 442/1/4 443/1/4 444/1/4
f 444/1/4 443/1/4 445/1/4
f 448/1/5 447/1/5 446/1/5
f 449/1/5 447/1/5 448/1/5
f 452/1/5 451/1/5 450/1/5
f 453/1/5 451/1/5 452/1/5
f 457/1/5 455/1/5 454/1/5
f 458/2/5 456/2/5 455/2/5
f 458/1/5 455/1/5 457/1/5
f 459/2/5 456/2/5 458/2/5
f 462/2/5 461/2/5 460/2/5
f 464/2/5 462/2/5 460/2/5
f 464/2/5 463/2/5 462/2/5
f 465/2/5 463/2/5 464/2/5
f 466/2/5 463/2/5 465/2/5
f 468/2/5 467/2/5 466/2/5
f 469/2/5 467/2/5 468/2/5
f 474/3/5 471/3/5 470/3/5
f 475/3/5 471/3/5 474/3/5
f 478/2/5 473/2/5 472/2/5
f 479/2/5 473/2/5 478/2/5
f 481/2/5 477/2/5 476/2/5
f 482/2/5 477/2/5 481/2/5
f 483/2/5 480/2/5 479/2/5
f 484/2/5 480/2/5 483/2/5
f 487/1/5 486/1/5 485/1/5
f 488/1/5 486/1/5 487/1/5
f 491/3/5 490/3/5 489/3/5
f 492/3/5 490/3/5 491/3/5
f 495/3/5 494/3/5 493/3/5
f 496/3/5 494/3/5 495/3/5
f 497/3/5 494/3/5 496/3/5
f 498/3/5 494/3/5 497/3/5
f 502/3/5 499/3/5 498/3/5
f 502/3/5 498/3/5 497/3/5
f 503/3/5 499/3/5 502/3/5
f 504/3/5 499/3/5 503/3/5
f 505/3/5 501/3/5 500/3/5
f 506/3/5 501/3/5 505/3/5
f 509/3/5 508/3/5 507/3/5
f 509/3/5 507/3/5 506/3/5
f 510/3/5 508/3/5 509/3/5
f 516/1/5 512/1/5 511/1/5
f 516/3/5 513/3/5 512/3/5
f 517/3/5 513/3/5 516/3/5
f 518/1/5 515/1/5 514/1/5
f 519/1/5 515/1/5 518/1/5
f 521/1/5 516/1/5 511/1/5
f 524/3/5 520/3/5 519/3/5
f 525/3/5 520/3/5 524/3/5
f 526/1/5 521/1/5 511/1/5
f 527/3/5 522/3/5 521/3/5
f 527/1/5 521/1/5 526/1/5
f 528/3/5 522/3/5 527/3/5
f 529/1/5 524/1/5 523/1/5
f 530/1/5 524/1/5 529/1/5
f 533/1/5 532/1/5 531/1/5
f 534/1/5 532/1/5 533/1/5
f 535/1/5 532/1/5 534/1/5
f 538/1/5 537/1/5 536/1/5
f 539/1/5 537/1/5 538/1/5
f 542/1/5 540/1/5 539/1/5
f 543/1/5 540/1/5 542/1/5
f 547/1/5 542/1/5 541/1/5
f 548/1/5 542/1/5 547/1/5
f 549/1/5 546/1/5 545/1/5
f 549/1/5 545/1/5 544/1/5
f 550/1/5 546/1/5 549/1/5
f 551/1/6 552/1/6 553/1/6
f 553/1/6 552/1/6 554/1/6
f 555/1/6 556/1/6 557/1/6
f 557/1/6 556/1/6 558/1/6
f 559/2/6 560/2/6 561/2/6
f 561/2/6 560/2/6 562/2/6
f 563/2/6 564/2/6 565/2/6
f 565/2/6 564/2/6 566/2/6
f 567/3/6 568/3/6 571/3/6
f 571/3/6 568/3/6 572/3/6
f 569/2/6 570/2/6 573/2/6
f 573/2/6 570/2/6 574/2/6
f 575/2/6 576/2/6 577/2/6
f 577/2/6 576/2/6 578/2/6
f 579/3/6 580/3/6 581/3/6
f 581/3/6 580/3/6 582/3/6
f 583/1/6 584/1/6 585/1/6
f 585/1/6 584/1/6 586/1/6
f 587/1/6 588/1/6 589/1/6
f 589/1/6 588/1/6 590/1/6
f 587/1/6 589/1/6 591/1/6
f 591/1/6 589/1/6 592/1/6
f 593/3/6 594/3/6 596/3/6
f 595/3/6 596/3/6 597/3/6
f 596/3/6 594/3/6 598/3/6
f 597/3/6 596/3/6 598/3/6
f 599/1/6 600/1/6 601/1/6
f 601/1/6 600/1/6 602/1/6
f 603/1/6 604/1/6 605/1/6
f 605/1/6 604/1/6 606/1/6
f 607/1/6 608/1/6 612/1/6
f 612/1/6 608/1/6 613/1/6
f 609/3/6 610/3/6 614/3/6
f 614/3/6 610/3/6 615/3/6
f 611/1/6 612/1/6 617/1/6
f 617/1/6 612/1/6 618/1/6
f 615/3/6 616/3/6 621/3/6
f 621/3/6 616/3/6 622/3/6
f 618/1/6 619/1/6 623/1/6
f 623/1/6 619/1/6 624/1/6
f 620/3/6 621/3/6 625/3/6
f 625/3/6 621/3/6 626/3/6
f 627/1/6 628/1/6 629/1/6
f 629/1/6 628/1/6 630/1/6
f 631/1/6 632/1/6 634/1/6
f 634/1/6 632/1/6 635/1/6
f 633/1/6 634/1/6 637/1/6
f 635/1/6 636/1/6 637/1/6
f 634/1/6 635/1/6 637/1/6
f 637/1/6 636/1/6 638/1/6
f 638/1/6 636/1/6 639/1/6
f 633/1/6 637/1/6 641/1/6
f 639/1/6 640/1/6 642/1/6
f 638/1/6 639/1/6 642/1/6
f 642/1/6 640/1/6 643/1/6
f 643/1/6 640/1/6 644/1/6
f 633/1/6 641/1/6 645/1/6
f 641/1/6 642/1/6 645/1/6
f 642/1/6 643/1/6 645/1/6
f 645/1/6 643/1/6 646/1/6
f 646/1/6 643/1/6 647/1/6
f 647/1/6 643/1/6 648/1/6
f 646/1/6 647/1/6 649/1/6
f 649/1/6 647/1/6 650/1/6
f 651/1/6 652/1/6 653/1/6
f 653/1/6 652/1/6 654/1/6
