# MagicaVoxel @ Ephtracy

# group
o 

# material
mtllib MarioSmallWalk2.mtl
usemtl palette

# normals
vn -1 0 0
vn 1 0 0
vn 0 0 1
vn 0 0 -1
vn 0 -1 0
vn 0 1 0

# texcoords
vt 0.908203 0.5
vt 0.974609 0.5
vt 0.978516 0.5
vt 0.982422 0.5

# verts
v -0.5 0.3 0.1
v -0.5 0.3 -0.1
v -0.5 0.4 0.1
v -0.5 0.4 -0.1
v -0.5 0.5 0.2
v -0.5 0.5 0.1
v -0.5 0.5 0
v -0.5 0.5 -0.1
v -0.5 0.6 0.2
v -0.5 0.6 0
v -0.5 0.8 0.2
v -0.5 0.8 -0.2
v -0.5 0.9 0.2
v -0.5 0.9 0.1
v -0.5 0.9 -0.1
v -0.5 0.9 -0.2
v -0.5 1 0.1
v -0.5 1 -0.1
v -0.4 0.2 0.2
v -0.4 0.2 0
v -0.4 0.3 0.2
v -0.4 0.3 0.1
v -0.4 0.3 0
v -0.4 0.4 0.2
v -0.4 0.4 0.1
v -0.4 0.5 0.2
v -0.4 0.5 0.1
v -0.4 0.5 0
v -0.4 0.5 -0.1
v -0.4 0.6 0.2
v -0.4 0.6 0
v -0.4 0.6 -0.1
v -0.4 0.7 0.2
v -0.4 0.7 0
v -0.4 0.9 0.2
v -0.4 0.9 0.1
v -0.4 0.9 -0.1
v -0.4 0.9 -0.2
v -0.4 1 0.2
v -0.4 1 0.1
v -0.4 1 -0.1
v -0.4 1 -0.2
v -0.4 1.1 0.1
v -0.4 1.1 -0.1
v -0.3 0 0.2
v -0.3 0 0
v -0.3 0.2 0.2
v -0.3 0.2 0
v -0.3 0.3 0.2
v -0.3 0.3 0.1
v -0.3 0.4 0.2
v -0.3 0.4 0.1
v -0.3 0.4 -0.1
v -0.3 0.4 -0.2
v -0.3 0.5 -0.1
v -0.3 0.5 -0.2
v -0.3 0.6 0
v -0.3 0.6 -0.1
v -0.3 0.7 0.1
v -0.3 0.7 0
v -0.3 0.7 -0.1
v -0.3 0.8 0.1
v -0.3 0.8 -0.1
v -0.3 1 0.2
v -0.3 1 0.1
v -0.3 1 -0.1
v -0.3 1 -0.2
v -0.3 1.1 0.1
v -0.3 1.1 -0.1
v -0.3 1.2 0.2
v -0.3 1.2 -0.2
v -0.2 0.5 -0.1
v -0.2 0.5 -0.2
v -0.2 0.6 -0.1
v -0.2 0.6 -0.2
v -0.2 0.7 0.2
v -0.2 0.7 0.1
v -0.2 0.7 -0.1
v -0.2 0.7 -0.2
v -0.2 0.8 0.2
v -0.2 0.8 0.1
v -0.2 0.8 -0.1
v -0.2 0.8 -0.2
v -0.2 1.1 0.3
v -0.2 1.1 0.2
v -0.2 1.1 -0.2
v -0.2 1.1 -0.3
v -0.2 1.2 0.3
v -0.2 1.2 0.2
v -0.2 1.2 0.1
v -0.2 1.2 -0.1
v -0.2 1.2 -0.2
v -0.2 1.2 -0.3
v -0.2 1.3 0.1
v -0.2 1.3 -0.1
v -0.1 0.2 0
v -0.1 0.2 -0.1
v -0.1 0.3 0
v -0.1 0.3 -0.1
v 0 0.1 0
v 0 0.1 -0.2
v 0 0.2 0
v 0 0.2 -0.1
v 0 0.3 -0.1
v 0 0.3 -0.2
v 0.1 0.3 -0.1
v 0.1 0.3 -0.2
v 0.1 0.4 -0.1
v 0.1 0.4 -0.2
v -0.3 0.6 0.2
v -0.3 0.6 0.1
v -0.3 0.7 0.2
v -0.3 0.7 0.1
v -0.2 0.3 0.2
v -0.2 0.3 0.1
v -0.2 0.4 0.2
v -0.2 0.4 0.1
v -0.2 0.5 0.2
v -0.2 0.5 0.1
v -0.2 0.6 0.2
v -0.2 0.6 0.1
v -0.1 0.4 0.2
v -0.1 0.4 0.1
v -0.1 0.5 0.2
v -0.1 0.5 0.1
v 0 0.1 0.2
v 0 0.1 0
v 0 0.2 0.2
v 0 0.2 0
v 0 0.3 0.2
v 0 0.3 0.1
v 0 0.3 0
v 0.1 0 0.2
v 0.1 0 0
v 0.1 0.1 0.2
v 0.1 0.1 0
v 0.1 0.3 0.1
v 0.1 0.3 0
v 0.1 0.4 0.1
v 0.1 0.4 0
v 0.1 0.6 0.1
v 0.1 0.6 -0.1
v 0.1 0.7 0.1
v 0.1 0.7 -0.1
v 0.1 1.1 0.3
v 0.1 1.1 0.2
v 0.1 1.1 -0.2
v 0.1 1.1 -0.3
v 0.1 1.2 0.3
v 0.1 1.2 0.2
v 0.1 1.2 0.1
v 0.1 1.2 -0.1
v 0.1 1.2 -0.2
v 0.1 1.2 -0.3
v 0.1 1.3 0.1
v 0.1 1.3 -0.1
v 0.2 0.2 0
v 0.2 0.2 -0.2
v 0.2 0.3 0
v 0.2 0.3 -0.2
v 0.2 0.4 0.1
v 0.2 0.4 0
v 0.2 0.5 0.1
v 0.2 0.5 0
v 0.2 0.5 -0.1
v 0.2 0.6 0.1
v 0.2 0.6 -0.1
v 0.2 0.7 0.2
v 0.2 0.7 0.1
v 0.2 0.7 -0.1
v 0.2 0.7 -0.2
v 0.2 0.8 0.2
v 0.2 0.8 0.1
v 0.2 0.8 -0.1
v 0.2 0.8 -0.2
v 0.2 1 0.2
v 0.2 1 0.1
v 0.2 1 -0.1
v 0.2 1 -0.2
v 0.2 1.1 0.2
v 0.2 1.1 0.1
v 0.2 1.1 -0.1
v 0.2 1.1 -0.2
v 0.3 0.1 0
v 0.3 0.1 -0.2
v 0.3 0.2 0
v 0.3 0.2 -0.2
v 0.3 0.3 0
v 0.3 0.3 -0.2
v 0.3 0.5 0
v 0.3 0.5 -0.1
v 0.3 0.5 -0.2
v 0.3 0.6 -0.1
v 0.3 0.6 -0.2
v 0.3 0.7 0.1
v 0.3 0.7 -0.1
v 0.3 0.8 0.2
v 0.3 0.8 0.1
v 0.3 0.8 -0.1
v 0.3 0.8 -0.2
v 0.3 0.9 0.2
v 0.3 0.9 0.1
v 0.3 0.9 -0.1
v 0.3 0.9 -0.2
v 0.3 1 0.2
v 0.3 1 0.1
v 0.3 1 -0.1
v 0.3 1 -0.2
v 0.3 1.1 0.2
v 0.3 1.1 0.1
v 0.3 1.1 -0.1
v 0.3 1.1 -0.2
v 0.3 1.2 0.2
v 0.3 1.2 0.1
v 0.3 1.2 -0.1
v 0.3 1.2 -0.2
v 0.4 0.8 0.1
v 0.4 0.8 -0.1
v 0.4 1 0.1
v 0.4 1 -0.1
v 0.4 1.1 0.1
v 0.4 1.1 -0.1
v 0.4 1.2 0.1
v 0.4 1.2 -0.1
v -0.2 1.1 0.3
v -0.2 1.2 0.3
v 0.1 1.1 0.3
v 0.1 1.2 0.3
v -0.5 0.5 0.2
v -0.5 0.6 0.2
v -0.5 0.8 0.2
v -0.5 0.9 0.2
v -0.4 0.2 0.2
v -0.4 0.3 0.2
v -0.4 0.4 0.2
v -0.4 0.5 0.2
v -0.4 0.6 0.2
v -0.4 0.7 0.2
v -0.4 0.9 0.2
v -0.4 1 0.2
v -0.3 0 0.2
v -0.3 0.2 0.2
v -0.3 0.3 0.2
v -0.3 0.4 0.2
v -0.3 0.5 0.2
v -0.3 0.6 0.2
v -0.3 0.7 0.2
v -0.3 0.8 0.2
v -0.3 1 0.2
v -0.3 1.2 0.2
v -0.2 0.3 0.2
v -0.2 0.4 0.2
v -0.2 0.5 0.2
v -0.2 0.6 0.2
v -0.2 0.7 0.2
v -0.2 0.8 0.2
v -0.2 0.9 0.2
v -0.2 1 0.2
v -0.2 1.1 0.2
v -0.2 1.2 0.2
v -0.1 0.4 0.2
v -0.1 0.5 0.2
v -0.1 1 0.2
v -0.1 1.1 0.2
v 0 0.1 0.2
v 0 0.2 0.2
v 0 0.3 0.2
v 0 0.9 0.2
v 0 1 0.2
v 0.1 0 0.2
v 0.1 0.1 0.2
v 0.1 0.8 0.2
v 0.1 0.9 0.2
v 0.1 1 0.2
v 0.1 1.1 0.2
v 0.1 1.2 0.2
v 0.2 0.7 0.2
v 0.2 0.8 0.2
v 0.2 1 0.2
v 0.2 1.1 0.2
v 0.3 0.8 0.2
v 0.3 0.9 0.2
v 0.3 1 0.2
v 0.3 1.1 0.2
v 0.3 1.2 0.2
v -0.5 0.3 0.1
v -0.5 0.4 0.1
v -0.5 0.5 0.1
v -0.5 0.9 0.1
v -0.5 1 0.1
v -0.4 0.3 0.1
v -0.4 0.4 0.1
v -0.4 0.5 0.1
v -0.4 0.9 0.1
v -0.4 1 0.1
v -0.4 1.1 0.1
v -0.3 0.3 0.1
v -0.3 0.4 0.1
v -0.3 0.6 0.1
v -0.3 0.7 0.1
v -0.3 0.8 0.1
v -0.3 1 0.1
v -0.3 1.1 0.1
v -0.2 0.3 0.1
v -0.2 0.4 0.1
v -0.2 0.5 0.1
v -0.2 0.6 0.1
v -0.2 0.7 0.1
v -0.2 0.8 0.1
v -0.2 1.2 0.1
v -0.2 1.3 0.1
v -0.1 0.4 0.1
v -0.1 0.5 0.1
v -0.1 0.7 0.1
v 0 0.3 0.1
v 0 0.4 0.1
v 0 0.5 0.1
v 0 0.7 0.1
v 0.1 0.3 0.1
v 0.1 0.4 0.1
v 0.1 0.5 0.1
v 0.1 0.6 0.1
v 0.1 0.7 0.1
v 0.1 1.2 0.1
v 0.1 1.3 0.1
v 0.2 0.4 0.1
v 0.2 0.5 0.1
v 0.2 0.6 0.1
v 0.2 0.7 0.1
v 0.2 0.8 0.1
v 0.2 1 0.1
v 0.2 1.1 0.1
v 0.3 0.7 0.1
v 0.3 0.8 0.1
v 0.3 0.9 0.1
v 0.3 1 0.1
v 0.3 1.1 0.1
v 0.3 1.2 0.1
v 0.4 0.8 0.1
v 0.4 1 0.1
v 0.4 1.1 0.1
v 0.4 1.2 0.1
v 0 0.1 0
v 0 0.2 0
v 0 0.3 0
v 0.1 0.1 0
v 0.1 0.3 0
v 0.1 0.4 0
v 0.2 0.2 0
v 0.2 0.3 0
v 0.2 0.4 0
v 0.2 0.5 0
v 0.3 0.1 0
v 0.3 0.2 0
v 0.3 0.3 0
v 0.3 0.5 0
v 0.2 0.5 -0.1
v 0.2 0.6 -0.1
v 0.3 0.5 -0.1
v 0.3 0.6 -0.1
v -0.5 0.5 0
v -0.5 0.6 0
v -0.4 0.2 0
v -0.4 0.3 0
v -0.4 0.5 0
v -0.4 0.6 0
v -0.4 0.7 0
v -0.3 0 0
v -0.3 0.2 0
v -0.3 0.6 0
v -0.3 0.7 0
v -0.1 0.2 0
v -0.1 0.3 0
v 0 0.1 0
v 0 0.2 0
v 0.1 0 0
v 0.1 0.1 0
v -0.5 0.3 -0.1
v -0.5 0.4 -0.1
v -0.5 0.5 -0.1
v -0.5 0.9 -0.1
v -0.5 1 -0.1
v -0.4 0.5 -0.1
v -0.4 0.6 -0.1
v -0.4 0.9 -0.1
v -0.4 1 -0.1
v -0.4 1.1 -0.1
v -0.3 0.4 -0.1
v -0.3 0.5 -0.1
v -0.3 0.6 -0.1
v -0.3 0.7 -0.1
v -0.3 0.8 -0.1
v -0.3 1 -0.1
v -0.3 1.1 -0.1
v -0.2 0.5 -0.1
v -0.2 0.6 -0.1
v -0.2 0.7 -0.1
v -0.2 0.8 -0.1
v -0.2 1.2 -0.1
v -0.2 1.3 -0.1
v -0.1 0.2 -0.1
v -0.1 0.3 -0.1
v -0.1 0.6 -0.1
v -0.1 0.7 -0.1
v 0 0.2 -0.1
v 0 0.3 -0.1
v 0 0.4 -0.1
v 0 0.6 -0.1
v 0 0.7 -0.1
v 0.1 0.3 -0.1
v 0.1 0.4 -0.1
v 0.1 0.6 -0.1
v 0.1 0.7 -0.1
v 0.1 1.2 -0.1
v 0.1 1.3 -0.1
v 0.2 0.7 -0.1
v 0.2 0.8 -0.1
v 0.2 1 -0.1
v 0.2 1.1 -0.1
v 0.3 0.7 -0.1
v 0.3 0.8 -0.1
v 0.3 0.9 -0.1
v 0.3 1 -0.1
v 0.3 1.1 -0.1
v 0.3 1.2 -0.1
v 0.4 0.8 -0.1
v 0.4 1 -0.1
v 0.4 1.1 -0.1
v 0.4 1.2 -0.1
v -0.5 0.8 -0.2
v -0.5 0.9 -0.2
v -0.4 0.9 -0.2
v -0.4 1 -0.2
v -0.3 0.4 -0.2
v -0.3 0.5 -0.2
v -0.3 0.8 -0.2
v -0.3 1 -0.2
v -0.3 1.2 -0.2
v -0.2 0.5 -0.2
v -0.2 0.6 -0.2
v -0.2 0.7 -0.2
v -0.2 0.8 -0.2
v -0.2 0.9 -0.2
v -0.2 1 -0.2
v -0.2 1.1 -0.2
v -0.2 1.2 -0.2
v -0.1 1 -0.2
v -0.1 1.1 -0.2
v 0 0.1 -0.2
v 0 0.3 -0.2
v 0 0.4 -0.2
v 0 0.6 -0.2
v 0 0.9 -0.2
v 0 1 -0.2
v 0.1 0.3 -0.2
v 0.1 0.4 -0.2
v 0.1 0.8 -0.2
v 0.1 0.9 -0.2
v 0.1 1 -0.2
v 0.1 1.1 -0.2
v 0.1 1.2 -0.2
v 0.2 0.2 -0.2
v 0.2 0.3 -0.2
v 0.2 0.4 -0.2
v 0.2 0.5 -0.2
v 0.2 0.7 -0.2
v 0.2 0.8 -0.2
v 0.2 1 -0.2
v 0.2 1.1 -0.2
v 0.3 0.1 -0.2
v 0.3 0.2 -0.2
v 0.3 0.3 -0.2
v 0.3 0.5 -0.2
v 0.3 0.6 -0.2
v 0.3 0.8 -0.2
v 0.3 0.9 -0.2
v 0.3 1 -0.2
v 0.3 1.1 -0.2
v 0.3 1.2 -0.2
v -0.2 1.1 -0.3
v -0.2 1.2 -0.3
v 0.1 1.1 -0.3
v 0.1 1.2 -0.3
v -0.3 0 0.2
v 0.1 0 0.2
v -0.3 0 0
v 0.1 0 0
v 0 0.1 0
v 0.1 0.1 0
v 0.3 0.1 0
v 0 0.1 -0.2
v 0.3 0.1 -0.2
v -0.4 0.2 0.2
v -0.3 0.2 0.2
v -0.4 0.2 0
v -0.3 0.2 0
v -0.1 0.2 0
v 0 0.2 0
v -0.1 0.2 -0.1
v 0 0.2 -0.1
v -0.5 0.3 0.1
v -0.4 0.3 0.1
v 0 0.3 0.1
v 0.1 0.3 0.1
v -0.4 0.3 0
v -0.1 0.3 0
v 0 0.3 0
v 0.1 0.3 0
v 0.2 0.3 0
v 0.3 0.3 0
v -0.5 0.3 -0.1
v -0.1 0.3 -0.1
v 0.2 0.3 -0.2
v 0.3 0.3 -0.2
v -0.4 0.4 0.2
v -0.3 0.4 0.2
v -0.2 0.4 0.2
v -0.1 0.4 0.2
v -0.4 0.4 0.1
v -0.3 0.4 0.1
v -0.2 0.4 0.1
v -0.1 0.4 0.1
v 0.1 0.4 0.1
v 0.2 0.4 0.1
v 0.1 0.4 0
v 0.2 0.4 0
v -0.3 0.4 -0.1
v 0 0.4 -0.1
v 0.1 0.4 -0.1
v -0.3 0.4 -0.2
v 0 0.4 -0.2
v 0.1 0.4 -0.2
v -0.5 0.5 0.2
v -0.4 0.5 0.2
v -0.5 0.5 0.1
v -0.4 0.5 0.1
v -0.2 0.7 0.2
v 0.2 0.7 0.2
v -0.2 0.7 0.1
v -0.1 0.7 0.1
v 0 0.7 0.1
v 0.1 0.7 0.1
v 0.2 0.7 0.1
v 0.3 0.7 0.1
v -0.2 0.7 -0.1
v -0.1 0.7 -0.1
v 0 0.7 -0.1
v 0.1 0.7 -0.1
v 0.2 0.7 -0.1
v 0.3 0.7 -0.1
v -0.2 0.7 -0.2
v 0.2 0.7 -0.2
v -0.5 0.8 0.2
v -0.3 0.8 0.2
v -0.2 0.8 0.2
v 0.2 0.8 0.2
v 0.3 0.8 0.2
v -0.3 0.8 0.1
v -0.2 0.8 0.1
v 0.2 0.8 0.1
v 0.3 0.8 0.1
v 0.4 0.8 0.1
v -0.3 0.8 -0.1
v -0.2 0.8 -0.1
v 0.2 0.8 -0.1
v 0.3 0.8 -0.1
v 0.4 0.8 -0.1
v -0.5 0.8 -0.2
v -0.3 0.8 -0.2
v -0.2 0.8 -0.2
v 0.2 0.8 -0.2
v 0.3 0.8 -0.2
v -0.2 1.1 0.3
v 0.1 1.1 0.3
v -0.2 1.1 0.2
v -0.1 1.1 0.2
v 0.1 1.1 0.2
v 0.2 1.1 0.2
v 0.3 1.1 0.2
v 0.2 1.1 0.1
v 0.3 1.1 0.1
v 0.4 1.1 0.1
v 0.2 1.1 -0.1
v 0.3 1.1 -0.1
v 0.4 1.1 -0.1
v -0.2 1.1 -0.2
v -0.1 1.1 -0.2
v 0.1 1.1 -0.2
v 0.2 1.1 -0.2
v 0.3 1.1 -0.2
v -0.2 1.1 -0.3
v 0.1 1.1 -0.3
v 0 0.1 0.2
v 0.1 0.1 0.2
v 0 0.1 0
v 0.1 0.1 0
v 0.2 0.2 0
v 0.3 0.2 0
v 0.2 0.2 -0.2
v 0.3 0.2 -0.2
v -0.4 0.3 0.2
v -0.3 0.3 0.2
v -0.2 0.3 0.2
v 0 0.3 0.2
v -0.4 0.3 0.1
v -0.3 0.3 0.1
v -0.2 0.3 0.1
v 0 0.3 0.1
v 0 0.3 -0.1
v 0.1 0.3 -0.1
v 0 0.3 -0.2
v 0.1 0.3 -0.2
v -0.2 0.5 0.2
v -0.1 0.5 0.2
v -0.2 0.5 0.1
v -0.1 0.5 0.1
v -0.5 0.5 0
v -0.4 0.5 0
v 0.2 0.5 0
v 0.3 0.5 0
v -0.5 0.5 -0.1
v -0.4 0.5 -0.1
v -0.3 0.5 -0.1
v -0.2 0.5 -0.1
v 0.2 0.5 -0.1
v 0.3 0.5 -0.1
v -0.3 0.5 -0.2
v -0.2 0.5 -0.2
v -0.5 0.6 0.2
v -0.4 0.6 0.2
v -0.3 0.6 0.2
v -0.2 0.6 0.2
v -0.3 0.6 0.1
v -0.2 0.6 0.1
v 0.1 0.6 0.1
v 0.2 0.6 0.1
v -0.5 0.6 0
v -0.4 0.6 0
v -0.3 0.6 0
v -0.4 0.6 -0.1
v -0.3 0.6 -0.1
v -0.2 0.6 -0.1
v -0.1 0.6 -0.1
v 0 0.6 -0.1
v 0.1 0.6 -0.1
v 0.2 0.6 -0.1
v 0.3 0.6 -0.1
v -0.2 0.6 -0.2
v 0 0.6 -0.2
v 0.3 0.6 -0.2
v -0.4 0.7 0.2
v -0.3 0.7 0.2
v -0.3 0.7 0.1
v -0.4 0.7 0
v -0.3 0.7 0
v -0.5 0.9 0.2
v -0.4 0.9 0.2
v -0.5 0.9 0.1
v -0.4 0.9 0.1
v -0.5 0.9 -0.1
v -0.4 0.9 -0.1
v -0.5 0.9 -0.2
v -0.4 0.9 -0.2
v -0.4 1 0.2
v -0.3 1 0.2
v 0.2 1 0.2
v 0.3 1 0.2
v -0.5 1 0.1
v -0.4 1 0.1
v -0.3 1 0.1
v 0.2 1 0.1
v 0.3 1 0.1
v 0.4 1 0.1
v -0.5 1 -0.1
v -0.4 1 -0.1
v -0.3 1 -0.1
v 0.2 1 -0.1
v 0.3 1 -0.1
v 0.4 1 -0.1
v -0.4 1 -0.2
v -0.3 1 -0.2
v 0.2 1 -0.2
v 0.3 1 -0.2
v -0.4 1.1 0.1
v -0.3 1.1 0.1
v -0.4 1.1 -0.1
v -0.3 1.1 -0.1
v -0.2 1.2 0.3
v 0.1 1.2 0.3
v -0.3 1.2 0.2
v -0.2 1.2 0.2
v 0.1 1.2 0.2
v 0.3 1.2 0.2
v -0.2 1.2 0.1
v 0.1 1.2 0.1
v 0.3 1.2 0.1
v 0.4 1.2 0.1
v -0.2 1.2 -0.1
v 0.1 1.2 -0.1
v 0.3 1.2 -0.1
v 0.4 1.2 -0.1
v -0.3 1.2 -0.2
v -0.2 1.2 -0.2
v 0.1 1.2 -0.2
v 0.3 1.2 -0.2
v -0.2 1.2 -0.3
v 0.1 1.2 -0.3
v -0.2 1.3 0.1
v 0.1 1.3 0.1
v -0.2 1.3 -0.1
v 0.1 1.3 -0.1

# faces
f 3/2/1 2/2/1 1/2/1
f 4/2/1 2/2/1 3/2/1
f 6/1/1 4/1/1 3/1/1
f 7/1/1 4/1/1 6/1/1
f 8/1/1 4/1/1 7/1/1
f 9/1/1 6/1/1 5/1/1
f 9/1/1 7/1/1 6/1/1
f 10/1/1 7/1/1 9/1/1
f 13/1/1 12/1/1 11/1/1
f 14/1/1 12/1/1 13/1/1
f 15/1/1 12/1/1 14/1/1
f 16/1/1 12/1/1 15/1/1
f 17/1/1 15/1/1 14/1/1
f 18/1/1 15/1/1 17/1/1
f 21/2/1 20/2/1 19/2/1
f 22/2/1 20/2/1 21/2/1
f 23/2/1 20/2/1 22/2/1
f 26/1/1 25/1/1 24/1/1
f 27/1/1 25/1/1 26/1/1
f 31/1/1 29/1/1 28/1/1
f 32/1/1 29/1/1 31/1/1
f 33/1/1 31/1/1 30/1/1
f 34/1/1 31/1/1 33/1/1
f 39/1/1 36/1/1 35/1/1
f 40/1/1 36/1/1 39/1/1
f 41/1/1 38/1/1 37/1/1
f 42/1/1 38/1/1 41/1/1
f 43/1/1 41/1/1 40/1/1
f 44/1/1 41/1/1 43/1/1
f 47/1/1 46/1/1 45/1/1
f 48/1/1 46/1/1 47/1/1
f 51/3/1 50/3/1 49/3/1
f 52/3/1 50/3/1 51/3/1
f 55/1/1 54/1/1 53/1/1
f 56/1/1 54/1/1 55/1/1
f 60/1/1 58/1/1 57/1/1
f 61/1/1 58/1/1 60/1/1
f 62/3/1 60/3/1 59/3/1
f 62/3/1 61/3/1 60/3/1
f 63/3/1 61/3/1 62/3/1
f 68/1/1 65/1/1 64/1/1
f 69/1/1 67/1/1 66/1/1
f 70/1/1 68/1/1 64/1/1
f 70/1/1 69/1/1 68/1/1
f 71/1/1 67/1/1 69/1/1
f 71/1/1 69/1/1 70/1/1
f 74/1/1 73/1/1 72/1/1
f 75/1/1 73/1/1 74/1/1
f 80/3/1 77/3/1 76/3/1
f 81/3/1 77/3/1 80/3/1
f 82/3/1 79/3/1 78/3/1
f 83/3/1 79/3/1 82/3/1
f 88/1/1 85/1/1 84/1/1
f 89/1/1 85/1/1 88/1/1
f 92/1/1 87/1/1 86/1/1
f 93/1/1 87/1/1 92/1/1
f 94/1/1 91/1/1 90/1/1
f 95/1/1 91/1/1 94/1/1
f 98/2/1 97/2/1 96/2/1
f 99/2/1 97/2/1 98/2/1
f 102/1/1 101/1/1 100/1/1
f 103/1/1 101/1/1 102/1/1
f 104/1/1 101/1/1 103/1/1
f 105/1/1 101/1/1 104/1/1
f 108/2/1 107/2/1 106/2/1
f 109/2/1 107/2/1 108/2/1
f 110/1/2 111/1/2 112/1/2
f 112/1/2 111/1/2 113/1/2
f 114/3/2 115/3/2 116/3/2
f 116/3/2 115/3/2 117/3/2
f 118/1/2 119/1/2 120/1/2
f 120/1/2 119/1/2 121/1/2
f 122/3/2 123/3/2 124/3/2
f 124/3/2 123/3/2 125/3/2
f 126/1/2 127/1/2 128/1/2
f 128/1/2 127/1/2 129/1/2
f 128/2/2 129/2/2 130/2/2
f 130/2/2 129/2/2 131/2/2
f 131/2/2 129/2/2 132/2/2
f 133/1/2 134/1/2 135/1/2
f 135/1/2 134/1/2 136/1/2
f 137/2/2 138/2/2 139/2/2
f 139/2/2 138/2/2 140/2/2
f 141/1/2 142/1/2 143/1/2
f 143/1/2 142/1/2 144/1/2
f 145/1/2 146/1/2 149/1/2
f 149/1/2 146/1/2 150/1/2
f 147/1/2 148/1/2 153/1/2
f 153/1/2 148/1/2 154/1/2
f 151/1/2 152/1/2 155/1/2
f 155/1/2 152/1/2 156/1/2
f 157/1/2 158/1/2 159/1/2
f 159/1/2 158/1/2 160/1/2
f 161/4/2 162/4/2 163/4/2
f 163/4/2 162/4/2 164/4/2
f 163/1/2 164/1/2 166/1/2
f 164/1/2 165/1/2 166/1/2
f 166/1/2 165/1/2 167/1/2
f 168/3/2 169/3/2 172/3/2
f 172/3/2 169/3/2 173/3/2
f 170/3/2 171/3/2 174/3/2
f 174/3/2 171/3/2 175/3/2
f 176/1/2 177/1/2 180/1/2
f 180/1/2 177/1/2 181/1/2
f 178/1/2 179/1/2 182/1/2
f 182/1/2 179/1/2 183/1/2
f 184/1/2 185/1/2 186/1/2
f 186/1/2 185/1/2 187/1/2
f 188/2/2 189/2/2 190/2/2
f 190/2/2 189/2/2 191/2/2
f 191/2/2 189/2/2 192/2/2
f 191/3/2 192/3/2 193/3/2
f 193/3/2 192/3/2 194/3/2
f 195/3/2 196/3/2 198/3/2
f 198/3/2 196/3/2 199/3/2
f 197/1/2 198/1/2 201/1/2
f 201/1/2 198/1/2 202/1/2
f 199/1/2 200/1/2 203/1/2
f 203/1/2 200/1/2 204/1/2
f 201/3/2 202/3/2 205/3/2
f 205/3/2 202/3/2 206/3/2
f 203/3/2 204/3/2 207/3/2
f 207/3/2 204/3/2 208/3/2
f 206/3/2 207/3/2 210/3/2
f 210/3/2 207/3/2 211/3/2
f 209/1/2 210/1/2 213/1/2
f 213/1/2 210/1/2 214/1/2
f 211/1/2 212/1/2 215/1/2
f 215/1/2 212/1/2 216/1/2
f 217/3/2 218/3/2 219/3/2
f 219/3/2 218/3/2 220/3/2
f 221/1/2 222/1/2 223/1/2
f 223/1/2 222/1/2 224/1/2
f 227/1/3 226/1/3 225/1/3
f 228/1/3 226/1/3 227/1/3
f 236/1/3 230/1/3 229/1/3
f 237/1/3 230/1/3 236/1/3
f 239/1/3 232/1/3 231/1/3
f 242/2/3 234/2/3 233/2/3
f 243/2/3 234/2/3 242/2/3
f 244/1/3 238/1/3 237/1/3
f 244/1/3 236/1/3 235/1/3
f 244/1/3 237/1/3 236/1/3
f 245/1/3 238/1/3 244/1/3
f 246/1/3 238/1/3 245/1/3
f 247/1/3 238/1/3 246/1/3
f 248/1/3 240/1/3 239/1/3
f 248/1/3 239/1/3 231/1/3
f 249/1/3 240/1/3 248/1/3
f 251/2/3 243/2/3 242/2/3
f 251/3/3 244/3/3 243/3/3
f 251/3/3 245/3/3 244/3/3
f 252/3/3 245/3/3 251/3/3
f 253/1/3 246/1/3 245/1/3
f 253/3/3 245/3/3 252/3/3
f 254/1/3 246/1/3 253/1/3
f 256/3/3 249/3/3 248/3/3
f 257/3/3 249/3/3 256/3/3
f 258/1/3 250/1/3 249/1/3
f 258/3/3 249/3/3 257/3/3
f 259/1/3 250/1/3 258/1/3
f 260/1/3 250/1/3 259/1/3
f 261/3/3 253/3/3 252/3/3
f 262/3/3 253/3/3 261/3/3
f 263/1/3 259/1/3 258/1/3
f 263/1/3 258/1/3 257/1/3
f 264/1/3 259/1/3 263/1/3
f 265/1/3 242/1/3 241/1/3
f 266/2/3 251/2/3 242/2/3
f 266/1/3 242/1/3 265/1/3
f 267/2/3 251/2/3 266/2/3
f 268/3/3 257/3/3 256/3/3
f 268/3/3 256/3/3 255/3/3
f 268/1/3 263/1/3 257/1/3
f 269/3/3 264/3/3 263/3/3
f 269/1/3 263/1/3 268/1/3
f 270/1/3 265/1/3 241/1/3
f 271/1/3 265/1/3 270/1/3
f 272/3/3 268/3/3 255/3/3
f 272/3/3 269/3/3 268/3/3
f 273/3/3 269/3/3 272/3/3
f 274/3/3 264/3/3 269/3/3
f 274/3/3 269/3/3 273/3/3
f 275/3/3 264/3/3 274/3/3
f 277/3/3 272/3/3 255/3/3
f 278/1/3 273/1/3 272/1/3
f 278/3/3 272/3/3 277/3/3
f 279/1/3 275/1/3 274/1/3
f 279/1/3 276/1/3 275/1/3
f 279/3/3 274/3/3 273/3/3
f 280/1/3 276/1/3 279/1/3
f 281/1/3 273/1/3 278/1/3
f 282/3/3 279/3/3 273/3/3
f 282/1/3 273/1/3 281/1/3
f 283/3/3 279/3/3 282/3/3
f 284/1/3 276/1/3 280/1/3
f 285/1/3 276/1/3 284/1/3
f 291/2/3 287/2/3 286/2/3
f 292/1/3 288/1/3 287/1/3
f 292/2/3 287/2/3 291/2/3
f 293/1/3 288/1/3 292/1/3
f 294/1/3 290/1/3 289/1/3
f 295/1/3 290/1/3 294/1/3
f 297/2/3 292/2/3 291/2/3
f 298/2/3 292/2/3 297/2/3
f 302/1/3 296/1/3 295/1/3
f 303/1/3 296/1/3 302/1/3
f 307/1/3 300/1/3 299/1/3
f 308/3/3 301/3/3 300/3/3
f 308/1/3 300/1/3 307/1/3
f 309/3/3 301/3/3 308/3/3
f 312/2/3 305/2/3 304/2/3
f 313/1/3 307/1/3 306/1/3
f 313/1/3 308/1/3 307/1/3
f 314/1/3 308/1/3 313/1/3
f 315/2/3 312/2/3 304/2/3
f 316/4/3 313/4/3 312/4/3
f 316/2/3 312/2/3 315/2/3
f 317/2/3 314/2/3 313/2/3
f 317/4/3 313/4/3 316/4/3
f 318/2/3 314/2/3 317/2/3
f 319/2/3 316/2/3 315/2/3
f 319/2/3 317/2/3 316/2/3
f 320/2/3 317/2/3 319/2/3
f 321/1/3 318/1/3 317/1/3
f 321/2/3 317/2/3 320/2/3
f 322/1/3 318/1/3 321/1/3
f 323/1/3 318/1/3 322/1/3
f 324/1/3 311/1/3 310/1/3
f 325/1/3 311/1/3 324/1/3
f 326/4/3 321/4/3 320/4/3
f 327/1/3 322/1/3 321/1/3
f 327/4/3 321/4/3 326/4/3
f 328/1/3 322/1/3 327/1/3
f 333/3/3 330/3/3 329/3/3
f 334/3/3 330/3/3 333/3/3
f 336/3/3 332/3/3 331/3/3
f 337/3/3 332/3/3 336/3/3
f 339/3/3 335/3/3 334/3/3
f 339/3/3 336/3/3 335/3/3
f 340/3/3 336/3/3 339/3/3
f 341/1/3 338/1/3 337/1/3
f 342/1/3 338/1/3 341/1/3
f 346/1/3 344/1/3 343/1/3
f 346/1/3 345/1/3 344/1/3
f 347/1/3 345/1/3 346/1/3
f 349/1/3 347/1/3 346/1/3
f 350/2/3 348/2/3 347/2/3
f 350/1/3 347/1/3 349/1/3
f 351/2/3 348/2/3 350/2/3
f 353/1/3 349/1/3 346/1/3
f 354/1/3 349/1/3 353/1/3
f 355/2/3 352/2/3 351/2/3
f 355/2/3 351/2/3 350/2/3
f 356/2/3 352/2/3 355/2/3
f 359/3/3 358/3/3 357/3/3
f 360/3/3 358/3/3 359/3/3
f 361/1/4 362/1/4 365/1/4
f 365/1/4 362/1/4 366/1/4
f 363/2/4 364/2/4 369/2/4
f 366/1/4 367/1/4 370/1/4
f 370/1/4 367/1/4 371/1/4
f 368/1/4 369/1/4 372/1/4
f 369/2/4 364/2/4 372/2/4
f 372/2/4 364/2/4 373/2/4
f 368/1/4 372/1/4 374/1/4
f 374/1/4 372/1/4 375/1/4
f 368/1/4 374/1/4 376/1/4
f 376/1/4 374/1/4 377/1/4
f 379/1/4 380/1/4 383/1/4
f 381/1/4 382/1/4 385/1/4
f 385/1/4 382/1/4 386/1/4
f 378/2/4 379/2/4 388/2/4
f 383/1/4 384/1/4 388/1/4
f 379/1/4 383/1/4 388/1/4
f 388/1/4 384/1/4 389/1/4
f 389/1/4 384/1/4 390/1/4
f 386/1/4 387/1/4 393/1/4
f 393/1/4 387/1/4 394/1/4
f 389/1/4 390/1/4 395/1/4
f 390/1/4 391/1/4 395/1/4
f 395/1/4 391/1/4 396/1/4
f 391/3/4 392/3/4 397/3/4
f 396/1/4 391/1/4 397/1/4
f 397/3/4 392/3/4 398/3/4
f 378/2/4 388/2/4 402/2/4
f 396/1/4 397/1/4 403/1/4
f 403/1/4 397/1/4 404/1/4
f 401/2/4 402/2/4 405/2/4
f 402/2/4 388/2/4 406/2/4
f 405/2/4 402/2/4 406/2/4
f 406/2/4 388/2/4 407/2/4
f 403/2/4 404/2/4 408/2/4
f 408/2/4 404/2/4 409/2/4
f 406/2/4 407/2/4 410/2/4
f 410/2/4 407/2/4 411/2/4
f 408/1/4 409/1/4 412/1/4
f 412/1/4 409/1/4 413/1/4
f 399/1/4 400/1/4 414/1/4
f 414/1/4 400/1/4 415/1/4
f 416/3/4 417/3/4 420/3/4
f 420/3/4 417/3/4 421/3/4
f 418/3/4 419/3/4 423/3/4
f 423/3/4 419/3/4 424/3/4
f 421/3/4 422/3/4 426/3/4
f 422/3/4 423/3/4 426/3/4
f 426/3/4 423/3/4 427/3/4
f 424/1/4 425/1/4 428/1/4
f 428/1/4 425/1/4 429/1/4
f 430/1/4 431/1/4 432/1/4
f 430/1/4 432/1/4 436/1/4
f 432/1/4 433/1/4 436/1/4
f 436/1/4 433/1/4 437/1/4
f 434/1/4 435/1/4 439/1/4
f 436/3/4 437/3/4 442/3/4
f 442/3/4 437/3/4 443/3/4
f 437/1/4 438/1/4 444/1/4
f 443/3/4 437/3/4 444/3/4
f 444/1/4 438/1/4 445/1/4
f 445/1/4 438/1/4 446/1/4
f 443/1/4 444/1/4 447/1/4
f 444/1/4 445/1/4 447/1/4
f 447/1/4 445/1/4 448/1/4
f 439/1/4 440/1/4 451/1/4
f 434/1/4 439/1/4 451/1/4
f 451/1/4 440/1/4 452/1/4
f 442/3/4 443/3/4 453/3/4
f 441/3/4 442/3/4 453/3/4
f 443/1/4 447/1/4 453/1/4
f 447/3/4 448/3/4 454/3/4
f 453/1/4 447/1/4 454/1/4
f 449/1/4 450/1/4 455/1/4
f 451/3/4 452/3/4 456/3/4
f 441/3/4 453/3/4 457/3/4
f 453/3/4 454/3/4 457/3/4
f 457/3/4 454/3/4 458/3/4
f 454/3/4 448/3/4 459/3/4
f 458/3/4 454/3/4 459/3/4
f 459/3/4 448/3/4 460/3/4
f 449/1/4 455/1/4 462/1/4
f 455/2/4 456/2/4 463/2/4
f 462/1/4 455/1/4 463/1/4
f 456/3/4 452/3/4 464/3/4
f 463/2/4 456/2/4 464/2/4
f 464/3/4 452/3/4 465/3/4
f 441/3/4 457/3/4 466/3/4
f 457/1/4 458/1/4 467/1/4
f 466/3/4 457/3/4 467/3/4
f 460/1/4 461/1/4 468/1/4
f 459/1/4 460/1/4 468/1/4
f 458/3/4 459/3/4 468/3/4
f 468/1/4 461/1/4 469/1/4
f 449/1/4 462/1/4 470/1/4
f 470/1/4 462/1/4 471/1/4
f 463/2/4 464/2/4 472/2/4
f 464/2/4 465/2/4 472/2/4
f 465/3/4 452/3/4 473/3/4
f 472/2/4 465/2/4 473/2/4
f 473/3/4 452/3/4 474/3/4
f 467/1/4 458/1/4 475/1/4
f 458/3/4 468/3/4 476/3/4
f 475/1/4 458/1/4 476/1/4
f 476/3/4 468/3/4 477/3/4
f 469/1/4 461/1/4 478/1/4
f 478/1/4 461/1/4 479/1/4
f 480/1/4 481/1/4 482/1/4
f 482/1/4 481/1/4 483/1/4
f 486/1/5 485/1/5 484/1/5
f 487/1/5 485/1/5 486/1/5
f 491/1/5 489/1/5 488/1/5
f 491/1/5 490/1/5 489/1/5
f 492/1/5 490/1/5 491/1/5
f 495/2/5 494/2/5 493/2/5
f 496/2/5 494/2/5 495/2/5
f 499/2/5 498/2/5 497/2/5
f 500/2/5 498/2/5 499/2/5
f 505/2/5 502/2/5 501/2/5
f 507/2/5 504/2/5 503/2/5
f 508/2/5 504/2/5 507/2/5
f 511/2/5 506/2/5 505/2/5
f 511/2/5 505/2/5 501/2/5
f 512/2/5 506/2/5 511/2/5
f 513/2/5 510/2/5 509/2/5
f 514/2/5 510/2/5 513/2/5
f 519/1/5 516/1/5 515/1/5
f 520/1/5 516/1/5 519/1/5
f 521/3/5 518/3/5 517/3/5
f 522/3/5 518/3/5 521/3/5
f 525/4/5 524/4/5 523/4/5
f 526/4/5 524/4/5 525/4/5
f 530/1/5 528/1/5 527/1/5
f 531/3/5 529/3/5 528/3/5
f 531/1/5 528/1/5 530/1/5
f 532/3/5 529/3/5 531/3/5
f 535/1/5 534/1/5 533/1/5
f 536/1/5 534/1/5 535/1/5
f 539/3/5 538/3/5 537/3/5
f 540/3/5 538/3/5 539/3/5
f 541/3/5 538/3/5 540/3/5
f 542/3/5 538/3/5 541/3/5
f 543/3/5 538/3/5 542/3/5
f 548/3/5 544/3/5 543/3/5
f 548/3/5 543/3/5 542/3/5
f 549/3/5 544/3/5 548/3/5
f 550/3/5 544/3/5 549/3/5
f 551/3/5 547/3/5 546/3/5
f 551/3/5 546/3/5 545/3/5
f 551/3/5 549/3/5 548/3/5
f 551/3/5 548/3/5 547/3/5
f 552/3/5 549/3/5 551/3/5
f 558/1/5 554/1/5 553/1/5
f 558/3/5 555/3/5 554/3/5
f 559/3/5 555/3/5 558/3/5
f 560/1/5 557/1/5 556/1/5
f 561/1/5 557/1/5 560/1/5
f 563/1/5 558/1/5 553/1/5
f 566/3/5 562/3/5 561/3/5
f 567/3/5 562/3/5 566/3/5
f 568/1/5 563/1/5 553/1/5
f 569/3/5 564/3/5 563/3/5
f 569/1/5 563/1/5 568/1/5
f 570/3/5 564/3/5 569/3/5
f 571/1/5 566/1/5 565/1/5
f 572/1/5 566/1/5 571/1/5
f 575/1/5 574/1/5 573/1/5
f 576/1/5 574/1/5 575/1/5
f 577/1/5 574/1/5 576/1/5
f 580/1/5 579/1/5 578/1/5
f 581/1/5 579/1/5 580/1/5
f 584/1/5 582/1/5 581/1/5
f 585/1/5 582/1/5 584/1/5
f 589/1/5 584/1/5 583/1/5
f 590/1/5 584/1/5 589/1/5
f 591/1/5 588/1/5 587/1/5
f 591/1/5 587/1/5 586/1/5
f 592/1/5 588/1/5 591/1/5
f 593/1/6 594/1/6 595/1/6
f 595/1/6 594/1/6 596/1/6
f 597/1/6 598/1/6 599/1/6
f 599/1/6 598/1/6 600/1/6
f 601/2/6 602/2/6 605/2/6
f 605/2/6 602/2/6 606/2/6
f 603/2/6 604/2/6 607/2/6
f 607/2/6 604/2/6 608/2/6
f 609/1/6 610/1/6 611/1/6
f 611/1/6 610/1/6 612/1/6
f 613/3/6 614/3/6 615/3/6
f 615/3/6 614/3/6 616/3/6
f 617/1/6 618/1/6 621/1/6
f 621/1/6 618/1/6 622/1/6
f 619/2/6 620/2/6 625/2/6
f 625/2/6 620/2/6 626/2/6
f 623/1/6 624/1/6 627/1/6
f 627/1/6 624/1/6 628/1/6
f 631/1/6 632/1/6 633/1/6
f 633/1/6 632/1/6 634/1/6
f 629/1/6 630/1/6 637/1/6
f 637/1/6 630/1/6 638/1/6
f 638/1/6 639/1/6 640/1/6
f 640/1/6 639/1/6 641/1/6
f 635/1/6 636/1/6 645/1/6
f 645/1/6 636/1/6 646/1/6
f 643/1/6 644/1/6 648/1/6
f 642/1/6 643/1/6 648/1/6
f 646/3/6 647/3/6 649/3/6
f 648/1/6 644/1/6 649/1/6
f 645/3/6 646/3/6 649/3/6
f 644/3/6 645/3/6 649/3/6
f 649/3/6 647/3/6 650/3/6
f 651/1/6 652/1/6 653/1/6
f 651/1/6 653/1/6 654/1/6
f 654/1/6 653/1/6 655/1/6
f 656/1/6 657/1/6 658/1/6
f 658/1/6 657/1/6 659/1/6
f 660/1/6 661/1/6 662/1/6
f 662/1/6 661/1/6 663/1/6
f 664/1/6 665/1/6 669/1/6
f 669/1/6 665/1/6 670/1/6
f 666/3/6 667/3/6 671/3/6
f 671/3/6 667/3/6 672/3/6
f 668/1/6 669/1/6 674/1/6
f 674/1/6 669/1/6 675/1/6
f 672/3/6 673/3/6 678/3/6
f 678/3/6 673/3/6 679/3/6
f 675/1/6 676/1/6 680/1/6
f 680/1/6 676/1/6 681/1/6
f 677/3/6 678/3/6 682/3/6
f 682/3/6 678/3/6 683/3/6
f 684/1/6 685/1/6 686/1/6
f 686/1/6 685/1/6 687/1/6
f 688/1/6 689/1/6 691/1/6
f 691/1/6 689/1/6 692/1/6
f 690/1/6 691/1/6 694/1/6
f 692/1/6 693/1/6 694/1/6
f 691/1/6 692/1/6 694/1/6
f 694/1/6 693/1/6 695/1/6
f 695/1/6 693/1/6 696/1/6
f 690/1/6 694/1/6 698/1/6
f 696/1/6 697/1/6 699/1/6
f 695/1/6 696/1/6 699/1/6
f 699/1/6 697/1/6 700/1/6
f 700/1/6 697/1/6 701/1/6
f 690/1/6 698/1/6 702/1/6
f 698/1/6 699/1/6 702/1/6
f 699/1/6 700/1/6 702/1/6
f 702/1/6 700/1/6 703/1/6
f 703/1/6 700/1/6 704/1/6
f 704/1/6 700/1/6 705/1/6
f 703/1/6 704/1/6 706/1/6
f 706/1/6 704/1/6 707/1/6
f 708/1/6 709/1/6 710/1/6
f 710/1/6 709/1/6 711/1/6
