# MagicaVoxel @ Ephtracy

# group
o 

# material
mtllib MarioSmallWalk1.mtl
usemtl palette

# normals
vn -1 0 0
vn 1 0 0
vn 0 0 1
vn 0 0 -1
vn 0 -1 0
vn 0 1 0

# texcoords
vt 0.908203 0.5
vt 0.974609 0.5
vt 0.978516 0.5
vt 0.982422 0.5

# verts
v -0.6 0.4 0.2
v -0.6 0.4 0
v -0.6 0.6 0.2
v -0.6 0.6 0
v -0.5 0.1 0.2
v -0.5 0.1 0
v -0.5 0.3 0.2
v -0.5 0.3 0
v -0.5 0.8 0.2
v -0.5 0.8 -0.2
v -0.5 0.9 0.2
v -0.5 0.9 0.1
v -0.5 0.9 -0.1
v -0.5 0.9 -0.2
v -0.5 1 0.1
v -0.5 1 -0.1
v -0.4 0 0.2
v -0.4 0 0
v -0.4 0.1 0.2
v -0.4 0.1 0
v -0.4 0.3 0.2
v -0.4 0.3 0
v -0.4 0.4 0.2
v -0.4 0.4 0
v -0.4 0.6 0.2
v -0.4 0.6 0
v -0.4 0.7 0.2
v -0.4 0.7 0
v -0.4 0.9 0.2
v -0.4 0.9 0.1
v -0.4 0.9 -0.1
v -0.4 0.9 -0.2
v -0.4 1 0.2
v -0.4 1 0.1
v -0.4 1 -0.1
v -0.4 1 -0.2
v -0.4 1.1 0.1
v -0.4 1.1 -0.1
v -0.3 0.4 0.1
v -0.3 0.4 0
v -0.3 0.4 -0.1
v -0.3 0.5 0.1
v -0.3 0.5 0
v -0.3 0.5 -0.1
v -0.3 0.7 0.1
v -0.3 0.7 0
v -0.3 0.7 -0.1
v -0.3 0.8 0.1
v -0.3 0.8 -0.1
v -0.3 1 0.2
v -0.3 1 0.1
v -0.3 1 -0.1
v -0.3 1 -0.2
v -0.3 1.1 0.1
v -0.3 1.1 -0.1
v -0.3 1.2 0.2
v -0.3 1.2 -0.2
v -0.2 0.3 0
v -0.2 0.3 -0.1
v -0.2 0.4 0
v -0.2 0.4 -0.1
v -0.2 0.5 0
v -0.2 0.5 -0.1
v -0.2 0.7 0.2
v -0.2 0.7 0.1
v -0.2 0.7 0
v -0.2 0.7 -0.1
v -0.2 0.7 -0.2
v -0.2 0.8 0.2
v -0.2 0.8 0.1
v -0.2 0.8 -0.1
v -0.2 0.8 -0.2
v -0.2 1.1 0.3
v -0.2 1.1 0.2
v -0.2 1.1 -0.2
v -0.2 1.1 -0.3
v -0.2 1.2 0.3
v -0.2 1.2 0.2
v -0.2 1.2 0.1
v -0.2 1.2 -0.1
v -0.2 1.2 -0.2
v -0.2 1.2 -0.3
v -0.2 1.3 0.1
v -0.2 1.3 -0.1
v -0.1 0.2 0
v -0.1 0.2 -0.1
v -0.1 0.3 0
v -0.1 0.3 -0.1
v 0.1 0.1 0
v 0.1 0.1 -0.2
v 0.1 0.2 0
v 0.1 0.2 -0.1
v 0.1 0.3 -0.1
v 0.1 0.3 -0.2
v 0.1 0.5 -0.1
v 0.1 0.5 -0.2
v 0.1 0.7 -0.1
v 0.1 0.7 -0.2
v 0.2 0.4 -0.1
v 0.2 0.4 -0.2
v 0.2 0.5 -0.1
v 0.2 0.5 -0.2
v 0.4 0.3 0
v 0.4 0.3 -0.2
v 0.4 0.4 0
v 0.4 0.4 -0.2
v -0.4 0.4 0.2
v -0.4 0.4 0
v -0.4 0.5 0.2
v -0.4 0.5 0
v -0.2 0.1 0.2
v -0.2 0.1 0
v -0.2 0.2 0.2
v -0.2 0.2 0
v -0.2 0.3 0.2
v -0.2 0.3 0.1
v -0.2 0.4 0.2
v -0.2 0.4 0.1
v -0.2 0.5 0.2
v -0.2 0.5 0.1
v -0.2 0.7 0.2
v -0.2 0.7 0.1
v -0.1 0 0.2
v -0.1 0 0
v -0.1 0.1 0.2
v -0.1 0.1 0
v -0.1 0.2 0.2
v -0.1 0.2 0.1
v -0.1 0.3 0.2
v -0.1 0.3 0.1
v 0.1 0.2 0.1
v 0.1 0.2 0
v 0.1 0.3 0.1
v 0.1 0.3 0
v 0.1 0.5 0.1
v 0.1 0.5 0
v 0.1 0.7 0.1
v 0.1 0.7 0
v 0.1 1.1 0.3
v 0.1 1.1 0.2
v 0.1 1.1 -0.2
v 0.1 1.1 -0.3
v 0.1 1.2 0.3
v 0.1 1.2 0.2
v 0.1 1.2 0.1
v 0.1 1.2 -0.1
v 0.1 1.2 -0.2
v 0.1 1.2 -0.3
v 0.1 1.3 0.1
v 0.1 1.3 -0.1
v 0.2 0.3 0.1
v 0.2 0.3 0
v 0.2 0.3 -0.1
v 0.2 0.4 0
v 0.2 0.4 -0.1
v 0.2 0.5 0.1
v 0.2 0.5 0
v 0.2 0.6 0
v 0.2 0.6 -0.2
v 0.2 0.7 0.2
v 0.2 0.7 0.1
v 0.2 0.7 0
v 0.2 0.7 -0.1
v 0.2 0.7 -0.2
v 0.2 0.8 0.2
v 0.2 0.8 0.1
v 0.2 0.8 -0.1
v 0.2 0.8 -0.2
v 0.2 1 0.2
v 0.2 1 0.1
v 0.2 1 -0.1
v 0.2 1 -0.2
v 0.2 1.1 0.2
v 0.2 1.1 0.1
v 0.2 1.1 -0.1
v 0.2 1.1 -0.2
v 0.3 0.7 0.1
v 0.3 0.7 -0.1
v 0.3 0.8 0.2
v 0.3 0.8 0.1
v 0.3 0.8 -0.1
v 0.3 0.8 -0.2
v 0.3 0.9 0.2
v 0.3 0.9 0.1
v 0.3 0.9 -0.1
v 0.3 0.9 -0.2
v 0.3 1 0.2
v 0.3 1 0.1
v 0.3 1 -0.1
v 0.3 1 -0.2
v 0.3 1.1 0.2
v 0.3 1.1 0.1
v 0.3 1.1 -0.1
v 0.3 1.1 -0.2
v 0.3 1.2 0.2
v 0.3 1.2 0.1
v 0.3 1.2 -0.1
v 0.3 1.2 -0.2
v 0.4 0.8 0.1
v 0.4 0.8 -0.1
v 0.4 1 0.1
v 0.4 1 -0.1
v 0.4 1.1 0.1
v 0.4 1.1 -0.1
v 0.4 1.2 0.1
v 0.4 1.2 -0.1
v 0.5 0.1 0
v 0.5 0.1 -0.2
v 0.5 0.4 0
v 0.5 0.4 -0.2
v 0.6 0.4 0
v 0.6 0.4 -0.2
v 0.6 0.6 0
v 0.6 0.6 -0.2
v -0.2 1.1 0.3
v -0.2 1.2 0.3
v 0.1 1.1 0.3
v 0.1 1.2 0.3
v -0.6 0.4 0.2
v -0.6 0.6 0.2
v -0.5 0.1 0.2
v -0.5 0.3 0.2
v -0.5 0.8 0.2
v -0.5 0.9 0.2
v -0.4 0 0.2
v -0.4 0.1 0.2
v -0.4 0.2 0.2
v -0.4 0.3 0.2
v -0.4 0.4 0.2
v -0.4 0.5 0.2
v -0.4 0.6 0.2
v -0.4 0.7 0.2
v -0.4 0.9 0.2
v -0.4 1 0.2
v -0.3 0.1 0.2
v -0.3 0.2 0.2
v -0.3 0.8 0.2
v -0.3 1 0.2
v -0.3 1.2 0.2
v -0.2 0.1 0.2
v -0.2 0.2 0.2
v -0.2 0.3 0.2
v -0.2 0.4 0.2
v -0.2 0.5 0.2
v -0.2 0.7 0.2
v -0.2 0.8 0.2
v -0.2 0.9 0.2
v -0.2 1 0.2
v -0.2 1.1 0.2
v -0.2 1.2 0.2
v -0.1 0 0.2
v -0.1 0.1 0.2
v -0.1 0.2 0.2
v -0.1 0.3 0.2
v -0.1 1 0.2
v -0.1 1.1 0.2
v 0 0.9 0.2
v 0 1 0.2
v 0.1 0.8 0.2
v 0.1 0.9 0.2
v 0.1 1 0.2
v 0.1 1.1 0.2
v 0.1 1.2 0.2
v 0.2 0.7 0.2
v 0.2 0.8 0.2
v 0.2 1 0.2
v 0.2 1.1 0.2
v 0.3 0.8 0.2
v 0.3 0.9 0.2
v 0.3 1 0.2
v 0.3 1.1 0.2
v 0.3 1.2 0.2
v -0.5 0.9 0.1
v -0.5 1 0.1
v -0.4 0.9 0.1
v -0.4 1 0.1
v -0.4 1.1 0.1
v -0.3 0.4 0.1
v -0.3 0.5 0.1
v -0.3 0.7 0.1
v -0.3 0.8 0.1
v -0.3 1 0.1
v -0.3 1.1 0.1
v -0.2 0.3 0.1
v -0.2 0.4 0.1
v -0.2 0.5 0.1
v -0.2 0.7 0.1
v -0.2 0.8 0.1
v -0.2 1.2 0.1
v -0.2 1.3 0.1
v -0.1 0.2 0.1
v -0.1 0.3 0.1
v 0 0.4 0.1
v 0 0.5 0.1
v 0 0.7 0.1
v 0.1 0.2 0.1
v 0.1 0.3 0.1
v 0.1 0.4 0.1
v 0.1 0.5 0.1
v 0.1 0.7 0.1
v 0.1 1.2 0.1
v 0.1 1.3 0.1
v 0.2 0.3 0.1
v 0.2 0.5 0.1
v 0.2 0.7 0.1
v 0.2 0.8 0.1
v 0.2 1 0.1
v 0.2 1.1 0.1
v 0.3 0.7 0.1
v 0.3 0.8 0.1
v 0.3 0.9 0.1
v 0.3 1 0.1
v 0.3 1.1 0.1
v 0.3 1.2 0.1
v 0.4 0.8 0.1
v 0.4 1 0.1
v 0.4 1.1 0.1
v 0.4 1.2 0.1
v 0.1 0.1 0
v 0.1 0.2 0
v 0.1 0.3 0
v 0.1 0.5 0
v 0.1 0.7 0
v 0.2 0.3 0
v 0.2 0.4 0
v 0.2 0.5 0
v 0.2 0.6 0
v 0.2 0.7 0
v 0.3 0.1 0
v 0.3 0.3 0
v 0.3 0.5 0
v 0.3 0.6 0
v 0.4 0.3 0
v 0.4 0.4 0
v 0.4 0.5 0
v 0.5 0.1 0
v 0.5 0.4 0
v 0.6 0.4 0
v 0.6 0.6 0
v -0.6 0.4 0
v -0.6 0.6 0
v -0.5 0.1 0
v -0.5 0.3 0
v -0.4 0 0
v -0.4 0.1 0
v -0.4 0.2 0
v -0.4 0.3 0
v -0.4 0.4 0
v -0.4 0.5 0
v -0.4 0.6 0
v -0.4 0.7 0
v -0.3 0.1 0
v -0.3 0.2 0
v -0.3 0.4 0
v -0.3 0.5 0
v -0.3 0.7 0
v -0.2 0.1 0
v -0.2 0.2 0
v -0.2 0.3 0
v -0.2 0.4 0
v -0.2 0.5 0
v -0.2 0.7 0
v -0.1 0 0
v -0.1 0.1 0
v -0.1 0.2 0
v -0.1 0.3 0
v -0.5 0.9 -0.1
v -0.5 1 -0.1
v -0.4 0.9 -0.1
v -0.4 1 -0.1
v -0.4 1.1 -0.1
v -0.3 0.4 -0.1
v -0.3 0.5 -0.1
v -0.3 0.7 -0.1
v -0.3 0.8 -0.1
v -0.3 1 -0.1
v -0.3 1.1 -0.1
v -0.2 0.3 -0.1
v -0.2 0.4 -0.1
v -0.2 0.5 -0.1
v -0.2 0.7 -0.1
v -0.2 0.8 -0.1
v -0.2 1.2 -0.1
v -0.2 1.3 -0.1
v -0.1 0.2 -0.1
v -0.1 0.3 -0.1
v 0 0.4 -0.1
v 0 0.7 -0.1
v 0.1 0.2 -0.1
v 0.1 0.3 -0.1
v 0.1 0.5 -0.1
v 0.1 0.7 -0.1
v 0.1 1.2 -0.1
v 0.1 1.3 -0.1
v 0.2 0.3 -0.1
v 0.2 0.4 -0.1
v 0.2 0.5 -0.1
v 0.2 0.7 -0.1
v 0.2 0.8 -0.1
v 0.2 1 -0.1
v 0.2 1.1 -0.1
v 0.3 0.7 -0.1
v 0.3 0.8 -0.1
v 0.3 0.9 -0.1
v 0.3 1 -0.1
v 0.3 1.1 -0.1
v 0.3 1.2 -0.1
v 0.4 0.8 -0.1
v 0.4 1 -0.1
v 0.4 1.1 -0.1
v 0.4 1.2 -0.1
v -0.5 0.8 -0.2
v -0.5 0.9 -0.2
v -0.4 0.9 -0.2
v -0.4 1 -0.2
v -0.3 0.8 -0.2
v -0.3 1 -0.2
v -0.3 1.2 -0.2
v -0.2 0.7 -0.2
v -0.2 0.8 -0.2
v -0.2 0.9 -0.2
v -0.2 1 -0.2
v -0.2 1.1 -0.2
v -0.2 1.2 -0.2
v -0.1 1 -0.2
v -0.1 1.1 -0.2
v 0 0.9 -0.2
v 0 1 -0.2
v 0.1 0.1 -0.2
v 0.1 0.3 -0.2
v 0.1 0.5 -0.2
v 0.1 0.7 -0.2
v 0.1 0.8 -0.2
v 0.1 0.9 -0.2
v 0.1 1 -0.2
v 0.1 1.1 -0.2
v 0.1 1.2 -0.2
v 0.2 0.4 -0.2
v 0.2 0.5 -0.2
v 0.2 0.6 -0.2
v 0.2 0.7 -0.2
v 0.2 0.8 -0.2
v 0.2 1 -0.2
v 0.2 1.1 -0.2
v 0.3 0.1 -0.2
v 0.3 0.3 -0.2
v 0.3 0.5 -0.2
v 0.3 0.6 -0.2
v 0.3 0.8 -0.2
v 0.3 0.9 -0.2
v 0.3 1 -0.2
v 0.3 1.1 -0.2
v 0.3 1.2 -0.2
v 0.4 0.3 -0.2
v 0.4 0.4 -0.2
v 0.4 0.5 -0.2
v 0.5 0.1 -0.2
v 0.5 0.4 -0.2
v 0.6 0.4 -0.2
v 0.6 0.6 -0.2
v -0.2 1.1 -0.3
v -0.2 1.2 -0.3
v 0.1 1.1 -0.3
v 0.1 1.2 -0.3
v -0.4 0 0.2
v -0.1 0 0.2
v -0.4 0 0
v -0.1 0 0
v -0.5 0.1 0.2
v -0.4 0.1 0.2
v -0.5 0.1 0
v -0.4 0.1 0
v 0.1 0.1 0
v 0.3 0.1 0
v 0.5 0.1 0
v 0.1 0.1 -0.2
v 0.3 0.1 -0.2
v 0.5 0.1 -0.2
v -0.2 0.2 0.2
v -0.1 0.2 0.2
v -0.1 0.2 0.1
v 0.1 0.2 0.1
v -0.2 0.2 0
v -0.1 0.2 0
v 0.1 0.2 0
v -0.1 0.2 -0.1
v 0.1 0.2 -0.1
v 0.1 0.3 0.1
v 0.2 0.3 0.1
v -0.2 0.3 0
v -0.1 0.3 0
v 0.1 0.3 0
v 0.2 0.3 0
v -0.2 0.3 -0.1
v -0.1 0.3 -0.1
v -0.6 0.4 0.2
v -0.4 0.4 0.2
v -0.6 0.4 0
v -0.4 0.4 0
v -0.3 0.4 0
v -0.2 0.4 0
v 0.2 0.4 0
v 0.4 0.4 0
v 0.5 0.4 0
v 0.6 0.4 0
v -0.3 0.4 -0.1
v -0.2 0.4 -0.1
v 0.2 0.4 -0.1
v 0.2 0.4 -0.2
v 0.4 0.4 -0.2
v 0.5 0.4 -0.2
v 0.6 0.4 -0.2
v -0.4 0.5 0.2
v -0.2 0.5 0.2
v -0.3 0.5 0.1
v -0.2 0.5 0.1
v -0.4 0.5 0
v -0.3 0.5 0
v 0.1 0.5 -0.1
v 0.2 0.5 -0.1
v 0.1 0.5 -0.2
v 0.2 0.5 -0.2
v -0.2 0.7 0.2
v 0.2 0.7 0.2
v -0.2 0.7 0.1
v 0 0.7 0.1
v 0.1 0.7 0.1
v 0.2 0.7 0.1
v 0.3 0.7 0.1
v -0.3 0.7 0
v -0.2 0.7 0
v 0.1 0.7 0
v 0.2 0.7 0
v -0.3 0.7 -0.1
v -0.2 0.7 -0.1
v 0 0.7 -0.1
v 0.1 0.7 -0.1
v 0.2 0.7 -0.1
v 0.3 0.7 -0.1
v -0.2 0.7 -0.2
v 0.1 0.7 -0.2
v -0.5 0.8 0.2
v -0.3 0.8 0.2
v -0.2 0.8 0.2
v 0.2 0.8 0.2
v 0.3 0.8 0.2
v -0.3 0.8 0.1
v -0.2 0.8 0.1
v 0.2 0.8 0.1
v 0.3 0.8 0.1
v 0.4 0.8 0.1
v -0.3 0.8 -0.1
v -0.2 0.8 -0.1
v 0.2 0.8 -0.1
v 0.3 0.8 -0.1
v 0.4 0.8 -0.1
v -0.5 0.8 -0.2
v -0.3 0.8 -0.2
v -0.2 0.8 -0.2
v 0.2 0.8 -0.2
v 0.3 0.8 -0.2
v -0.2 1.1 0.3
v 0.1 1.1 0.3
v -0.2 1.1 0.2
v -0.1 1.1 0.2
v 0.1 1.1 0.2
v 0.2 1.1 0.2
v 0.3 1.1 0.2
v 0.2 1.1 0.1
v 0.3 1.1 0.1
v 0.4 1.1 0.1
v 0.2 1.1 -0.1
v 0.3 1.1 -0.1
v 0.4 1.1 -0.1
v -0.2 1.1 -0.2
v -0.1 1.1 -0.2
v 0.1 1.1 -0.2
v 0.2 1.1 -0.2
v 0.3 1.1 -0.2
v -0.2 1.1 -0.3
v 0.1 1.1 -0.3
v -0.2 0.1 0.2
v -0.1 0.1 0.2
v -0.2 0.1 0
v -0.1 0.1 0
v -0.5 0.3 0.2
v -0.4 0.3 0.2
v -0.2 0.3 0.2
v -0.1 0.3 0.2
v -0.2 0.3 0.1
v -0.1 0.3 0.1
v -0.5 0.3 0
v -0.4 0.3 0
v 0.2 0.3 0
v 0.3 0.3 0
v 0.4 0.3 0
v 0.1 0.3 -0.1
v 0.2 0.3 -0.1
v 0.1 0.3 -0.2
v 0.3 0.3 -0.2
v 0.4 0.3 -0.2
v -0.4 0.4 0.2
v -0.2 0.4 0.2
v -0.3 0.4 0.1
v -0.2 0.4 0.1
v -0.4 0.4 0
v -0.3 0.4 0
v 0.1 0.5 0.1
v 0.2 0.5 0.1
v -0.3 0.5 0
v -0.2 0.5 0
v 0.1 0.5 0
v 0.2 0.5 0
v -0.3 0.5 -0.1
v -0.2 0.5 -0.1
v -0.6 0.6 0.2
v -0.4 0.6 0.2
v -0.6 0.6 0
v -0.4 0.6 0
v 0.2 0.6 0
v 0.3 0.6 0
v 0.6 0.6 0
v 0.2 0.6 -0.2
v 0.3 0.6 -0.2
v 0.6 0.6 -0.2
v -0.4 0.7 0.2
v -0.2 0.7 0.2
v -0.3 0.7 0.1
v -0.2 0.7 0.1
v -0.4 0.7 0
v -0.3 0.7 0
v -0.5 0.9 0.2
v -0.4 0.9 0.2
v -0.5 0.9 0.1
v -0.4 0.9 0.1
v -0.5 0.9 -0.1
v -0.4 0.9 -0.1
v -0.5 0.9 -0.2
v -0.4 0.9 -0.2
v -0.4 1 0.2
v -0.3 1 0.2
v 0.2 1 0.2
v 0.3 1 0.2
v -0.5 1 0.1
v -0.4 1 0.1
v -0.3 1 0.1
v 0.2 1 0.1
v 0.3 1 0.1
v 0.4 1 0.1
v -0.5 1 -0.1
v -0.4 1 -0.1
v -0.3 1 -0.1
v 0.2 1 -0.1
v 0.3 1 -0.1
v 0.4 1 -0.1
v -0.4 1 -0.2
v -0.3 1 -0.2
v 0.2 1 -0.2
v 0.3 1 -0.2
v -0.4 1.1 0.1
v -0.3 1.1 0.1
v -0.4 1.1 -0.1
v -0.3 1.1 -0.1
v -0.2 1.2 0.3
v 0.1 1.2 0.3
v -0.3 1.2 0.2
v -0.2 1.2 0.2
v 0.1 1.2 0.2
v 0.3 1.2 0.2
v -0.2 1.2 0.1
v 0.1 1.2 0.1
v 0.3 1.2 0.1
v 0.4 1.2 0.1
v -0.2 1.2 -0.1
v 0.1 1.2 -0.1
v 0.3 1.2 -0.1
v 0.4 1.2 -0.1
v -0.3 1.2 -0.2
v -0.2 1.2 -0.2
v 0.1 1.2 -0.2
v 0.3 1.2 -0.2
v -0.2 1.2 -0.3
v 0.1 1.2 -0.3
v -0.2 1.3 0.1
v 0.1 1.3 0.1
v -0.2 1.3 -0.1
v 0.1 1.3 -0.1

# faces
f 3/3/1 2/3/1 1/3/1
f 4/3/1 2/3/1 3/3/1
f 7/1/1 6/1/1 5/1/1
f 8/1/1 6/1/1 7/1/1
f 11/1/1 10/1/1 9/1/1
f 12/1/1 10/1/1 11/1/1
f 13/1/1 10/1/1 12/1/1
f 14/1/1 10/1/1 13/1/1
f 15/1/1 13/1/1 12/1/1
f 16/1/1 13/1/1 15/1/1
f 19/1/1 18/1/1 17/1/1
f 20/1/1 18/1/1 19/1/1
f 23/2/1 22/2/1 21/2/1
f 24/2/1 22/2/1 23/2/1
f 27/1/1 26/1/1 25/1/1
f 28/1/1 26/1/1 27/1/1
f 33/1/1 30/1/1 29/1/1
f 34/1/1 30/1/1 33/1/1
f 35/1/1 32/1/1 31/1/1
f 36/1/1 32/1/1 35/1/1
f 37/1/1 35/1/1 34/1/1
f 38/1/1 35/1/1 37/1/1
f 42/1/1 40/1/1 39/1/1
f 42/1/1 41/1/1 40/1/1
f 43/1/1 41/1/1 42/1/1
f 44/1/1 41/1/1 43/1/1
f 48/3/1 46/3/1 45/3/1
f 48/3/1 47/3/1 46/3/1
f 49/3/1 47/3/1 48/3/1
f 54/1/1 51/1/1 50/1/1
f 55/1/1 53/1/1 52/1/1
f 56/1/1 54/1/1 50/1/1
f 56/1/1 55/1/1 54/1/1
f 57/1/1 53/1/1 55/1/1
f 57/1/1 55/1/1 56/1/1
f 60/2/1 59/2/1 58/2/1
f 61/2/1 59/2/1 60/2/1
f 66/1/1 63/1/1 62/1/1
f 67/1/1 63/1/1 66/1/1
f 69/3/1 65/3/1 64/3/1
f 70/3/1 65/3/1 69/3/1
f 71/3/1 68/3/1 67/3/1
f 72/3/1 68/3/1 71/3/1
f 77/1/1 74/1/1 73/1/1
f 78/1/1 74/1/1 77/1/1
f 81/1/1 76/1/1 75/1/1
f 82/1/1 76/1/1 81/1/1
f 83/1/1 80/1/1 79/1/1
f 84/1/1 80/1/1 83/1/1
f 87/2/1 86/2/1 85/2/1
f 88/2/1 86/2/1 87/2/1
f 91/2/1 90/2/1 89/2/1
f 92/2/1 90/2/1 91/2/1
f 93/2/1 90/2/1 92/2/1
f 94/2/1 90/2/1 93/2/1
f 97/1/1 96/1/1 95/1/1
f 98/1/1 96/1/1 97/1/1
f 101/1/1 100/1/1 99/1/1
f 102/1/1 100/1/1 101/1/1
f 105/1/1 104/1/1 103/1/1
f 106/1/1 104/1/1 105/1/1
f 107/3/2 108/3/2 109/3/2
f 109/3/2 108/3/2 110/3/2
f 111/2/2 112/2/2 113/2/2
f 113/2/2 112/2/2 114/2/2
f 115/2/2 116/2/2 117/2/2
f 117/2/2 116/2/2 118/2/2
f 119/1/2 120/1/2 121/1/2
f 121/1/2 120/1/2 122/1/2
f 123/1/2 124/1/2 125/1/2
f 125/1/2 124/1/2 126/1/2
f 127/2/2 128/2/2 129/2/2
f 129/2/2 128/2/2 130/2/2
f 131/2/2 132/2/2 133/2/2
f 133/2/2 132/2/2 134/2/2
f 135/2/2 136/2/2 137/2/2
f 137/2/2 136/2/2 138/2/2
f 139/1/2 140/1/2 143/1/2
f 143/1/2 140/1/2 144/1/2
f 141/1/2 142/1/2 147/1/2
f 147/1/2 142/1/2 148/1/2
f 145/1/2 146/1/2 149/1/2
f 149/1/2 146/1/2 150/1/2
f 151/2/2 152/2/2 154/2/2
f 152/2/2 153/2/2 154/2/2
f 154/2/2 153/2/2 155/2/2
f 151/2/2 154/2/2 156/2/2
f 156/2/2 154/2/2 157/2/2
f 158/1/2 159/1/2 162/1/2
f 162/1/2 159/1/2 163/1/2
f 163/1/2 159/1/2 164/1/2
f 160/3/2 161/3/2 165/3/2
f 165/3/2 161/3/2 166/3/2
f 163/3/2 164/3/2 167/3/2
f 167/3/2 164/3/2 168/3/2
f 169/1/2 170/1/2 173/1/2
f 173/1/2 170/1/2 174/1/2
f 171/1/2 172/1/2 175/1/2
f 175/1/2 172/1/2 176/1/2
f 177/3/2 178/3/2 180/3/2
f 180/3/2 178/3/2 181/3/2
f 179/1/2 180/1/2 183/1/2
f 183/1/2 180/1/2 184/1/2
f 181/1/2 182/1/2 185/1/2
f 185/1/2 182/1/2 186/1/2
f 183/3/2 184/3/2 187/3/2
f 187/3/2 184/3/2 188/3/2
f 185/3/2 186/3/2 189/3/2
f 189/3/2 186/3/2 190/3/2
f 188/3/2 189/3/2 192/3/2
f 192/3/2 189/3/2 193/3/2
f 191/1/2 192/1/2 195/1/2
f 195/1/2 192/1/2 196/1/2
f 193/1/2 194/1/2 197/1/2
f 197/1/2 194/1/2 198/1/2
f 199/3/2 200/3/2 201/3/2
f 201/3/2 200/3/2 202/3/2
f 203/1/2 204/1/2 205/1/2
f 205/1/2 204/1/2 206/1/2
f 207/1/2 208/1/2 209/1/2
f 209/1/2 208/1/2 210/1/2
f 211/3/2 212/3/2 213/3/2
f 213/3/2 212/3/2 214/3/2
f 217/1/3 216/1/3 215/1/3
f 218/1/3 216/1/3 217/1/3
f 226/1/3 222/1/3 221/1/3
f 227/1/3 222/1/3 226/1/3
f 228/1/3 222/1/3 227/1/3
f 229/3/3 220/3/3 219/3/3
f 230/3/3 220/3/3 229/3/3
f 231/3/3 220/3/3 230/3/3
f 233/1/3 224/1/3 223/1/3
f 235/1/3 226/1/3 225/1/3
f 235/1/3 227/1/3 226/1/3
f 236/2/3 228/2/3 227/2/3
f 236/1/3 227/1/3 235/1/3
f 236/2/3 229/2/3 228/2/3
f 237/1/3 234/1/3 233/1/3
f 237/1/3 233/1/3 223/1/3
f 238/1/3 234/1/3 237/1/3
f 240/1/3 235/1/3 225/1/3
f 240/2/3 236/2/3 235/2/3
f 241/2/3 229/2/3 236/2/3
f 241/2/3 236/2/3 240/2/3
f 242/2/3 229/2/3 241/2/3
f 243/2/3 229/2/3 242/2/3
f 244/1/3 232/1/3 231/1/3
f 244/1/3 231/1/3 230/1/3
f 245/1/3 232/1/3 244/1/3
f 246/3/3 238/3/3 237/3/3
f 247/3/3 238/3/3 246/3/3
f 248/1/3 239/1/3 238/1/3
f 248/3/3 238/3/3 247/3/3
f 249/1/3 239/1/3 248/1/3
f 250/1/3 239/1/3 249/1/3
f 251/1/3 240/1/3 225/1/3
f 252/1/3 240/1/3 251/1/3
f 253/2/3 242/2/3 241/2/3
f 254/2/3 242/2/3 253/2/3
f 255/1/3 249/1/3 248/1/3
f 255/1/3 248/1/3 247/1/3
f 256/1/3 249/1/3 255/1/3
f 257/3/3 247/3/3 246/3/3
f 257/1/3 255/1/3 247/1/3
f 257/3/3 246/3/3 245/3/3
f 258/3/3 256/3/3 255/3/3
f 258/1/3 255/1/3 257/1/3
f 259/3/3 257/3/3 245/3/3
f 259/3/3 258/3/3 257/3/3
f 260/3/3 258/3/3 259/3/3
f 261/3/3 256/3/3 258/3/3
f 261/3/3 258/3/3 260/3/3
f 262/3/3 256/3/3 261/3/3
f 264/3/3 259/3/3 245/3/3
f 265/1/3 260/1/3 259/1/3
f 265/3/3 259/3/3 264/3/3
f 266/1/3 262/1/3 261/1/3
f 266/1/3 263/1/3 262/1/3
f 266/3/3 261/3/3 260/3/3
f 267/1/3 263/1/3 266/1/3
f 268/1/3 260/1/3 265/1/3
f 269/3/3 266/3/3 260/3/3
f 269/1/3 260/1/3 268/1/3
f 270/3/3 266/3/3 269/3/3
f 271/1/3 263/1/3 267/1/3
f 272/1/3 263/1/3 271/1/3
f 275/1/3 274/1/3 273/1/3
f 276/1/3 274/1/3 275/1/3
f 282/1/3 277/1/3 276/1/3
f 283/1/3 277/1/3 282/1/3
f 285/1/3 279/1/3 278/1/3
f 286/1/3 279/1/3 285/1/3
f 287/3/3 281/3/3 280/3/3
f 288/3/3 281/3/3 287/3/3
f 292/2/3 285/2/3 284/2/3
f 293/1/3 286/1/3 285/1/3
f 293/2/3 292/2/3 291/2/3
f 293/2/3 285/2/3 292/2/3
f 293/1/3 287/1/3 286/1/3
f 294/1/3 287/1/3 293/1/3
f 295/1/3 287/1/3 294/1/3
f 296/2/3 293/2/3 291/2/3
f 297/2/3 293/2/3 296/2/3
f 298/4/3 294/4/3 293/4/3
f 298/2/3 293/2/3 297/2/3
f 299/2/3 295/2/3 294/2/3
f 299/4/3 294/4/3 298/4/3
f 300/2/3 295/2/3 299/2/3
f 301/1/3 290/1/3 289/1/3
f 302/1/3 290/1/3 301/1/3
f 303/2/3 299/2/3 298/2/3
f 303/2/3 298/2/3 297/2/3
f 304/2/3 299/2/3 303/2/3
f 309/3/3 306/3/3 305/3/3
f 310/3/3 306/3/3 309/3/3
f 312/3/3 308/3/3 307/3/3
f 313/3/3 308/3/3 312/3/3
f 315/3/3 311/3/3 310/3/3
f 315/3/3 312/3/3 311/3/3
f 316/3/3 312/3/3 315/3/3
f 317/1/3 314/1/3 313/1/3
f 318/1/3 314/1/3 317/1/3
f 324/2/3 320/2/3 319/2/3
f 324/2/3 321/2/3 320/2/3
f 326/1/3 323/1/3 322/1/3
f 327/1/3 323/1/3 326/1/3
f 328/1/3 323/1/3 327/1/3
f 329/2/3 324/2/3 319/2/3
f 330/2/3 324/2/3 329/2/3
f 331/1/3 326/1/3 325/1/3
f 331/1/3 327/1/3 326/1/3
f 332/1/3 327/1/3 331/1/3
f 333/1/3 330/1/3 329/1/3
f 334/1/3 331/1/3 325/1/3
f 335/3/3 332/3/3 331/3/3
f 335/1/3 331/1/3 334/1/3
f 336/1/3 333/1/3 329/1/3
f 336/1/3 334/1/3 333/1/3
f 337/3/3 335/3/3 334/3/3
f 337/1/3 334/1/3 336/1/3
f 338/3/3 335/3/3 337/3/3
f 339/3/3 332/3/3 335/3/3
f 339/3/3 335/3/3 338/3/3
f 342/1/4 343/1/4 345/1/4
f 345/1/4 343/1/4 346/1/4
f 346/1/4 343/1/4 347/1/4
f 340/3/4 341/3/4 348/3/4
f 348/3/4 341/3/4 349/3/4
f 349/3/4 341/3/4 350/3/4
f 344/1/4 345/1/4 352/1/4
f 345/1/4 346/1/4 352/1/4
f 346/2/4 347/2/4 353/2/4
f 352/1/4 346/1/4 353/1/4
f 347/2/4 348/2/4 353/2/4
f 353/2/4 348/2/4 354/2/4
f 350/1/4 351/1/4 355/1/4
f 349/1/4 350/1/4 355/1/4
f 355/1/4 351/1/4 356/1/4
f 344/1/4 352/1/4 357/1/4
f 353/2/4 354/2/4 357/2/4
f 352/2/4 353/2/4 357/2/4
f 357/2/4 354/2/4 358/2/4
f 358/2/4 354/2/4 359/2/4
f 359/2/4 354/2/4 360/2/4
f 355/1/4 356/1/4 361/1/4
f 361/1/4 356/1/4 362/1/4
f 344/1/4 357/1/4 363/1/4
f 363/1/4 357/1/4 364/1/4
f 358/2/4 359/2/4 365/2/4
f 365/2/4 359/2/4 366/2/4
f 367/1/4 368/1/4 369/1/4
f 369/1/4 368/1/4 370/1/4
f 370/1/4 371/1/4 376/1/4
f 376/1/4 371/1/4 377/1/4
f 372/1/4 373/1/4 379/1/4
f 379/1/4 373/1/4 380/1/4
f 374/3/4 375/3/4 381/3/4
f 381/3/4 375/3/4 382/3/4
f 378/2/4 379/2/4 386/2/4
f 379/1/4 380/1/4 387/1/4
f 385/2/4 386/2/4 387/2/4
f 386/2/4 379/2/4 387/2/4
f 380/1/4 381/1/4 387/1/4
f 387/1/4 381/1/4 388/1/4
f 385/2/4 387/2/4 389/2/4
f 387/2/4 388/2/4 389/2/4
f 389/2/4 388/2/4 390/2/4
f 390/2/4 388/2/4 391/2/4
f 391/2/4 388/2/4 392/2/4
f 383/1/4 384/1/4 393/1/4
f 393/1/4 384/1/4 394/1/4
f 390/2/4 391/2/4 395/2/4
f 395/2/4 391/2/4 396/2/4
f 396/2/4 391/2/4 397/2/4
f 398/3/4 399/3/4 402/3/4
f 402/3/4 399/3/4 403/3/4
f 400/3/4 401/3/4 405/3/4
f 405/3/4 401/3/4 406/3/4
f 403/3/4 404/3/4 408/3/4
f 404/3/4 405/3/4 408/3/4
f 408/3/4 405/3/4 409/3/4
f 406/1/4 407/1/4 410/1/4
f 410/1/4 407/1/4 411/1/4
f 412/1/4 413/1/4 414/1/4
f 412/1/4 414/1/4 416/1/4
f 414/1/4 415/1/4 416/1/4
f 416/1/4 415/1/4 417/1/4
f 416/3/4 417/3/4 420/3/4
f 420/3/4 417/3/4 421/3/4
f 417/1/4 418/1/4 422/1/4
f 421/3/4 417/3/4 422/3/4
f 422/1/4 418/1/4 423/1/4
f 423/1/4 418/1/4 424/1/4
f 421/1/4 422/1/4 425/1/4
f 422/1/4 423/1/4 425/1/4
f 425/1/4 423/1/4 426/1/4
f 420/3/4 421/3/4 427/3/4
f 419/3/4 420/3/4 427/3/4
f 421/1/4 425/1/4 427/1/4
f 425/3/4 426/3/4 428/3/4
f 427/1/4 425/1/4 428/1/4
f 419/3/4 427/3/4 432/3/4
f 427/3/4 428/3/4 432/3/4
f 432/3/4 428/3/4 433/3/4
f 433/3/4 428/3/4 434/3/4
f 428/3/4 426/3/4 435/3/4
f 434/3/4 428/3/4 435/3/4
f 435/3/4 426/3/4 436/3/4
f 431/1/4 432/1/4 439/1/4
f 439/1/4 432/1/4 440/1/4
f 432/3/4 433/3/4 441/3/4
f 440/1/4 432/1/4 441/1/4
f 433/1/4 434/1/4 442/1/4
f 441/3/4 433/3/4 442/3/4
f 435/1/4 436/1/4 443/1/4
f 436/1/4 437/1/4 443/1/4
f 434/3/4 435/3/4 443/3/4
f 443/1/4 437/1/4 444/1/4
f 429/2/4 430/2/4 445/2/4
f 445/2/4 430/2/4 446/2/4
f 439/1/4 440/1/4 447/1/4
f 438/1/4 439/1/4 447/1/4
f 447/1/4 440/1/4 448/1/4
f 442/1/4 434/1/4 449/1/4
f 434/3/4 443/3/4 450/3/4
f 449/1/4 434/1/4 450/1/4
f 450/3/4 443/3/4 451/3/4
f 444/1/4 437/1/4 452/1/4
f 452/1/4 437/1/4 453/1/4
f 445/1/4 446/1/4 454/1/4
f 438/1/4 447/1/4 455/1/4
f 447/3/4 448/3/4 456/3/4
f 455/1/4 447/1/4 456/1/4
f 454/1/4 455/1/4 457/1/4
f 445/1/4 454/1/4 457/1/4
f 455/3/4 456/3/4 458/3/4
f 457/1/4 455/1/4 458/1/4
f 458/3/4 456/3/4 459/3/4
f 456/3/4 448/3/4 460/3/4
f 459/3/4 456/3/4 460/3/4
f 461/1/4 462/1/4 463/1/4
f 463/1/4 462/1/4 464/1/4
f 467/1/5 466/1/5 465/1/5
f 468/1/5 466/1/5 467/1/5
f 471/1/5 470/1/5 469/1/5
f 472/1/5 470/1/5 471/1/5
f 476/2/5 474/2/5 473/2/5
f 477/1/5 475/1/5 474/1/5
f 477/2/5 474/2/5 476/2/5
f 478/1/5 475/1/5 477/1/5
f 481/2/5 480/2/5 479/2/5
f 483/2/5 481/2/5 479/2/5
f 483/2/5 482/2/5 481/2/5
f 484/2/5 482/2/5 483/2/5
f 485/2/5 482/2/5 484/2/5
f 486/2/5 485/2/5 484/2/5
f 487/2/5 485/2/5 486/2/5
f 492/2/5 489/2/5 488/2/5
f 493/2/5 489/2/5 492/2/5
f 494/2/5 491/2/5 490/2/5
f 495/2/5 491/2/5 494/2/5
f 498/3/5 497/3/5 496/3/5
f 499/3/5 497/3/5 498/3/5
f 506/1/5 501/1/5 500/1/5
f 507/1/5 501/1/5 506/1/5
f 508/1/5 503/1/5 502/1/5
f 509/1/5 503/1/5 508/1/5
f 510/1/5 503/1/5 509/1/5
f 511/3/5 505/3/5 504/3/5
f 512/3/5 505/3/5 511/3/5
f 515/1/5 514/1/5 513/1/5
f 516/1/5 514/1/5 515/1/5
f 517/1/5 515/1/5 513/1/5
f 518/1/5 515/1/5 517/1/5
f 521/1/5 520/1/5 519/1/5
f 522/1/5 520/1/5 521/1/5
f 525/3/5 524/3/5 523/3/5
f 526/3/5 524/3/5 525/3/5
f 527/3/5 524/3/5 526/3/5
f 528/3/5 524/3/5 527/3/5
f 532/3/5 529/3/5 528/3/5
f 532/3/5 528/3/5 527/3/5
f 533/3/5 529/3/5 532/3/5
f 534/3/5 531/3/5 530/3/5
f 535/3/5 531/3/5 534/3/5
f 538/3/5 529/3/5 533/3/5
f 539/3/5 529/3/5 538/3/5
f 540/3/5 537/3/5 536/3/5
f 540/3/5 536/3/5 535/3/5
f 541/3/5 537/3/5 540/3/5
f 547/1/5 543/1/5 542/1/5
f 547/3/5 544/3/5 543/3/5
f 548/3/5 544/3/5 547/3/5
f 549/1/5 546/1/5 545/1/5
f 550/1/5 546/1/5 549/1/5
f 552/1/5 547/1/5 542/1/5
f 555/3/5 551/3/5 550/3/5
f 556/3/5 551/3/5 555/3/5
f 557/1/5 552/1/5 542/1/5
f 558/3/5 553/3/5 552/3/5
f 558/1/5 552/1/5 557/1/5
f 559/3/5 553/3/5 558/3/5
f 560/1/5 555/1/5 554/1/5
f 561/1/5 555/1/5 560/1/5
f 564/1/5 563/1/5 562/1/5
f 565/1/5 563/1/5 564/1/5
f 566/1/5 563/1/5 565/1/5
f 569/1/5 568/1/5 567/1/5
f 570/1/5 568/1/5 569/1/5
f 573/1/5 571/1/5 570/1/5
f 574/1/5 571/1/5 573/1/5
f 578/1/5 573/1/5 572/1/5
f 579/1/5 573/1/5 578/1/5
f 580/1/5 577/1/5 576/1/5
f 580/1/5 576/1/5 575/1/5
f 581/1/5 577/1/5 580/1/5
f 582/1/6 583/1/6 584/1/6
f 584/1/6 583/1/6 585/1/6
f 588/2/6 589/2/6 590/2/6
f 590/2/6 589/2/6 591/2/6
f 586/1/6 587/1/6 592/1/6
f 592/1/6 587/1/6 593/1/6
f 594/2/6 595/2/6 598/2/6
f 597/2/6 598/2/6 599/2/6
f 595/1/6 596/1/6 600/1/6
f 599/2/6 598/2/6 600/2/6
f 598/2/6 595/2/6 600/2/6
f 600/1/6 596/1/6 601/1/6
f 602/2/6 603/2/6 604/2/6
f 604/2/6 603/2/6 605/2/6
f 602/2/6 604/2/6 606/2/6
f 606/2/6 604/2/6 607/2/6
f 608/2/6 609/2/6 612/2/6
f 612/2/6 609/2/6 613/2/6
f 610/1/6 611/1/6 614/1/6
f 614/1/6 611/1/6 615/1/6
f 616/3/6 617/3/6 618/3/6
f 618/3/6 617/3/6 619/3/6
f 620/1/6 621/1/6 623/1/6
f 621/3/6 622/3/6 624/3/6
f 623/1/6 621/1/6 624/1/6
f 624/3/6 622/3/6 625/3/6
f 626/1/6 627/1/6 628/1/6
f 628/1/6 627/1/6 629/1/6
f 626/1/6 628/1/6 630/1/6
f 630/1/6 628/1/6 631/1/6
f 632/1/6 633/1/6 634/1/6
f 634/1/6 633/1/6 635/1/6
f 636/1/6 637/1/6 638/1/6
f 638/1/6 637/1/6 639/1/6
f 640/1/6 641/1/6 645/1/6
f 645/1/6 641/1/6 646/1/6
f 642/3/6 643/3/6 647/3/6
f 647/3/6 643/3/6 648/3/6
f 644/1/6 645/1/6 650/1/6
f 650/1/6 645/1/6 651/1/6
f 648/3/6 649/3/6 654/3/6
f 654/3/6 649/3/6 655/3/6
f 651/1/6 652/1/6 656/1/6
f 656/1/6 652/1/6 657/1/6
f 653/3/6 654/3/6 658/3/6
f 658/3/6 654/3/6 659/3/6
f 660/1/6 661/1/6 662/1/6
f 662/1/6 661/1/6 663/1/6
f 664/1/6 665/1/6 667/1/6
f 667/1/6 665/1/6 668/1/6
f 666/1/6 667/1/6 670/1/6
f 668/1/6 669/1/6 670/1/6
f 667/1/6 668/1/6 670/1/6
f 670/1/6 669/1/6 671/1/6
f 671/1/6 669/1/6 672/1/6
f 666/1/6 670/1/6 674/1/6
f 672/1/6 673/1/6 675/1/6
f 671/1/6 672/1/6 675/1/6
f 675/1/6 673/1/6 676/1/6
f 676/1/6 673/1/6 677/1/6
f 666/1/6 674/1/6 678/1/6
f 674/1/6 675/1/6 678/1/6
f 675/1/6 676/1/6 678/1/6
f 678/1/6 676/1/6 679/1/6
f 679/1/6 676/1/6 680/1/6
f 680/1/6 676/1/6 681/1/6
f 679/1/6 680/1/6 682/1/6
f 682/1/6 680/1/6 683/1/6
f 684/1/6 685/1/6 686/1/6
f 686/1/6 685/1/6 687/1/6
