# MagicaVoxel @ Ephtracy

# group
o 

# material
mtllib CurbStone-2.mtl
usemtl palette

# normals
vn -1 0 0
vn 1 0 0
vn 0 0 1
vn 0 0 -1
vn 0 -1 0
vn 0 1 0

# texcoords
vt 0.908203 0.5
vt 0.912109 0.5
vt 0.916016 0.5

# verts
v -0.8 0 0.7
v -0.8 0 0
v -0.8 0 -0.1
v -0.8 0 -0.7
v -0.8 0.7 0.7
v -0.8 0.7 0
v -0.8 0.7 -0.1
v -0.8 0.7 -0.7
v -0.7 0 0.8
v -0.7 0 0.7
v -0.7 0 0
v -0.7 0 -0.1
v -0.7 0 -0.7
v -0.7 0 -0.8
v -0.7 0.7 0.8
v -0.7 0.7 0.7
v -0.7 0.7 0.6
v -0.7 0.7 0.1
v -0.7 0.7 0
v -0.7 0.7 -0.1
v -0.7 0.7 -0.2
v -0.7 0.7 -0.7
v -0.7 0.7 -0.8
v -0.7 0.8 0.7
v -0.7 0.8 0.6
v -0.7 0.8 0.1
v -0.7 0.8 0
v -0.7 0.8 -0.1
v -0.7 0.8 -0.2
v -0.7 0.8 -0.7
v 0 0 0.8
v 0 0 0.7
v 0 0 -0.7
v 0 0 -0.8
v 0 0.7 0.8
v 0 0.7 0.7
v 0 0.7 0
v 0 0.7 -0.1
v 0 0.7 -0.7
v 0 0.7 -0.8
v 0 0.8 0.7
v 0 0.8 0
v 0 0.8 -0.1
v 0 0.8 -0.7
v -0.1 0 0.8
v -0.1 0 0.7
v -0.1 0 -0.7
v -0.1 0 -0.8
v -0.1 0.7 0.8
v -0.1 0.7 0.7
v -0.1 0.7 0.6
v -0.1 0.7 0.1
v -0.1 0.7 0
v -0.1 0.7 -0.1
v -0.1 0.7 -0.2
v -0.1 0.7 -0.7
v -0.1 0.7 -0.8
v -0.1 0.8 0.7
v -0.1 0.8 0.6
v -0.1 0.8 0.1
v -0.1 0.8 0
v -0.1 0.8 -0.1
v -0.1 0.8 -0.2
v -0.1 0.8 -0.7
v 0.7 0 0.8
v 0.7 0 0.7
v 0.7 0 0
v 0.7 0 -0.1
v 0.7 0 -0.7
v 0.7 0 -0.8
v 0.7 0.7 0.8
v 0.7 0.7 0.7
v 0.7 0.7 0.6
v 0.7 0.7 0.1
v 0.7 0.7 0
v 0.7 0.7 -0.1
v 0.7 0.7 -0.2
v 0.7 0.7 -0.7
v 0.7 0.7 -0.8
v 0.7 0.8 0.7
v 0.7 0.8 0.6
v 0.7 0.8 0.1
v 0.7 0.8 0
v 0.7 0.8 -0.1
v 0.7 0.8 -0.2
v 0.7 0.8 -0.7
v 0.8 0 0.7
v 0.8 0 0
v 0.8 0 -0.1
v 0.8 0 -0.7
v 0.8 0.7 0.7
v 0.8 0.7 0
v 0.8 0.7 -0.1
v 0.8 0.7 -0.7
v -0.7 0 0.8
v -0.7 0.7 0.8
v -0.1 0 0.8
v -0.1 0.7 0.8
v 0 0 0.8
v 0 0.7 0.8
v 0.7 0 0.8
v 0.7 0.7 0.8
v -0.8 0 0.7
v -0.8 0.7 0.7
v -0.7 0 0.7
v -0.7 0.7 0.7
v -0.7 0.8 0.7
v -0.1 0 0.7
v -0.1 0.7 0.7
v -0.1 0.8 0.7
v 0 0 0.7
v 0 0.7 0.7
v 0 0.8 0.7
v 0.1 0.7 0.7
v 0.1 0.8 0.7
v 0.7 0 0.7
v 0.7 0.7 0.7
v 0.7 0.8 0.7
v 0.8 0 0.7
v 0.8 0.7 0.7
v -0.8 0 -0.1
v -0.8 0.7 -0.1
v -0.7 0 -0.1
v -0.7 0.7 -0.1
v -0.7 0.8 -0.1
v -0.1 0.7 -0.1
v -0.1 0.8 -0.1
v 0 0.7 -0.1
v 0 0.8 -0.1
v 0.1 0.7 -0.1
v 0.1 0.8 -0.1
v 0.7 0 -0.1
v 0.7 0.7 -0.1
v 0.7 0.8 -0.1
v 0.8 0 -0.1
v 0.8 0.7 -0.1
v -0.8 0 0
v -0.8 0.7 0
v -0.7 0 0
v -0.7 0.7 0
v -0.7 0.8 0
v -0.1 0.7 0
v -0.1 0.8 0
v 0 0.7 0
v 0 0.8 0
v 0.1 0.7 0
v 0.1 0.8 0
v 0.7 0 0
v 0.7 0.7 0
v 0.7 0.8 0
v 0.8 0 0
v 0.8 0.7 0
v -0.8 0 -0.7
v -0.8 0.7 -0.7
v -0.7 0 -0.7
v -0.7 0.7 -0.7
v -0.7 0.8 -0.7
v -0.6 0.7 -0.7
v -0.6 0.8 -0.7
v -0.2 0.7 -0.7
v -0.2 0.8 -0.7
v -0.1 0 -0.7
v -0.1 0.7 -0.7
v -0.1 0.8 -0.7
v 0 0 -0.7
v 0 0.7 -0.7
v 0 0.8 -0.7
v 0.1 0.7 -0.7
v 0.2 0.7 -0.7
v 0.2 0.8 -0.7
v 0.6 0.7 -0.7
v 0.6 0.8 -0.7
v 0.7 0 -0.7
v 0.7 0.7 -0.7
v 0.7 0.8 -0.7
v 0.8 0 -0.7
v 0.8 0.7 -0.7
v -0.7 0 -0.8
v -0.7 0.7 -0.8
v -0.1 0 -0.8
v -0.1 0.7 -0.8
v 0 0 -0.8
v 0 0.7 -0.8
v 0.1 0 -0.8
v 0.1 0.7 -0.8
v 0.7 0 -0.8
v 0.7 0.7 -0.8
v -0.7 0 0.8
v -0.1 0 0.8
v 0 0 0.8
v 0.7 0 0.8
v -0.8 0 0.7
v -0.7 0 0.7
v -0.1 0 0.7
v 0 0 0.7
v 0.1 0 0.7
v 0.7 0 0.7
v 0.8 0 0.7
v -0.7 0 0.6
v -0.6 0 0.6
v -0.2 0 0.6
v -0.1 0 0.6
v 0.1 0 0.6
v 0.2 0 0.6
v 0.6 0 0.6
v 0.7 0 0.6
v -0.6 0 0.5
v -0.5 0 0.5
v -0.3 0 0.5
v -0.2 0 0.5
v 0.2 0 0.5
v 0.3 0 0.5
v 0.5 0 0.5
v 0.6 0 0.5
v -0.5 0 0.4
v -0.4 0 0.4
v -0.3 0 0.4
v 0.3 0 0.4
v 0.4 0 0.4
v 0.5 0 0.4
v -0.5 0 0.3
v -0.4 0 0.3
v -0.3 0 0.3
v 0.3 0 0.3
v 0.4 0 0.3
v 0.5 0 0.3
v -0.6 0 0.2
v -0.5 0 0.2
v -0.3 0 0.2
v -0.2 0 0.2
v 0.2 0 0.2
v 0.3 0 0.2
v 0.5 0 0.2
v 0.6 0 0.2
v -0.7 0 0.1
v -0.6 0 0.1
v -0.2 0 0.1
v -0.1 0 0.1
v 0.1 0 0.1
v 0.2 0 0.1
v 0.6 0 0.1
v 0.7 0 0.1
v -0.8 0 0
v -0.7 0 0
v -0.1 0 0
v 0 0 0
v 0.1 0 0
v 0.7 0 0
v 0.8 0 0
v -0.8 0 -0.1
v -0.7 0 -0.1
v -0.1 0 -0.1
v 0 0 -0.1
v 0.1 0 -0.1
v 0.7 0 -0.1
v 0.8 0 -0.1
v -0.7 0 -0.2
v -0.6 0 -0.2
v -0.2 0 -0.2
v -0.1 0 -0.2
v 0.1 0 -0.2
v 0.2 0 -0.2
v 0.6 0 -0.2
v 0.7 0 -0.2
v -0.6 0 -0.3
v -0.5 0 -0.3
v -0.3 0 -0.3
v -0.2 0 -0.3
v 0.2 0 -0.3
v 0.3 0 -0.3
v 0.5 0 -0.3
v 0.6 0 -0.3
v -0.5 0 -0.4
v -0.4 0 -0.4
v -0.3 0 -0.4
v 0.3 0 -0.4
v 0.4 0 -0.4
v 0.5 0 -0.4
v -0.5 0 -0.5
v -0.4 0 -0.5
v -0.3 0 -0.5
v 0.3 0 -0.5
v 0.4 0 -0.5
v 0.5 0 -0.5
v -0.6 0 -0.6
v -0.5 0 -0.6
v -0.3 0 -0.6
v -0.2 0 -0.6
v 0.2 0 -0.6
v 0.3 0 -0.6
v 0.5 0 -0.6
v 0.6 0 -0.6
v -0.8 0 -0.7
v -0.7 0 -0.7
v -0.6 0 -0.7
v -0.2 0 -0.7
v -0.1 0 -0.7
v 0 0 -0.7
v 0.1 0 -0.7
v 0.2 0 -0.7
v 0.6 0 -0.7
v 0.7 0 -0.7
v 0.8 0 -0.7
v -0.7 0 -0.8
v -0.1 0 -0.8
v 0 0 -0.8
v 0.1 0 -0.8
v 0.7 0 -0.8
v -0.7 0.7 0.8
v -0.1 0.7 0.8
v 0 0.7 0.8
v 0.7 0.7 0.8
v -0.8 0.7 0.7
v -0.7 0.7 0.7
v -0.1 0.7 0.7
v 0 0.7 0.7
v 0.1 0.7 0.7
v 0.7 0.7 0.7
v 0.8 0.7 0.7
v -0.7 0.7 0.6
v -0.1 0.7 0.6
v 0.7 0.7 0.6
v -0.7 0.7 0.1
v -0.1 0.7 0.1
v 0.7 0.7 0.1
v -0.8 0.7 0
v -0.7 0.7 0
v -0.1 0.7 0
v 0 0.7 0
v 0.1 0.7 0
v 0.7 0.7 0
v 0.8 0.7 0
v -0.8 0.7 -0.1
v -0.7 0.7 -0.1
v -0.1 0.7 -0.1
v 0 0.7 -0.1
v 0.1 0.7 -0.1
v 0.7 0.7 -0.1
v 0.8 0.7 -0.1
v -0.7 0.7 -0.2
v -0.1 0.7 -0.2
v 0.7 0.7 -0.2
v -0.8 0.7 -0.7
v -0.7 0.7 -0.7
v -0.6 0.7 -0.7
v -0.2 0.7 -0.7
v -0.1 0.7 -0.7
v 0 0.7 -0.7
v 0.1 0.7 -0.7
v 0.2 0.7 -0.7
v 0.6 0.7 -0.7
v 0.7 0.7 -0.7
v 0.8 0.7 -0.7
v -0.7 0.7 -0.8
v -0.1 0.7 -0.8
v 0 0.7 -0.8
v 0.1 0.7 -0.8
v 0.7 0.7 -0.8
v -0.7 0.8 0.7
v -0.1 0.8 0.7
v 0 0.8 0.7
v 0.1 0.8 0.7
v 0.7 0.8 0.7
v -0.7 0.8 0.6
v -0.6 0.8 0.6
v -0.2 0.8 0.6
v -0.1 0.8 0.6
v 0.1 0.8 0.6
v 0.2 0.8 0.6
v 0.6 0.8 0.6
v 0.7 0.8 0.6
v -0.6 0.8 0.5
v -0.5 0.8 0.5
v -0.3 0.8 0.5
v -0.2 0.8 0.5
v 0.2 0.8 0.5
v 0.3 0.8 0.5
v 0.5 0.8 0.5
v 0.6 0.8 0.5
v -0.5 0.8 0.4
v -0.4 0.8 0.4
v -0.3 0.8 0.4
v 0.3 0.8 0.4
v 0.4 0.8 0.4
v 0.5 0.8 0.4
v -0.5 0.8 0.3
v -0.4 0.8 0.3
v -0.3 0.8 0.3
v 0.3 0.8 0.3
v 0.4 0.8 0.3
v 0.5 0.8 0.3
v -0.6 0.8 0.2
v -0.5 0.8 0.2
v -0.3 0.8 0.2
v -0.2 0.8 0.2
v 0.2 0.8 0.2
v 0.3 0.8 0.2
v 0.5 0.8 0.2
v 0.6 0.8 0.2
v -0.7 0.8 0.1
v -0.6 0.8 0.1
v -0.2 0.8 0.1
v -0.1 0.8 0.1
v 0.1 0.8 0.1
v 0.2 0.8 0.1
v 0.6 0.8 0.1
v 0.7 0.8 0.1
v -0.7 0.8 0
v -0.1 0.8 0
v 0 0.8 0
v 0.1 0.8 0
v 0.7 0.8 0
v -0.7 0.8 -0.1
v -0.1 0.8 -0.1
v 0 0.8 -0.1
v 0.1 0.8 -0.1
v 0.7 0.8 -0.1
v -0.7 0.8 -0.2
v -0.6 0.8 -0.2
v -0.2 0.8 -0.2
v -0.1 0.8 -0.2
v 0.1 0.8 -0.2
v 0.2 0.8 -0.2
v 0.6 0.8 -0.2
v 0.7 0.8 -0.2
v -0.6 0.8 -0.3
v -0.5 0.8 -0.3
v -0.3 0.8 -0.3
v -0.2 0.8 -0.3
v 0.2 0.8 -0.3
v 0.3 0.8 -0.3
v 0.5 0.8 -0.3
v 0.6 0.8 -0.3
v -0.5 0.8 -0.4
v -0.4 0.8 -0.4
v -0.3 0.8 -0.4
v 0.3 0.8 -0.4
v 0.4 0.8 -0.4
v 0.5 0.8 -0.4
v -0.5 0.8 -0.5
v -0.4 0.8 -0.5
v -0.3 0.8 -0.5
v 0.3 0.8 -0.5
v 0.4 0.8 -0.5
v 0.5 0.8 -0.5
v -0.6 0.8 -0.6
v -0.5 0.8 -0.6
v -0.3 0.8 -0.6
v -0.2 0.8 -0.6
v 0.2 0.8 -0.6
v 0.3 0.8 -0.6
v 0.5 0.8 -0.6
v 0.6 0.8 -0.6
v -0.7 0.8 -0.7
v -0.6 0.8 -0.7
v -0.2 0.8 -0.7
v -0.1 0.8 -0.7
v 0 0.8 -0.7
v 0.2 0.8 -0.7
v 0.6 0.8 -0.7
v 0.7 0.8 -0.7

# faces
f 5/1/1 2/1/1 1/1/1
f 6/1/1 2/1/1 5/1/1
f 7/1/1 4/1/1 3/1/1
f 8/1/1 4/1/1 7/1/1
f 15/3/1 10/3/1 9/3/1
f 16/3/1 10/3/1 15/3/1
f 19/3/1 12/3/1 11/3/1
f 20/3/1 12/3/1 19/3/1
f 22/2/1 14/2/1 13/2/1
f 23/2/1 14/2/1 22/2/1
f 24/2/1 17/2/1 16/2/1
f 25/1/1 18/1/1 17/1/1
f 25/2/1 17/2/1 24/2/1
f 26/2/1 19/2/1 18/2/1
f 26/1/1 18/1/1 25/1/1
f 27/2/1 19/2/1 26/2/1
f 28/2/1 21/2/1 20/2/1
f 29/1/1 22/1/1 21/1/1
f 29/2/1 21/2/1 28/2/1
f 30/1/1 22/1/1 29/1/1
f 35/3/1 32/3/1 31/3/1
f 36/3/1 32/3/1 35/3/1
f 39/1/1 34/1/1 33/1/1
f 40/1/1 34/1/1 39/1/1
f 41/1/1 37/1/1 36/1/1
f 42/1/1 37/1/1 41/1/1
f 43/1/1 39/1/1 38/1/1
f 44/1/1 39/1/1 43/1/1
f 45/3/2 46/3/2 49/3/2
f 49/3/2 46/3/2 50/3/2
f 47/2/2 48/2/2 56/2/2
f 56/2/2 48/2/2 57/2/2
f 50/2/2 51/2/2 58/2/2
f 51/3/2 52/3/2 59/3/2
f 58/2/2 51/2/2 59/2/2
f 52/2/2 53/2/2 60/2/2
f 59/3/2 52/3/2 60/3/2
f 60/2/2 53/2/2 61/2/2
f 54/2/2 55/2/2 62/2/2
f 55/3/2 56/3/2 63/3/2
f 62/2/2 55/2/2 63/2/2
f 63/3/2 56/3/2 64/3/2
f 65/3/2 66/3/2 71/3/2
f 71/3/2 66/3/2 72/3/2
f 67/3/2 68/3/2 75/3/2
f 75/3/2 68/3/2 76/3/2
f 69/2/2 70/2/2 78/2/2
f 78/2/2 70/2/2 79/2/2
f 72/2/2 73/2/2 80/2/2
f 73/3/2 74/3/2 81/3/2
f 80/2/2 73/2/2 81/2/2
f 74/2/2 75/2/2 82/2/2
f 81/3/2 74/3/2 82/3/2
f 82/2/2 75/2/2 83/2/2
f 76/2/2 77/2/2 84/2/2
f 77/3/2 78/3/2 85/3/2
f 84/2/2 77/2/2 85/2/2
f 85/3/2 78/3/2 86/3/2
f 87/3/2 88/3/2 91/3/2
f 91/3/2 88/3/2 92/3/2
f 89/3/2 90/3/2 93/3/2
f 93/3/2 90/3/2 94/3/2
f 97/3/3 96/3/3 95/3/3
f 98/3/3 96/3/3 97/3/3
f 101/3/3 100/3/3 99/3/3
f 102/3/3 100/3/3 101/3/3
f 105/1/3 104/1/3 103/1/3
f 106/1/3 104/1/3 105/1/3
f 109/2/3 107/2/3 106/2/3
f 110/2/3 107/2/3 109/2/3
f 111/3/3 109/3/3 108/3/3
f 112/3/3 109/3/3 111/3/3
f 114/1/3 113/1/3 112/1/3
f 115/1/3 113/1/3 114/1/3
f 117/2/3 115/2/3 114/2/3
f 118/2/3 115/2/3 117/2/3
f 119/3/3 117/3/3 116/3/3
f 120/3/3 117/3/3 119/3/3
f 123/1/3 122/1/3 121/1/3
f 124/1/3 122/1/3 123/1/3
f 126/2/3 125/2/3 124/2/3
f 127/2/3 125/2/3 126/2/3
f 130/1/3 129/1/3 128/1/3
f 131/1/3 129/1/3 130/1/3
f 133/2/3 131/2/3 130/2/3
f 134/2/3 131/2/3 133/2/3
f 135/3/3 133/3/3 132/3/3
f 136/3/3 133/3/3 135/3/3
f 137/1/4 138/1/4 139/1/4
f 139/1/4 138/1/4 140/1/4
f 140/2/4 141/2/4 142/2/4
f 142/2/4 141/2/4 143/2/4
f 144/1/4 145/1/4 146/1/4
f 146/1/4 145/1/4 147/1/4
f 146/2/4 147/2/4 149/2/4
f 149/2/4 147/2/4 150/2/4
f 148/3/4 149/3/4 151/3/4
f 151/3/4 149/3/4 152/3/4
f 153/1/4 154/1/4 155/1/4
f 155/1/4 154/1/4 156/1/4
f 156/1/4 157/1/4 158/1/4
f 158/1/4 157/1/4 159/1/4
f 158/2/4 159/2/4 160/2/4
f 160/2/4 159/2/4 161/2/4
f 160/3/4 161/3/4 163/3/4
f 163/3/4 161/3/4 164/3/4
f 162/3/4 163/3/4 165/3/4
f 165/3/4 163/3/4 166/3/4
f 166/1/4 167/1/4 168/1/4
f 168/1/4 167/1/4 169/1/4
f 169/1/4 167/1/4 170/1/4
f 169/2/4 170/2/4 171/2/4
f 171/2/4 170/2/4 172/2/4
f 171/3/4 172/3/4 174/3/4
f 174/3/4 172/3/4 175/3/4
f 173/3/4 174/3/4 176/3/4
f 176/3/4 174/3/4 177/3/4
f 178/2/4 179/2/4 180/2/4
f 180/2/4 179/2/4 181/2/4
f 182/1/4 183/1/4 184/1/4
f 184/1/4 183/1/4 185/1/4
f 184/2/4 185/2/4 186/2/4
f 186/2/4 185/2/4 187/2/4
f 193/3/5 189/3/5 188/3/5
f 194/3/5 189/3/5 193/3/5
f 195/3/5 191/3/5 190/3/5
f 196/3/5 191/3/5 195/3/5
f 197/3/5 191/3/5 196/3/5
f 199/2/5 194/2/5 193/2/5
f 199/1/5 193/1/5 192/1/5
f 200/2/5 194/2/5 199/2/5
f 201/2/5 194/2/5 200/2/5
f 202/3/5 195/3/5 194/3/5
f 202/2/5 194/2/5 201/2/5
f 203/2/5 197/2/5 196/2/5
f 203/1/5 196/1/5 195/1/5
f 204/2/5 197/2/5 203/2/5
f 205/2/5 197/2/5 204/2/5
f 206/3/5 198/3/5 197/3/5
f 206/2/5 197/2/5 205/2/5
f 207/2/5 201/2/5 200/2/5
f 207/1/5 200/1/5 199/1/5
f 208/2/5 201/2/5 207/2/5
f 209/2/5 201/2/5 208/2/5
f 210/3/5 202/3/5 201/3/5
f 210/2/5 201/2/5 209/2/5
f 211/2/5 205/2/5 204/2/5
f 211/1/5 204/1/5 203/1/5
f 212/2/5 205/2/5 211/2/5
f 213/2/5 205/2/5 212/2/5
f 214/3/5 206/3/5 205/3/5
f 214/2/5 205/2/5 213/2/5
f 215/2/5 209/2/5 208/2/5
f 215/1/5 208/1/5 207/1/5
f 216/2/5 209/2/5 215/2/5
f 217/3/5 210/3/5 209/3/5
f 217/2/5 209/2/5 216/2/5
f 218/2/5 213/2/5 212/2/5
f 218/1/5 212/1/5 211/1/5
f 219/2/5 213/2/5 218/2/5
f 220/3/5 214/3/5 213/3/5
f 220/2/5 213/2/5 219/2/5
f 221/1/5 216/1/5 215/1/5
f 221/1/5 215/1/5 207/1/5
f 222/3/5 217/3/5 216/3/5
f 222/1/5 216/1/5 221/1/5
f 223/3/5 210/3/5 217/3/5
f 223/3/5 217/3/5 222/3/5
f 224/1/5 219/1/5 218/1/5
f 224/1/5 218/1/5 211/1/5
f 225/3/5 220/3/5 219/3/5
f 225/1/5 219/1/5 224/1/5
f 226/3/5 214/3/5 220/3/5
f 226/3/5 220/3/5 225/3/5
f 227/1/5 207/1/5 199/1/5
f 227/1/5 221/1/5 207/1/5
f 228/2/5 222/2/5 221/2/5
f 228/1/5 221/1/5 227/1/5
f 228/2/5 223/2/5 222/2/5
f 229/3/5 210/3/5 223/3/5
f 229/2/5 223/2/5 228/2/5
f 230/3/5 202/3/5 210/3/5
f 230/3/5 210/3/5 229/3/5
f 231/1/5 211/1/5 203/1/5
f 231/1/5 224/1/5 211/1/5
f 232/2/5 225/2/5 224/2/5
f 232/1/5 224/1/5 231/1/5
f 232/2/5 226/2/5 225/2/5
f 233/3/5 214/3/5 226/3/5
f 233/2/5 226/2/5 232/2/5
f 234/3/5 206/3/5 214/3/5
f 234/3/5 214/3/5 233/3/5
f 235/1/5 199/1/5 192/1/5
f 235/1/5 227/1/5 199/1/5
f 236/2/5 229/2/5 228/2/5
f 236/1/5 227/1/5 235/1/5
f 236/2/5 228/2/5 227/2/5
f 236/2/5 230/2/5 229/2/5
f 237/3/5 202/3/5 230/3/5
f 237/2/5 230/2/5 236/2/5
f 238/3/5 195/3/5 202/3/5
f 238/3/5 202/3/5 237/3/5
f 239/1/5 203/1/5 195/1/5
f 239/1/5 231/1/5 203/1/5
f 240/2/5 233/2/5 232/2/5
f 240/1/5 231/1/5 239/1/5
f 240/2/5 234/2/5 233/2/5
f 240/2/5 232/2/5 231/2/5
f 241/3/5 206/3/5 234/3/5
f 241/2/5 234/2/5 240/2/5
f 242/3/5 198/3/5 206/3/5
f 242/3/5 206/3/5 241/3/5
f 243/1/5 235/1/5 192/1/5
f 244/2/5 237/2/5 236/2/5
f 244/1/5 235/1/5 243/1/5
f 244/2/5 236/2/5 235/2/5
f 244/2/5 238/2/5 237/2/5
f 245/3/5 195/3/5 238/3/5
f 245/2/5 238/2/5 244/2/5
f 246/1/5 239/1/5 195/1/5
f 246/3/5 195/3/5 245/3/5
f 247/2/5 241/2/5 240/2/5
f 247/1/5 239/1/5 246/1/5
f 247/2/5 240/2/5 239/2/5
f 247/2/5 242/2/5 241/2/5
f 248/3/5 198/3/5 242/3/5
f 248/2/5 242/2/5 247/2/5
f 249/3/5 198/3/5 248/3/5
f 251/3/5 247/3/5 246/3/5
f 251/3/5 248/3/5 247/3/5
f 251/3/5 246/3/5 245/3/5
f 251/3/5 245/3/5 244/3/5
f 252/3/5 248/3/5 251/3/5
f 253/3/5 248/3/5 252/3/5
f 254/3/5 248/3/5 253/3/5
f 255/3/5 248/3/5 254/3/5
f 257/1/5 251/1/5 250/1/5
f 257/2/5 252/2/5 251/2/5
f 258/2/5 252/2/5 257/2/5
f 259/2/5 252/2/5 258/2/5
f 260/3/5 253/3/5 252/3/5
f 260/2/5 252/2/5 259/2/5
f 261/2/5 255/2/5 254/2/5
f 261/1/5 254/1/5 253/1/5
f 262/2/5 255/2/5 261/2/5
f 263/2/5 255/2/5 262/2/5
f 264/3/5 256/3/5 255/3/5
f 264/2/5 255/2/5 263/2/5
f 265/2/5 259/2/5 258/2/5
f 265/1/5 258/1/5 257/1/5
f 266/2/5 259/2/5 265/2/5
f 267/2/5 259/2/5 266/2/5
f 268/3/5 260/3/5 259/3/5
f 268/2/5 259/2/5 267/2/5
f 269/2/5 263/2/5 262/2/5
f 269/1/5 262/1/5 261/1/5
f 270/2/5 263/2/5 269/2/5
f 271/2/5 263/2/5 270/2/5
f 272/3/5 264/3/5 263/3/5
f 272/2/5 263/2/5 271/2/5
f 273/2/5 267/2/5 266/2/5
f 273/1/5 266/1/5 265/1/5
f 274/2/5 267/2/5 273/2/5
f 275/3/5 268/3/5 267/3/5
f 275/2/5 267/2/5 274/2/5
f 276/2/5 271/2/5 270/2/5
f 276/1/5 270/1/5 269/1/5
f 277/2/5 271/2/5 276/2/5
f 278/3/5 272/3/5 271/3/5
f 278/2/5 271/2/5 277/2/5
f 279/1/5 274/1/5 273/1/5
f 279/1/5 273/1/5 265/1/5
f 280/3/5 275/3/5 274/3/5
f 280/1/5 274/1/5 279/1/5
f 281/3/5 268/3/5 275/3/5
f 281/3/5 275/3/5 280/3/5
f 282/1/5 277/1/5 276/1/5
f 282/1/5 276/1/5 269/1/5
f 283/3/5 278/3/5 277/3/5
f 283/1/5 277/1/5 282/1/5
f 284/3/5 272/3/5 278/3/5
f 284/3/5 278/3/5 283/3/5
f 285/1/5 265/1/5 257/1/5
f 285/1/5 279/1/5 265/1/5
f 286/2/5 280/2/5 279/2/5
f 286/1/5 279/1/5 285/1/5
f 286/2/5 281/2/5 280/2/5
f 287/3/5 268/3/5 281/3/5
f 287/2/5 281/2/5 286/2/5
f 288/3/5 260/3/5 268/3/5
f 288/3/5 268/3/5 287/3/5
f 289/1/5 269/1/5 261/1/5
f 289/1/5 282/1/5 269/1/5
f 290/2/5 283/2/5 282/2/5
f 290/1/5 282/1/5 289/1/5
f 290/2/5 284/2/5 283/2/5
f 291/3/5 272/3/5 284/3/5
f 291/2/5 284/2/5 290/2/5
f 292/3/5 264/3/5 272/3/5
f 292/3/5 272/3/5 291/3/5
f 293/1/5 257/1/5 250/1/5
f 293/1/5 285/1/5 257/1/5
f 294/1/5 285/1/5 293/1/5
f 295/2/5 287/2/5 286/2/5
f 295/1/5 285/1/5 294/1/5
f 295/2/5 286/2/5 285/2/5
f 295/2/5 288/2/5 287/2/5
f 296/3/5 260/3/5 288/3/5
f 296/2/5 288/2/5 295/2/5
f 297/3/5 253/3/5 260/3/5
f 297/3/5 260/3/5 296/3/5
f 298/1/5 261/1/5 253/1/5
f 298/3/5 253/3/5 297/3/5
f 298/1/5 289/1/5 261/1/5
f 299/1/5 289/1/5 298/1/5
f 300/2/5 291/2/5 290/2/5
f 300/1/5 289/1/5 299/1/5
f 300/2/5 292/2/5 291/2/5
f 300/2/5 290/2/5 289/2/5
f 301/3/5 264/3/5 292/3/5
f 301/2/5 292/2/5 300/2/5
f 302/3/5 256/3/5 264/3/5
f 302/3/5 264/3/5 301/3/5
f 303/3/5 256/3/5 302/3/5
f 304/2/5 296/2/5 295/2/5
f 304/2/5 297/2/5 296/2/5
f 304/2/5 295/2/5 294/2/5
f 305/2/5 297/2/5 304/2/5
f 306/1/5 299/1/5 298/1/5
f 307/2/5 302/2/5 301/2/5
f 307/1/5 299/1/5 306/1/5
f 307/2/5 301/2/5 300/2/5
f 307/2/5 300/2/5 299/2/5
f 308/2/5 302/2/5 307/2/5
f 309/3/6 310/3/6 314/3/6
f 314/3/6 310/3/6 315/3/6
f 311/3/6 312/3/6 316/3/6
f 316/3/6 312/3/6 317/3/6
f 317/3/6 312/3/6 318/3/6
f 313/1/6 314/1/6 320/1/6
f 315/3/6 316/3/6 321/3/6
f 318/3/6 319/3/6 322/3/6
f 313/1/6 320/1/6 323/1/6
f 321/3/6 316/3/6 324/3/6
f 322/3/6 319/3/6 325/3/6
f 313/1/6 323/1/6 326/1/6
f 326/1/6 323/1/6 327/1/6
f 324/3/6 316/3/6 328/3/6
f 328/3/6 316/3/6 329/3/6
f 325/3/6 319/3/6 331/3/6
f 331/3/6 319/3/6 332/3/6
f 329/3/6 330/3/6 334/3/6
f 330/3/6 331/3/6 334/3/6
f 327/3/6 328/3/6 334/3/6
f 328/3/6 329/3/6 334/3/6
f 334/3/6 331/3/6 335/3/6
f 335/3/6 331/3/6 336/3/6
f 336/3/6 331/3/6 337/3/6
f 337/3/6 331/3/6 338/3/6
f 333/1/6 334/1/6 340/1/6
f 335/3/6 336/3/6 341/3/6
f 338/3/6 339/3/6 342/3/6
f 333/1/6 340/1/6 343/1/6
f 343/1/6 340/1/6 344/1/6
f 341/3/6 336/3/6 347/3/6
f 347/3/6 336/3/6 348/3/6
f 342/3/6 339/3/6 352/3/6
f 352/3/6 339/3/6 353/3/6
f 345/2/6 346/2/6 354/2/6
f 344/2/6 345/2/6 354/2/6
f 346/2/6 347/2/6 354/2/6
f 354/2/6 347/2/6 355/2/6
f 348/1/6 349/1/6 356/1/6
f 350/2/6 351/2/6 357/2/6
f 356/1/6 349/1/6 357/1/6
f 351/2/6 352/2/6 357/2/6
f 349/2/6 350/2/6 357/2/6
f 357/2/6 352/2/6 358/2/6
f 359/2/6 360/2/6 364/2/6
f 364/2/6 360/2/6 365/2/6
f 365/2/6 360/2/6 366/2/6
f 366/2/6 360/2/6 367/2/6
f 362/2/6 363/2/6 368/2/6
f 361/1/6 362/1/6 368/1/6
f 368/2/6 363/2/6 369/2/6
f 369/2/6 363/2/6 370/2/6
f 370/2/6 363/2/6 371/2/6
f 365/2/6 366/2/6 372/2/6
f 364/1/6 365/1/6 372/1/6
f 372/2/6 366/2/6 373/2/6
f 373/2/6 366/2/6 374/2/6
f 366/3/6 367/3/6 375/3/6
f 374/2/6 366/2/6 375/2/6
f 368/1/6 369/1/6 376/1/6
f 369/2/6 370/2/6 376/2/6
f 376/2/6 370/2/6 377/2/6
f 377/2/6 370/2/6 378/2/6
f 370/3/6 371/3/6 379/3/6
f 378/2/6 370/2/6 379/2/6
f 373/2/6 374/2/6 380/2/6
f 372/1/6 373/1/6 380/1/6
f 380/2/6 374/2/6 381/2/6
f 374/3/6 375/3/6 382/3/6
f 381/2/6 374/2/6 382/2/6
f 377/2/6 378/2/6 383/2/6
f 376/1/6 377/1/6 383/1/6
f 383/2/6 378/2/6 384/2/6
f 378/3/6 379/3/6 385/3/6
f 384/2/6 378/2/6 385/2/6
f 380/1/6 381/1/6 386/1/6
f 372/1/6 380/1/6 386/1/6
f 381/3/6 382/3/6 387/3/6
f 386/1/6 381/1/6 387/1/6
f 382/3/6 375/3/6 388/3/6
f 387/3/6 382/3/6 388/3/6
f 383/1/6 384/1/6 389/1/6
f 376/1/6 383/1/6 389/1/6
f 384/3/6 385/3/6 390/3/6
f 389/1/6 384/1/6 390/1/6
f 385/3/6 379/3/6 391/3/6
f 390/3/6 385/3/6 391/3/6
f 364/1/6 372/1/6 392/1/6
f 372/1/6 386/1/6 392/1/6
f 386/2/6 387/2/6 393/2/6
f 392/1/6 386/1/6 393/1/6
f 387/2/6 388/2/6 393/2/6
f 388/3/6 375/3/6 394/3/6
f 393/2/6 388/2/6 394/2/6
f 375/3/6 367/3/6 395/3/6
f 394/3/6 375/3/6 395/3/6
f 368/1/6 376/1/6 396/1/6
f 376/1/6 389/1/6 396/1/6
f 389/2/6 390/2/6 397/2/6
f 396/1/6 389/1/6 397/1/6
f 390/2/6 391/2/6 397/2/6
f 391/3/6 379/3/6 398/3/6
f 397/2/6 391/2/6 398/2/6
f 379/3/6 371/3/6 399/3/6
f 398/3/6 379/3/6 399/3/6
f 364/1/6 392/1/6 400/1/6
f 393/2/6 394/2/6 401/2/6
f 400/1/6 392/1/6 401/1/6
f 392/2/6 393/2/6 401/2/6
f 394/2/6 395/2/6 401/2/6
f 395/3/6 367/3/6 402/3/6
f 401/2/6 395/2/6 402/2/6
f 402/3/6 367/3/6 403/3/6
f 361/1/6 368/1/6 404/1/6
f 368/1/6 396/1/6 404/1/6
f 397/2/6 398/2/6 405/2/6
f 404/1/6 396/1/6 405/1/6
f 396/2/6 397/2/6 405/2/6
f 398/2/6 399/2/6 405/2/6
f 399/3/6 371/3/6 406/3/6
f 405/2/6 399/2/6 406/2/6
f 406/3/6 371/3/6 407/3/6
f 402/2/6 403/2/6 408/2/6
f 401/2/6 402/2/6 408/2/6
f 400/2/6 401/2/6 408/2/6
f 408/2/6 403/2/6 409/2/6
f 361/1/6 404/1/6 410/1/6
f 404/2/6 405/2/6 411/2/6
f 410/1/6 404/1/6 411/1/6
f 406/2/6 407/2/6 411/2/6
f 405/2/6 406/2/6 411/2/6
f 411/2/6 407/2/6 412/2/6
f 413/2/6 414/2/6 418/2/6
f 418/2/6 414/2/6 419/2/6
f 419/2/6 414/2/6 420/2/6
f 420/2/6 414/2/6 421/2/6
f 416/2/6 417/2/6 422/2/6
f 415/1/6 416/1/6 422/1/6
f 422/2/6 417/2/6 423/2/6
f 423/2/6 417/2/6 424/2/6
f 424/2/6 417/2/6 425/2/6
f 419/2/6 420/2/6 426/2/6
f 418/1/6 419/1/6 426/1/6
f 426/2/6 420/2/6 427/2/6
f 427/2/6 420/2/6 428/2/6
f 420/3/6 421/3/6 429/3/6
f 428/2/6 420/2/6 429/2/6
f 422/1/6 423/1/6 430/1/6
f 423/2/6 424/2/6 430/2/6
f 430/2/6 424/2/6 431/2/6
f 431/2/6 424/2/6 432/2/6
f 424/3/6 425/3/6 433/3/6
f 432/2/6 424/2/6 433/2/6
f 427/2/6 428/2/6 434/2/6
f 426/1/6 427/1/6 434/1/6
f 434/2/6 428/2/6 435/2/6
f 428/3/6 429/3/6 436/3/6
f 435/2/6 428/2/6 436/2/6
f 431/2/6 432/2/6 437/2/6
f 430/1/6 431/1/6 437/1/6
f 437/2/6 432/2/6 438/2/6
f 432/3/6 433/3/6 439/3/6
f 438/2/6 432/2/6 439/2/6
f 434/1/6 435/1/6 440/1/6
f 426/1/6 434/1/6 440/1/6
f 435/3/6 436/3/6 441/3/6
f 440/1/6 435/1/6 441/1/6
f 436/3/6 429/3/6 442/3/6
f 441/3/6 436/3/6 442/3/6
f 437/1/6 438/1/6 443/1/6
f 430/1/6 437/1/6 443/1/6
f 438/3/6 439/3/6 444/3/6
f 443/1/6 438/1/6 444/1/6
f 439/3/6 433/3/6 445/3/6
f 444/3/6 439/3/6 445/3/6
f 418/1/6 426/1/6 446/1/6
f 426/1/6 440/1/6 446/1/6
f 440/2/6 441/2/6 447/2/6
f 446/1/6 440/1/6 447/1/6
f 441/2/6 442/2/6 447/2/6
f 442/3/6 429/3/6 448/3/6
f 447/2/6 442/2/6 448/2/6
f 429/3/6 421/3/6 449/3/6
f 448/3/6 429/3/6 449/3/6
f 422/1/6 430/1/6 450/1/6
f 430/1/6 443/1/6 450/1/6
f 443/2/6 444/2/6 451/2/6
f 450/1/6 443/1/6 451/1/6
f 444/2/6 445/2/6 451/2/6
f 445/3/6 433/3/6 452/3/6
f 451/2/6 445/2/6 452/2/6
f 433/3/6 425/3/6 453/3/6
f 452/3/6 433/3/6 453/3/6
f 418/1/6 446/1/6 454/1/6
f 447/2/6 448/2/6 455/2/6
f 454/1/6 446/1/6 455/1/6
f 446/2/6 447/2/6 455/2/6
f 448/2/6 449/2/6 455/2/6
f 449/3/6 421/3/6 456/3/6
f 455/2/6 449/2/6 456/2/6
f 456/3/6 421/3/6 457/3/6
f 415/1/6 422/1/6 458/1/6
f 422/1/6 450/1/6 458/1/6
f 451/2/6 452/2/6 459/2/6
f 458/1/6 450/1/6 459/1/6
f 450/2/6 451/2/6 459/2/6
f 452/2/6 453/2/6 459/2/6
f 453/3/6 425/3/6 460/3/6
f 459/2/6 453/2/6 460/2/6
f 460/3/6 425/3/6 461/3/6
