# MagicaVoxel @ Ephtracy

# group
o 

# material
mtllib Link-3.mtl
usemtl palette

# normals
vn -1 0 0
vn 1 0 0
vn 0 0 1
vn 0 0 -1
vn 0 -1 0
vn 0 1 0

# texcoords
vt 0.939453 0.5
vt 0.943359 0.5
vt 0.947266 0.5

# verts
v -0.5 0.1 -0.5
v -0.5 0.1 -0.6
v -0.5 0.3 -0.5
v -0.5 0.3 -0.6
v -0.4 0.3 -0.5
v -0.4 0.3 -0.6
v -0.4 0.4 -0.5
v -0.4 0.4 -0.6
v -0.3 0.4 -0.5
v -0.3 0.4 -0.6
v -0.3 0.5 -0.5
v -0.3 0.5 -0.6
v -0.2 0.5 -0.5
v -0.2 0.5 -0.6
v -0.2 0.6 -0.5
v -0.2 0.6 -0.6
v -0.1 0.6 -0.5
v -0.1 0.6 -0.6
v -0.1 0.7 -0.5
v -0.1 0.7 -0.6
v -0.1 0.9 -0.5
v -0.1 0.9 -0.6
v -0.1 1 -0.5
v -0.1 1 -0.6
v 0 0.7 -0.5
v 0 0.7 -0.6
v 0 0.8 -0.5
v 0 0.8 -0.6
v 0 0.9 -0.5
v 0 0.9 -0.6
v 0.2 0.9 -0.5
v 0.2 0.9 -0.6
v 0.2 1 -0.5
v 0.2 1 -0.6
v 0.3 0.5 -0.5
v 0.3 0.5 -0.6
v 0.3 0.6 -0.5
v 0.3 0.6 -0.6
v 0.3 1 -0.5
v 0.3 1 -0.6
v 0.3 1.1 -0.5
v 0.3 1.1 -0.6
v -0.3 0.1 -0.5
v -0.3 0.1 -0.6
v -0.3 0.2 -0.5
v -0.3 0.2 -0.6
v -0.2 0.2 -0.5
v -0.2 0.2 -0.6
v -0.2 0.3 -0.5
v -0.2 0.3 -0.6
v -0.1 0.3 -0.5
v -0.1 0.3 -0.6
v -0.1 0.4 -0.5
v -0.1 0.4 -0.6
v 0 0.4 -0.5
v 0 0.4 -0.6
v 0 0.5 -0.5
v 0 0.5 -0.6
v 0.1 0.5 -0.5
v 0.1 0.5 -0.6
v 0.1 0.6 -0.5
v 0.1 0.6 -0.6
v 0.1 0.9 -0.5
v 0.1 0.9 -0.6
v 0.1 1 -0.5
v 0.1 1 -0.6
v 0.3 0.7 -0.5
v 0.3 0.7 -0.6
v 0.3 0.8 -0.5
v 0.3 0.8 -0.6
v 0.4 0.5 -0.5
v 0.4 0.5 -0.6
v 0.4 0.7 -0.5
v 0.4 0.7 -0.6
v 0.4 0.8 -0.5
v 0.4 0.8 -0.6
v 0.4 0.9 -0.5
v 0.4 0.9 -0.6
v 0.5 0.9 -0.5
v 0.5 0.9 -0.6
v 0.5 1.1 -0.5
v 0.5 1.1 -0.6
v -0.5 0.1 -0.5
v -0.5 0.3 -0.5
v -0.4 0.3 -0.5
v -0.4 0.4 -0.5
v -0.3 0.1 -0.5
v -0.3 0.2 -0.5
v -0.3 0.4 -0.5
v -0.3 0.5 -0.5
v -0.2 0.2 -0.5
v -0.2 0.3 -0.5
v -0.2 0.5 -0.5
v -0.2 0.6 -0.5
v -0.1 0.3 -0.5
v -0.1 0.4 -0.5
v -0.1 0.6 -0.5
v -0.1 0.7 -0.5
v -0.1 0.9 -0.5
v -0.1 1 -0.5
v 0 0.4 -0.5
v 0 0.5 -0.5
v 0 0.7 -0.5
v 0 0.8 -0.5
v 0 0.9 -0.5
v 0.1 0.5 -0.5
v 0.1 0.6 -0.5
v 0.1 0.7 -0.5
v 0.1 0.8 -0.5
v 0.1 0.9 -0.5
v 0.1 1 -0.5
v 0.2 0.6 -0.5
v 0.2 0.7 -0.5
v 0.2 0.8 -0.5
v 0.2 0.9 -0.5
v 0.2 1 -0.5
v 0.3 0.5 -0.5
v 0.3 0.6 -0.5
v 0.3 0.7 -0.5
v 0.3 0.8 -0.5
v 0.3 0.9 -0.5
v 0.3 1 -0.5
v 0.3 1.1 -0.5
v 0.4 0.5 -0.5
v 0.4 0.7 -0.5
v 0.4 0.8 -0.5
v 0.4 0.9 -0.5
v 0.4 1 -0.5
v 0.5 0.9 -0.5
v 0.5 1.1 -0.5
v -0.5 0.1 -0.6
v -0.5 0.3 -0.6
v -0.4 0.3 -0.6
v -0.4 0.4 -0.6
v -0.3 0.1 -0.6
v -0.3 0.2 -0.6
v -0.3 0.4 -0.6
v -0.3 0.5 -0.6
v -0.2 0.2 -0.6
v -0.2 0.3 -0.6
v -0.2 0.5 -0.6
v -0.2 0.6 -0.6
v -0.1 0.3 -0.6
v -0.1 0.4 -0.6
v -0.1 0.6 -0.6
v -0.1 0.7 -0.6
v -0.1 0.9 -0.6
v -0.1 1 -0.6
v 0 0.4 -0.6
v 0 0.5 -0.6
v 0 0.7 -0.6
v 0 0.8 -0.6
v 0 0.9 -0.6
v 0.1 0.5 -0.6
v 0.1 0.6 -0.6
v 0.1 0.7 -0.6
v 0.1 0.8 -0.6
v 0.1 0.9 -0.6
v 0.1 1 -0.6
v 0.2 0.6 -0.6
v 0.2 0.7 -0.6
v 0.2 0.8 -0.6
v 0.2 0.9 -0.6
v 0.2 1 -0.6
v 0.3 0.5 -0.6
v 0.3 0.6 -0.6
v 0.3 0.7 -0.6
v 0.3 0.8 -0.6
v 0.3 0.9 -0.6
v 0.3 1 -0.6
v 0.3 1.1 -0.6
v 0.4 0.5 -0.6
v 0.4 0.7 -0.6
v 0.4 0.8 -0.6
v 0.4 0.9 -0.6
v 0.4 1 -0.6
v 0.5 0.9 -0.6
v 0.5 1.1 -0.6
v -0.5 0.1 -0.5
v -0.3 0.1 -0.5
v -0.5 0.1 -0.6
v -0.3 0.1 -0.6
v -0.3 0.2 -0.5
v -0.2 0.2 -0.5
v -0.3 0.2 -0.6
v -0.2 0.2 -0.6
v -0.2 0.3 -0.5
v -0.1 0.3 -0.5
v -0.2 0.3 -0.6
v -0.1 0.3 -0.6
v -0.1 0.4 -0.5
v 0 0.4 -0.5
v -0.1 0.4 -0.6
v 0 0.4 -0.6
v 0 0.5 -0.5
v 0.1 0.5 -0.5
v 0.3 0.5 -0.5
v 0.4 0.5 -0.5
v 0 0.5 -0.6
v 0.1 0.5 -0.6
v 0.3 0.5 -0.6
v 0.4 0.5 -0.6
v 0.1 0.6 -0.5
v 0.2 0.6 -0.5
v 0.3 0.6 -0.5
v 0.1 0.6 -0.6
v 0.2 0.6 -0.6
v 0.3 0.6 -0.6
v 0.3 0.8 -0.5
v 0.4 0.8 -0.5
v 0.3 0.8 -0.6
v 0.4 0.8 -0.6
v -0.1 0.9 -0.5
v 0 0.9 -0.5
v 0.4 0.9 -0.5
v 0.5 0.9 -0.5
v -0.1 0.9 -0.6
v 0 0.9 -0.6
v 0.4 0.9 -0.6
v 0.5 0.9 -0.6
v -0.5 0.3 -0.5
v -0.4 0.3 -0.5
v -0.5 0.3 -0.6
v -0.4 0.3 -0.6
v -0.4 0.4 -0.5
v -0.3 0.4 -0.5
v -0.4 0.4 -0.6
v -0.3 0.4 -0.6
v -0.3 0.5 -0.5
v -0.2 0.5 -0.5
v -0.3 0.5 -0.6
v -0.2 0.5 -0.6
v -0.2 0.6 -0.5
v -0.1 0.6 -0.5
v -0.2 0.6 -0.6
v -0.1 0.6 -0.6
v -0.1 0.7 -0.5
v 0 0.7 -0.5
v 0.3 0.7 -0.5
v 0.4 0.7 -0.5
v -0.1 0.7 -0.6
v 0 0.7 -0.6
v 0.3 0.7 -0.6
v 0.4 0.7 -0.6
v 0.1 0.9 -0.5
v 0.2 0.9 -0.5
v 0.1 0.9 -0.6
v 0.2 0.9 -0.6
v -0.1 1 -0.5
v 0.1 1 -0.5
v 0.2 1 -0.5
v 0.3 1 -0.5
v -0.1 1 -0.6
v 0.1 1 -0.6
v 0.2 1 -0.6
v 0.3 1 -0.6
v 0.3 1.1 -0.5
v 0.5 1.1 -0.5
v 0.3 1.1 -0.6
v 0.5 1.1 -0.6

# faces
f 3/3/1 2/3/1 1/3/1
f 4/3/1 2/3/1 3/3/1
f 7/3/1 6/3/1 5/3/1
f 8/3/1 6/3/1 7/3/1
f 11/3/1 10/3/1 9/3/1
f 12/3/1 10/3/1 11/3/1
f 15/3/1 14/3/1 13/3/1
f 16/3/1 14/3/1 15/3/1
f 19/3/1 18/3/1 17/3/1
f 20/3/1 18/3/1 19/3/1
f 23/2/1 22/2/1 21/2/1
f 24/2/1 22/2/1 23/2/1
f 27/3/1 26/3/1 25/3/1
f 28/3/1 26/3/1 27/3/1
f 29/2/1 28/2/1 27/2/1
f 30/2/1 28/2/1 29/2/1
f 33/2/1 32/2/1 31/2/1
f 34/2/1 32/2/1 33/2/1
f 37/2/1 36/2/1 35/2/1
f 38/2/1 36/2/1 37/2/1
f 41/1/1 40/1/1 39/1/1
f 42/1/1 40/1/1 41/1/1
f 43/3/2 44/3/2 45/3/2
f 45/3/2 44/3/2 46/3/2
f 47/3/2 48/3/2 49/3/2
f 49/3/2 48/3/2 50/3/2
f 51/3/2 52/3/2 53/3/2
f 53/3/2 52/3/2 54/3/2
f 55/3/2 56/3/2 57/3/2
f 57/3/2 56/3/2 58/3/2
f 59/3/2 60/3/2 61/3/2
f 61/3/2 60/3/2 62/3/2
f 63/2/2 64/2/2 65/2/2
f 65/2/2 64/2/2 66/2/2
f 67/1/2 68/1/2 69/1/2
f 69/1/2 68/1/2 70/1/2
f 71/2/2 72/2/2 73/2/2
f 73/2/2 72/2/2 74/2/2
f 75/2/2 76/2/2 77/2/2
f 77/2/2 76/2/2 78/2/2
f 79/1/2 80/1/2 81/1/2
f 81/1/2 80/1/2 82/1/2
f 85/3/3 84/3/3 83/3/3
f 87/3/3 85/3/3 83/3/3
f 87/3/3 86/3/3 85/3/3
f 88/3/3 86/3/3 87/3/3
f 89/3/3 86/3/3 88/3/3
f 91/3/3 90/3/3 89/3/3
f 91/3/3 89/3/3 88/3/3
f 92/3/3 90/3/3 91/3/3
f 93/3/3 90/3/3 92/3/3
f 95/3/3 94/3/3 93/3/3
f 95/3/3 93/3/3 92/3/3
f 96/3/3 94/3/3 95/3/3
f 97/3/3 94/3/3 96/3/3
f 101/3/3 97/3/3 96/3/3
f 101/3/3 98/3/3 97/3/3
f 102/3/3 98/3/3 101/3/3
f 103/3/3 98/3/3 102/3/3
f 105/2/3 100/2/3 99/2/3
f 106/3/3 104/3/3 103/3/3
f 106/3/3 103/3/3 102/3/3
f 107/3/3 104/3/3 106/3/3
f 108/3/3 104/3/3 107/3/3
f 109/2/3 105/2/3 104/2/3
f 109/3/3 104/3/3 108/3/3
f 110/2/3 100/2/3 105/2/3
f 110/2/3 105/2/3 109/2/3
f 111/2/3 100/2/3 110/2/3
f 112/3/3 108/3/3 107/3/3
f 113/2/3 109/2/3 108/2/3
f 113/3/3 108/3/3 112/3/3
f 114/1/3 110/1/3 109/1/3
f 114/2/3 109/2/3 113/2/3
f 115/1/3 110/1/3 114/1/3
f 118/2/3 113/2/3 112/2/3
f 119/1/3 114/1/3 113/1/3
f 119/1/3 115/1/3 114/1/3
f 119/2/3 113/2/3 118/2/3
f 120/1/3 115/1/3 119/1/3
f 121/2/3 116/2/3 115/2/3
f 121/1/3 115/1/3 120/1/3
f 122/2/3 116/2/3 121/2/3
f 124/2/3 118/2/3 117/2/3
f 124/2/3 119/2/3 118/2/3
f 125/2/3 119/2/3 124/2/3
f 126/2/3 122/2/3 121/2/3
f 126/2/3 121/2/3 120/2/3
f 127/2/3 122/2/3 126/2/3
f 128/1/3 123/1/3 122/1/3
f 128/2/3 122/2/3 127/2/3
f 129/1/3 128/1/3 127/1/3
f 130/1/3 123/1/3 128/1/3
f 130/1/3 128/1/3 129/1/3
f 131/3/4 132/3/4 133/3/4
f 131/3/4 133/3/4 135/3/4
f 133/3/4 134/3/4 135/3/4
f 135/3/4 134/3/4 136/3/4
f 136/3/4 134/3/4 137/3/4
f 137/3/4 138/3/4 139/3/4
f 136/3/4 137/3/4 139/3/4
f 139/3/4 138/3/4 140/3/4
f 140/3/4 138/3/4 141/3/4
f 141/3/4 142/3/4 143/3/4
f 140/3/4 141/3/4 143/3/4
f 143/3/4 142/3/4 144/3/4
f 144/3/4 142/3/4 145/3/4
f 144/3/4 145/3/4 149/3/4
f 145/3/4 146/3/4 149/3/4
f 149/3/4 146/3/4 150/3/4
f 150/3/4 146/3/4 151/3/4
f 147/2/4 148/2/4 153/2/4
f 151/3/4 152/3/4 154/3/4
f 150/3/4 151/3/4 154/3/4
f 154/3/4 152/3/4 155/3/4
f 155/3/4 152/3/4 156/3/4
f 152/2/4 153/2/4 157/2/4
f 156/3/4 152/3/4 157/3/4
f 153/2/4 148/2/4 158/2/4
f 157/2/4 153/2/4 158/2/4
f 158/2/4 148/2/4 159/2/4
f 155/3/4 156/3/4 160/3/4
f 156/2/4 157/2/4 161/2/4
f 160/3/4 156/3/4 161/3/4
f 157/1/4 158/1/4 162/1/4
f 161/2/4 157/2/4 162/2/4
f 162/1/4 158/1/4 163/1/4
f 160/2/4 161/2/4 166/2/4
f 161/1/4 162/1/4 167/1/4
f 162/1/4 163/1/4 167/1/4
f 166/2/4 161/2/4 167/2/4
f 167/1/4 163/1/4 168/1/4
f 163/2/4 164/2/4 169/2/4
f 168/1/4 163/1/4 169/1/4
f 169/2/4 164/2/4 170/2/4
f 165/2/4 166/2/4 172/2/4
f 166/2/4 167/2/4 172/2/4
f 172/2/4 167/2/4 173/2/4
f 169/2/4 170/2/4 174/2/4
f 168/2/4 169/2/4 174/2/4
f 174/2/4 170/2/4 175/2/4
f 170/1/4 171/1/4 176/1/4
f 175/2/4 170/2/4 176/2/4
f 175/1/4 176/1/4 177/1/4
f 176/1/4 171/1/4 178/1/4
f 177/1/4 176/1/4 178/1/4
f 181/3/5 180/3/5 179/3/5
f 182/3/5 180/3/5 181/3/5
f 185/3/5 184/3/5 183/3/5
f 186/3/5 184/3/5 185/3/5
f 189/3/5 188/3/5 187/3/5
f 190/3/5 188/3/5 189/3/5
f 193/3/5 192/3/5 191/3/5
f 194/3/5 192/3/5 193/3/5
f 199/3/5 196/3/5 195/3/5
f 200/3/5 196/3/5 199/3/5
f 201/2/5 198/2/5 197/2/5
f 202/2/5 198/2/5 201/2/5
f 206/3/5 204/3/5 203/3/5
f 207/2/5 205/2/5 204/2/5
f 207/3/5 204/3/5 206/3/5
f 208/2/5 205/2/5 207/2/5
f 211/2/5 210/2/5 209/2/5
f 212/2/5 210/2/5 211/2/5
f 217/2/5 214/2/5 213/2/5
f 218/2/5 214/2/5 217/2/5
f 219/1/5 216/1/5 215/1/5
f 220/1/5 216/1/5 219/1/5
f 221/3/6 222/3/6 223/3/6
f 223/3/6 222/3/6 224/3/6
f 225/3/6 226/3/6 227/3/6
f 227/3/6 226/3/6 228/3/6
f 229/3/6 230/3/6 231/3/6
f 231/3/6 230/3/6 232/3/6
f 233/3/6 234/3/6 235/3/6
f 235/3/6 234/3/6 236/3/6
f 237/3/6 238/3/6 241/3/6
f 241/3/6 238/3/6 242/3/6
f 239/2/6 240/2/6 243/2/6
f 243/2/6 240/2/6 244/2/6
f 245/1/6 246/1/6 247/1/6
f 247/1/6 246/1/6 248/1/6
f 249/2/6 250/2/6 253/2/6
f 253/2/6 250/2/6 254/2/6
f 251/2/6 252/2/6 255/2/6
f 255/2/6 252/2/6 256/2/6
f 257/1/6 258/1/6 259/1/6
f 259/1/6 258/1/6 260/1/6
