# MagicaVoxel @ Ephtracy

# group
o 

# material
mtllib WindBird-4.mtl
usemtl palette

# normals
vn -1 0 0
vn 1 0 0
vn 0 0 1
vn 0 0 -1
vn 0 -1 0
vn 0 1 0

# texcoords
vt 0.751953 0.5
vt 0.978516 0.5
vt 0.990234 0.5

# verts
v 0.4 1.8 0.1
v 0.4 1.8 0
v 0.4 1.9 0.1
v 0.4 1.9 0
v 0.5 1.2 0.2
v 0.5 1.2 0.1
v 0.5 1.2 0
v 0.5 1.2 -0.1
v 0.5 1.3 0.2
v 0.5 1.3 0.1
v 0.5 1.3 0
v 0.5 1.3 -0.1
v 0.5 1.6 0.2
v 0.5 1.6 0
v 0.5 1.6 -0.1
v 0.5 1.7 0.7
v 0.5 1.7 0.6
v 0.5 1.7 0.3
v 0.5 1.7 0.2
v 0.5 1.7 -0.1
v 0.5 1.7 -0.2
v 0.5 1.7 -0.5
v 0.5 1.7 -0.6
v 0.5 1.8 0.7
v 0.5 1.8 0.6
v 0.5 1.8 0.3
v 0.5 1.8 0.1
v 0.5 1.8 0
v 0.5 1.8 -0.5
v 0.5 1.8 -0.6
v 0.5 1.9 0.7
v 0.5 1.9 0.6
v 0.5 1.9 0.1
v 0.5 1.9 0
v 0.5 1.9 -0.2
v 0.5 1.9 -0.5
v 0.5 1.9 -0.6
v 0.5 2 0.7
v 0.5 2 0.6
v 0.5 2 0.3
v 0.5 2 0.2
v 0.5 2 -0.1
v 0.5 2 -0.2
v 0.5 2 -0.5
v 0.5 2 -0.6
v 0.5 2.1 0.2
v 0.5 2.1 0.1
v 0.5 2.1 -0.1
v 0.5 2.4 0.2
v 0.5 2.4 0.1
v 0.5 2.4 0
v 0.5 2.4 -0.1
v 0.5 2.5 0.2
v 0.5 2.5 0.1
v 0.5 2.5 0
v 0.5 2.5 -0.1
v 0.6 1.1 0.2
v 0.6 1.1 0
v 0.6 1.1 -0.1
v 0.6 1.2 0.2
v 0.6 1.2 0.1
v 0.6 1.2 0
v 0.6 1.2 -0.1
v 0.6 1.2 -0.2
v 0.6 1.3 0.3
v 0.6 1.3 0.2
v 0.6 1.3 -0.1
v 0.6 1.6 0.7
v 0.6 1.6 0.3
v 0.6 1.6 0.2
v 0.6 1.6 -0.1
v 0.6 1.6 -0.2
v 0.6 1.6 -0.5
v 0.6 1.7 0.8
v 0.6 1.7 0.7
v 0.6 1.7 0.6
v 0.6 1.7 0.3
v 0.6 1.7 0.2
v 0.6 1.7 -0.1
v 0.6 1.7 -0.2
v 0.6 1.7 -0.5
v 0.6 1.7 -0.6
v 0.6 1.7 -0.7
v 0.6 1.8 0.8
v 0.6 1.8 0.7
v 0.6 1.8 -0.6
v 0.6 1.9 0.7
v 0.6 1.9 -0.6
v 0.6 1.9 -0.7
v 0.6 2 0.8
v 0.6 2 0.7
v 0.6 2 0.6
v 0.6 2 0.3
v 0.6 2 0.2
v 0.6 2 -0.1
v 0.6 2 -0.2
v 0.6 2 -0.5
v 0.6 2 -0.6
v 0.6 2 -0.7
v 0.6 2.1 0.6
v 0.6 2.1 0.3
v 0.6 2.1 0.2
v 0.6 2.1 -0.1
v 0.6 2.1 -0.2
v 0.6 2.1 -0.6
v 0.6 2.4 0.2
v 0.6 2.4 -0.1
v 0.6 2.4 -0.2
v 0.6 2.5 0.3
v 0.6 2.5 0.2
v 0.6 2.5 0.1
v 0.6 2.5 0
v 0.6 2.5 -0.1
v 0.6 2.6 0.2
v 0.6 2.6 0.1
v 0.6 2.6 -0.1
v 0.7 1.1 0.2
v 0.7 1.1 0
v 0.7 1.1 -0.1
v 0.7 1.2 0.2
v 0.7 1.2 0.1
v 0.7 1.2 0
v 0.7 1.2 -0.1
v 0.7 1.2 -0.2
v 0.7 1.3 0.3
v 0.7 1.3 0.2
v 0.7 1.3 -0.1
v 0.7 1.6 0.7
v 0.7 1.6 0.3
v 0.7 1.6 0.2
v 0.7 1.6 -0.1
v 0.7 1.6 -0.2
v 0.7 1.6 -0.5
v 0.7 1.7 0.8
v 0.7 1.7 0.7
v 0.7 1.7 0.6
v 0.7 1.7 0.3
v 0.7 1.7 0.2
v 0.7 1.7 -0.1
v 0.7 1.7 -0.2
v 0.7 1.7 -0.5
v 0.7 1.7 -0.6
v 0.7 1.7 -0.7
v 0.7 1.8 0.8
v 0.7 1.8 0.7
v 0.7 1.8 -0.6
v 0.7 1.9 0.7
v 0.7 1.9 -0.6
v 0.7 1.9 -0.7
v 0.7 2 0.8
v 0.7 2 0.7
v 0.7 2 0.6
v 0.7 2 0.3
v 0.7 2 0.2
v 0.7 2 -0.1
v 0.7 2 -0.2
v 0.7 2 -0.5
v 0.7 2 -0.6
v 0.7 2 -0.7
v 0.7 2.1 0.6
v 0.7 2.1 0.3
v 0.7 2.1 0.2
v 0.7 2.1 -0.1
v 0.7 2.1 -0.2
v 0.7 2.1 -0.6
v 0.7 2.4 0.2
v 0.7 2.4 -0.1
v 0.7 2.4 -0.2
v 0.7 2.5 0.3
v 0.7 2.5 0.2
v 0.7 2.5 0.1
v 0.7 2.5 0
v 0.7 2.5 -0.1
v 0.7 2.6 0.2
v 0.7 2.6 0.1
v 0.7 2.6 -0.1
v 0.8 1.2 0.2
v 0.8 1.2 0.1
v 0.8 1.2 0
v 0.8 1.2 -0.1
v 0.8 1.3 0.2
v 0.8 1.3 0.1
v 0.8 1.3 0
v 0.8 1.3 -0.1
v 0.8 1.6 0.2
v 0.8 1.6 0
v 0.8 1.6 -0.1
v 0.8 1.7 0.7
v 0.8 1.7 0.6
v 0.8 1.7 0.3
v 0.8 1.7 0.2
v 0.8 1.7 0.1
v 0.8 1.7 0
v 0.8 1.7 -0.1
v 0.8 1.7 -0.2
v 0.8 1.7 -0.5
v 0.8 1.7 -0.6
v 0.8 1.8 0.7
v 0.8 1.8 0.6
v 0.8 1.8 0.3
v 0.8 1.8 0.2
v 0.8 1.8 0.1
v 0.8 1.8 0
v 0.8 1.8 -0.1
v 0.8 1.8 -0.5
v 0.8 1.8 -0.6
v 0.8 1.9 0.7
v 0.8 1.9 0.6
v 0.8 1.9 0.2
v 0.8 1.9 0.1
v 0.8 1.9 0
v 0.8 1.9 -0.1
v 0.8 1.9 -0.2
v 0.8 1.9 -0.5
v 0.8 1.9 -0.6
v 0.8 2 0.7
v 0.8 2 0.6
v 0.8 2 0.3
v 0.8 2 0.2
v 0.8 2 0.1
v 0.8 2 0
v 0.8 2 -0.1
v 0.8 2 -0.2
v 0.8 2 -0.5
v 0.8 2 -0.6
v 0.8 2.1 0.2
v 0.8 2.1 0.1
v 0.8 2.1 -0.1
v 0.8 2.4 0.2
v 0.8 2.4 0.1
v 0.8 2.4 0
v 0.8 2.4 -0.1
v 0.8 2.5 0.2
v 0.8 2.5 0.1
v 0.8 2.5 0
v 0.8 2.5 -0.1
v 0.6 1.7 0.8
v 0.6 1.8 0.8
v 0.6 2 0.8
v 0.7 1.7 0.8
v 0.7 1.8 0.8
v 0.7 2 0.8
v 0.5 1.7 0.7
v 0.5 1.8 0.7
v 0.5 1.9 0.7
v 0.5 2 0.7
v 0.6 1.6 0.7
v 0.6 1.7 0.7
v 0.6 1.8 0.7
v 0.6 1.9 0.7
v 0.6 2 0.7
v 0.7 1.6 0.7
v 0.7 1.7 0.7
v 0.7 1.8 0.7
v 0.7 1.9 0.7
v 0.7 2 0.7
v 0.8 1.7 0.7
v 0.8 1.8 0.7
v 0.8 1.9 0.7
v 0.8 2 0.7
v 0.6 2 0.6
v 0.6 2.1 0.6
v 0.7 2 0.6
v 0.7 2.1 0.6
v 0.6 1.3 0.3
v 0.6 1.6 0.3
v 0.6 2.1 0.3
v 0.6 2.5 0.3
v 0.7 1.3 0.3
v 0.7 1.6 0.3
v 0.7 2.1 0.3
v 0.7 2.5 0.3
v 0.5 1.2 0.2
v 0.5 1.3 0.2
v 0.5 1.6 0.2
v 0.5 1.7 0.2
v 0.5 2 0.2
v 0.5 2.1 0.2
v 0.5 2.4 0.2
v 0.5 2.5 0.2
v 0.6 1.1 0.2
v 0.6 1.2 0.2
v 0.6 1.3 0.2
v 0.6 1.6 0.2
v 0.6 1.7 0.2
v 0.6 2 0.2
v 0.6 2.1 0.2
v 0.6 2.4 0.2
v 0.6 2.5 0.2
v 0.6 2.6 0.2
v 0.7 1.1 0.2
v 0.7 1.2 0.2
v 0.7 1.3 0.2
v 0.7 1.6 0.2
v 0.7 1.7 0.2
v 0.7 2 0.2
v 0.7 2.1 0.2
v 0.7 2.4 0.2
v 0.7 2.5 0.2
v 0.7 2.6 0.2
v 0.8 1.2 0.2
v 0.8 1.3 0.2
v 0.8 1.6 0.2
v 0.8 1.7 0.2
v 0.8 2 0.2
v 0.8 2.1 0.2
v 0.8 2.4 0.2
v 0.8 2.5 0.2
v 0.4 1.8 0.1
v 0.4 1.9 0.1
v 0.5 1.8 0.1
v 0.5 1.9 0.1
v 0.4 1.8 0
v 0.4 1.9 0
v 0.5 1.8 0
v 0.5 1.9 0
v 0.5 1.2 -0.1
v 0.5 1.3 -0.1
v 0.5 1.6 -0.1
v 0.5 1.7 -0.1
v 0.5 2 -0.1
v 0.5 2.1 -0.1
v 0.5 2.4 -0.1
v 0.5 2.5 -0.1
v 0.6 1.1 -0.1
v 0.6 1.2 -0.1
v 0.6 1.3 -0.1
v 0.6 1.6 -0.1
v 0.6 1.7 -0.1
v 0.6 2 -0.1
v 0.6 2.1 -0.1
v 0.6 2.4 -0.1
v 0.6 2.5 -0.1
v 0.6 2.6 -0.1
v 0.7 1.1 -0.1
v 0.7 1.2 -0.1
v 0.7 1.3 -0.1
v 0.7 1.6 -0.1
v 0.7 1.7 -0.1
v 0.7 2 -0.1
v 0.7 2.1 -0.1
v 0.7 2.4 -0.1
v 0.7 2.5 -0.1
v 0.7 2.6 -0.1
v 0.8 1.2 -0.1
v 0.8 1.3 -0.1
v 0.8 1.6 -0.1
v 0.8 1.7 -0.1
v 0.8 2 -0.1
v 0.8 2.1 -0.1
v 0.8 2.4 -0.1
v 0.8 2.5 -0.1
v 0.6 1.2 -0.2
v 0.6 1.6 -0.2
v 0.6 2.1 -0.2
v 0.6 2.4 -0.2
v 0.7 1.2 -0.2
v 0.7 1.6 -0.2
v 0.7 2.1 -0.2
v 0.7 2.4 -0.2
v 0.6 1.6 -0.5
v 0.6 1.7 -0.5
v 0.7 1.6 -0.5
v 0.7 1.7 -0.5
v 0.5 1.7 -0.6
v 0.5 1.8 -0.6
v 0.5 1.9 -0.6
v 0.5 2 -0.6
v 0.6 1.7 -0.6
v 0.6 1.8 -0.6
v 0.6 1.9 -0.6
v 0.6 2 -0.6
v 0.6 2.1 -0.6
v 0.7 1.7 -0.6
v 0.7 1.8 -0.6
v 0.7 1.9 -0.6
v 0.7 2 -0.6
v 0.7 2.1 -0.6
v 0.8 1.7 -0.6
v 0.8 1.8 -0.6
v 0.8 1.9 -0.6
v 0.8 2 -0.6
v 0.6 1.7 -0.7
v 0.6 1.9 -0.7
v 0.6 2 -0.7
v 0.7 1.7 -0.7
v 0.7 1.9 -0.7
v 0.7 2 -0.7
v 0.6 1.1 0.2
v 0.7 1.1 0.2
v 0.6 1.1 0
v 0.7 1.1 0
v 0.6 1.1 -0.1
v 0.7 1.1 -0.1
v 0.5 1.2 0.2
v 0.6 1.2 0.2
v 0.7 1.2 0.2
v 0.8 1.2 0.2
v 0.5 1.2 0.1
v 0.6 1.2 0.1
v 0.7 1.2 0.1
v 0.8 1.2 0.1
v 0.5 1.2 0
v 0.6 1.2 0
v 0.7 1.2 0
v 0.8 1.2 0
v 0.5 1.2 -0.1
v 0.6 1.2 -0.1
v 0.7 1.2 -0.1
v 0.8 1.2 -0.1
v 0.6 1.2 -0.2
v 0.7 1.2 -0.2
v 0.6 1.3 0.3
v 0.7 1.3 0.3
v 0.6 1.3 0.2
v 0.7 1.3 0.2
v 0.6 1.6 0.7
v 0.7 1.6 0.7
v 0.6 1.6 0.3
v 0.7 1.6 0.3
v 0.6 1.6 -0.2
v 0.7 1.6 -0.2
v 0.6 1.6 -0.5
v 0.7 1.6 -0.5
v 0.6 1.7 0.8
v 0.7 1.7 0.8
v 0.5 1.7 0.7
v 0.6 1.7 0.7
v 0.7 1.7 0.7
v 0.8 1.7 0.7
v 0.5 1.7 0.6
v 0.6 1.7 0.6
v 0.7 1.7 0.6
v 0.8 1.7 0.6
v 0.5 1.7 0.3
v 0.6 1.7 0.3
v 0.7 1.7 0.3
v 0.8 1.7 0.3
v 0.5 1.7 0.2
v 0.6 1.7 0.2
v 0.7 1.7 0.2
v 0.8 1.7 0.2
v 0.5 1.7 -0.1
v 0.6 1.7 -0.1
v 0.7 1.7 -0.1
v 0.8 1.7 -0.1
v 0.5 1.7 -0.2
v 0.6 1.7 -0.2
v 0.7 1.7 -0.2
v 0.8 1.7 -0.2
v 0.5 1.7 -0.5
v 0.6 1.7 -0.5
v 0.7 1.7 -0.5
v 0.8 1.7 -0.5
v 0.5 1.7 -0.6
v 0.6 1.7 -0.6
v 0.7 1.7 -0.6
v 0.8 1.7 -0.6
v 0.6 1.7 -0.7
v 0.7 1.7 -0.7
v 0.4 1.8 0.1
v 0.5 1.8 0.1
v 0.4 1.8 0
v 0.5 1.8 0
v 0.4 1.9 0.1
v 0.5 1.9 0.1
v 0.4 1.9 0
v 0.5 1.9 0
v 0.6 2 0.8
v 0.7 2 0.8
v 0.5 2 0.7
v 0.6 2 0.7
v 0.7 2 0.7
v 0.8 2 0.7
v 0.5 2 0.6
v 0.6 2 0.6
v 0.7 2 0.6
v 0.8 2 0.6
v 0.5 2 0.3
v 0.6 2 0.3
v 0.7 2 0.3
v 0.8 2 0.3
v 0.5 2 0.2
v 0.6 2 0.2
v 0.7 2 0.2
v 0.8 2 0.2
v 0.5 2 -0.1
v 0.6 2 -0.1
v 0.7 2 -0.1
v 0.8 2 -0.1
v 0.5 2 -0.2
v 0.6 2 -0.2
v 0.7 2 -0.2
v 0.8 2 -0.2
v 0.5 2 -0.5
v 0.6 2 -0.5
v 0.7 2 -0.5
v 0.8 2 -0.5
v 0.5 2 -0.6
v 0.6 2 -0.6
v 0.7 2 -0.6
v 0.8 2 -0.6
v 0.6 2 -0.7
v 0.7 2 -0.7
v 0.6 2.1 0.6
v 0.7 2.1 0.6
v 0.6 2.1 0.3
v 0.7 2.1 0.3
v 0.6 2.1 -0.2
v 0.7 2.1 -0.2
v 0.6 2.1 -0.6
v 0.7 2.1 -0.6
v 0.6 2.4 -0.1
v 0.7 2.4 -0.1
v 0.6 2.4 -0.2
v 0.7 2.4 -0.2
v 0.6 2.5 0.3
v 0.7 2.5 0.3
v 0.5 2.5 0.2
v 0.6 2.5 0.2
v 0.7 2.5 0.2
v 0.8 2.5 0.2
v 0.5 2.5 0.1
v 0.6 2.5 0.1
v 0.7 2.5 0.1
v 0.8 2.5 0.1
v 0.5 2.5 0
v 0.6 2.5 0
v 0.7 2.5 0
v 0.8 2.5 0
v 0.5 2.5 -0.1
v 0.6 2.5 -0.1
v 0.7 2.5 -0.1
v 0.8 2.5 -0.1
v 0.6 2.6 0.2
v 0.7 2.6 0.2
v 0.6 2.6 0.1
v 0.7 2.6 0.1
v 0.6 2.6 -0.1
v 0.7 2.6 -0.1

# faces
f 3/3/1 2/3/1 1/3/1
f 4/3/1 2/3/1 3/3/1
f 9/2/1 6/2/1 5/2/1
f 10/3/1 7/3/1 6/3/1
f 10/2/1 6/2/1 9/2/1
f 11/2/1 8/2/1 7/2/1
f 11/3/1 7/3/1 10/3/1
f 12/2/1 8/2/1 11/2/1
f 13/3/1 10/3/1 9/3/1
f 13/3/1 11/3/1 10/3/1
f 14/1/1 12/1/1 11/1/1
f 14/3/1 11/3/1 13/3/1
f 15/1/1 12/1/1 14/1/1
f 19/2/1 14/2/1 13/2/1
f 19/2/1 15/2/1 14/2/1
f 20/2/1 15/2/1 19/2/1
f 24/2/1 17/2/1 16/2/1
f 25/1/1 18/1/1 17/1/1
f 25/2/1 17/2/1 24/2/1
f 26/2/1 20/2/1 19/2/1
f 26/1/1 18/1/1 25/1/1
f 26/2/1 19/2/1 18/2/1
f 26/2/1 21/2/1 20/2/1
f 27/2/1 21/2/1 26/2/1
f 28/2/1 21/2/1 27/2/1
f 29/2/1 23/2/1 22/2/1
f 29/3/1 22/3/1 21/3/1
f 30/2/1 23/2/1 29/2/1
f 31/3/1 25/3/1 24/3/1
f 31/3/1 26/3/1 25/3/1
f 32/3/1 26/3/1 31/3/1
f 33/2/1 27/2/1 26/2/1
f 34/2/1 21/2/1 28/2/1
f 35/3/1 30/3/1 29/3/1
f 35/3/1 29/3/1 21/3/1
f 35/2/1 21/2/1 34/2/1
f 36/3/1 30/3/1 35/3/1
f 37/3/1 30/3/1 36/3/1
f 38/2/1 32/2/1 31/2/1
f 39/3/1 26/3/1 32/3/1
f 39/2/1 32/2/1 38/2/1
f 40/2/1 33/2/1 26/2/1
f 40/3/1 26/3/1 39/3/1
f 40/2/1 34/2/1 33/2/1
f 40/2/1 35/2/1 34/2/1
f 41/2/1 35/2/1 40/2/1
f 42/2/1 35/2/1 41/2/1
f 43/1/1 36/1/1 35/1/1
f 43/2/1 35/2/1 42/2/1
f 44/2/1 37/2/1 36/2/1
f 44/1/1 36/1/1 43/1/1
f 45/2/1 37/2/1 44/2/1
f 46/2/1 42/2/1 41/2/1
f 47/2/1 42/2/1 46/2/1
f 48/2/1 42/2/1 47/2/1
f 49/1/1 47/1/1 46/1/1
f 50/3/1 48/3/1 47/3/1
f 50/1/1 47/1/1 49/1/1
f 51/3/1 48/3/1 50/3/1
f 52/3/1 48/3/1 51/3/1
f 53/2/1 50/2/1 49/2/1
f 54/3/1 51/3/1 50/3/1
f 54/2/1 50/2/1 53/2/1
f 55/2/1 52/2/1 51/2/1
f 55/3/1 51/3/1 54/3/1
f 56/2/1 52/2/1 55/2/1
f 60/3/1 58/3/1 57/3/1
f 61/3/1 58/3/1 60/3/1
f 62/1/1 59/1/1 58/1/1
f 62/3/1 58/3/1 61/3/1
f 63/1/1 59/1/1 62/1/1
f 67/2/1 64/2/1 63/2/1
f 69/2/1 66/2/1 65/2/1
f 70/2/1 66/2/1 69/2/1
f 71/2/1 64/2/1 67/2/1
f 72/2/1 64/2/1 71/2/1
f 75/2/1 70/2/1 69/2/1
f 75/2/1 69/2/1 68/2/1
f 76/2/1 70/2/1 75/2/1
f 77/2/1 70/2/1 76/2/1
f 78/2/1 70/2/1 77/2/1
f 79/2/1 73/2/1 72/2/1
f 79/2/1 72/2/1 71/2/1
f 80/2/1 73/2/1 79/2/1
f 81/2/1 73/2/1 80/2/1
f 84/1/1 75/1/1 74/1/1
f 85/1/1 75/1/1 84/1/1
f 86/3/1 83/3/1 82/3/1
f 87/3/1 85/3/1 84/3/1
f 88/3/1 83/3/1 86/3/1
f 89/3/1 83/3/1 88/3/1
f 90/3/1 87/3/1 84/3/1
f 91/3/1 87/3/1 90/3/1
f 98/1/1 89/1/1 88/1/1
f 99/1/1 89/1/1 98/1/1
f 100/2/1 93/2/1 92/2/1
f 100/2/1 94/2/1 93/2/1
f 101/2/1 94/2/1 100/2/1
f 102/2/1 94/2/1 101/2/1
f 103/2/1 97/2/1 96/2/1
f 103/2/1 98/2/1 97/2/1
f 103/2/1 96/2/1 95/2/1
f 104/2/1 98/2/1 103/2/1
f 105/2/1 98/2/1 104/2/1
f 106/2/1 102/2/1 101/2/1
f 107/2/1 104/2/1 103/2/1
f 108/2/1 104/2/1 107/2/1
f 109/2/1 106/2/1 101/2/1
f 110/2/1 106/2/1 109/2/1
f 114/1/1 111/1/1 110/1/1
f 115/3/1 113/3/1 112/3/1
f 115/1/1 111/1/1 114/1/1
f 115/3/1 112/3/1 111/3/1
f 116/3/1 113/3/1 115/3/1
f 117/3/2 118/3/2 120/3/2
f 120/3/2 118/3/2 121/3/2
f 118/1/2 119/1/2 122/1/2
f 121/3/2 118/3/2 122/3/2
f 122/1/2 119/1/2 123/1/2
f 123/2/2 124/2/2 127/2/2
f 125/2/2 126/2/2 129/2/2
f 129/2/2 126/2/2 130/2/2
f 127/2/2 124/2/2 131/2/2
f 131/2/2 124/2/2 132/2/2
f 129/2/2 130/2/2 135/2/2
f 128/2/2 129/2/2 135/2/2
f 135/2/2 130/2/2 136/2/2
f 136/2/2 130/2/2 137/2/2
f 137/2/2 130/2/2 138/2/2
f 132/2/2 133/2/2 139/2/2
f 131/2/2 132/2/2 139/2/2
f 139/2/2 133/2/2 140/2/2
f 140/2/2 133/2/2 141/2/2
f 134/1/2 135/1/2 144/1/2
f 144/1/2 135/1/2 145/1/2
f 142/3/2 143/3/2 146/3/2
f 144/3/2 145/3/2 147/3/2
f 146/3/2 143/3/2 148/3/2
f 148/3/2 143/3/2 149/3/2
f 144/3/2 147/3/2 150/3/2
f 150/3/2 147/3/2 151/3/2
f 148/1/2 149/1/2 158/1/2
f 158/1/2 149/1/2 159/1/2
f 152/2/2 153/2/2 160/2/2
f 153/2/2 154/2/2 160/2/2
f 160/2/2 154/2/2 161/2/2
f 161/2/2 154/2/2 162/2/2
f 156/2/2 157/2/2 163/2/2
f 157/2/2 158/2/2 163/2/2
f 155/2/2 156/2/2 163/2/2
f 163/2/2 158/2/2 164/2/2
f 164/2/2 158/2/2 165/2/2
f 161/2/2 162/2/2 166/2/2
f 163/2/2 164/2/2 167/2/2
f 167/2/2 164/2/2 168/2/2
f 161/2/2 166/2/2 169/2/2
f 169/2/2 166/2/2 170/2/2
f 170/1/2 171/1/2 174/1/2
f 172/3/2 173/3/2 175/3/2
f 174/1/2 171/1/2 175/1/2
f 171/3/2 172/3/2 175/3/2
f 175/3/2 173/3/2 176/3/2
f 177/2/2 178/2/2 181/2/2
f 178/3/2 179/3/2 182/3/2
f 181/2/2 178/2/2 182/2/2
f 179/2/2 180/2/2 183/2/2
f 182/3/2 179/3/2 183/3/2
f 183/2/2 180/2/2 184/2/2
f 181/3/2 182/3/2 185/3/2
f 182/3/2 183/3/2 185/3/2
f 183/1/2 184/1/2 186/1/2
f 185/3/2 183/3/2 186/3/2
f 186/1/2 184/1/2 187/1/2
f 185/2/2 186/2/2 191/2/2
f 186/2/2 187/2/2 191/2/2
f 191/2/2 187/2/2 192/2/2
f 192/2/2 187/2/2 193/2/2
f 193/2/2 187/2/2 194/2/2
f 188/2/2 189/2/2 198/2/2
f 189/1/2 190/1/2 199/1/2
f 198/2/2 189/2/2 199/2/2
f 190/2/2 191/2/2 200/2/2
f 199/1/2 190/1/2 200/1/2
f 191/2/2 192/2/2 200/2/2
f 200/2/2 192/2/2 201/2/2
f 192/3/2 193/3/2 202/3/2
f 201/2/2 192/2/2 202/2/2
f 193/2/2 194/2/2 203/2/2
f 202/3/2 193/3/2 203/3/2
f 194/2/2 195/2/2 203/2/2
f 203/2/2 195/2/2 204/2/2
f 196/2/2 197/2/2 205/2/2
f 195/3/2 196/3/2 205/3/2
f 205/2/2 197/2/2 206/2/2
f 198/3/2 199/3/2 207/3/2
f 199/3/2 200/3/2 207/3/2
f 207/3/2 200/3/2 208/3/2
f 201/3/2 202/3/2 209/3/2
f 200/2/2 201/2/2 209/2/2
f 202/1/2 203/1/2 210/1/2
f 209/3/2 202/3/2 210/3/2
f 203/3/2 204/3/2 211/3/2
f 210/1/2 203/1/2 211/1/2
f 204/2/2 195/2/2 212/2/2
f 211/3/2 204/3/2 212/3/2
f 205/3/2 206/3/2 213/3/2
f 212/2/2 195/2/2 213/2/2
f 195/3/2 205/3/2 213/3/2
f 213/3/2 206/3/2 214/3/2
f 214/3/2 206/3/2 215/3/2
f 207/2/2 208/2/2 216/2/2
f 208/3/2 200/3/2 217/3/2
f 216/2/2 208/2/2 217/2/2
f 209/2/2 210/2/2 218/2/2
f 217/3/2 200/3/2 218/3/2
f 200/2/2 209/2/2 218/2/2
f 218/2/2 210/2/2 219/2/2
f 210/3/2 211/3/2 220/3/2
f 219/2/2 210/2/2 220/2/2
f 211/2/2 212/2/2 221/2/2
f 220/3/2 211/3/2 221/3/2
f 212/2/2 213/2/2 221/2/2
f 221/2/2 213/2/2 222/2/2
f 213/1/2 214/1/2 223/1/2
f 222/2/2 213/2/2 223/2/2
f 214/2/2 215/2/2 224/2/2
f 223/1/2 214/1/2 224/1/2
f 224/2/2 215/2/2 225/2/2
f 220/2/2 221/2/2 226/2/2
f 221/2/2 222/2/2 226/2/2
f 219/2/2 220/2/2 226/2/2
f 226/2/2 222/2/2 227/2/2
f 227/2/2 222/2/2 228/2/2
f 226/1/2 227/1/2 229/1/2
f 227/3/2 228/3/2 230/3/2
f 229/1/2 227/1/2 230/1/2
f 230/3/2 228/3/2 231/3/2
f 231/3/2 228/3/2 232/3/2
f 229/2/2 230/2/2 233/2/2
f 230/3/2 231/3/2 234/3/2
f 233/2/2 230/2/2 234/2/2
f 231/2/2 232/2/2 235/2/2
f 234/3/2 231/3/2 235/3/2
f 235/2/2 232/2/2 236/2/2
f 240/1/3 238/1/3 237/1/3
f 241/3/3 239/3/3 238/3/3
f 241/1/3 238/1/3 240/1/3
f 242/3/3 239/3/3 241/3/3
f 248/2/3 244/2/3 243/2/3
f 249/3/3 245/3/3 244/3/3
f 249/2/3 244/2/3 248/2/3
f 250/2/3 246/2/3 245/2/3
f 250/3/3 245/3/3 249/3/3
f 251/2/3 246/2/3 250/2/3
f 252/2/3 248/2/3 247/2/3
f 253/2/3 248/2/3 252/2/3
f 257/2/3 254/2/3 253/2/3
f 258/3/3 255/3/3 254/3/3
f 258/2/3 254/2/3 257/2/3
f 259/2/3 256/2/3 255/2/3
f 259/3/3 255/3/3 258/3/3
f 260/2/3 256/2/3 259/2/3
f 263/2/3 262/2/3 261/2/3
f 264/2/3 262/2/3 263/2/3
f 269/2/3 266/2/3 265/2/3
f 270/2/3 266/2/3 269/2/3
f 271/2/3 268/2/3 267/2/3
f 272/2/3 268/2/3 271/2/3
f 282/2/3 274/2/3 273/2/3
f 283/3/3 275/3/3 274/3/3
f 283/2/3 274/2/3 282/2/3
f 284/2/3 276/2/3 275/2/3
f 284/3/3 275/3/3 283/3/3
f 285/2/3 276/2/3 284/2/3
f 286/2/3 278/2/3 277/2/3
f 287/1/3 279/1/3 278/1/3
f 287/2/3 278/2/3 286/2/3
f 288/2/3 280/2/3 279/2/3
f 288/1/3 279/1/3 287/1/3
f 289/2/3 280/2/3 288/2/3
f 291/3/3 282/3/3 281/3/3
f 292/2/3 283/2/3 282/2/3
f 292/3/3 282/3/3 291/3/3
f 293/2/3 283/2/3 292/2/3
f 299/1/3 290/1/3 289/1/3
f 300/1/3 290/1/3 299/1/3
f 301/2/3 293/2/3 292/2/3
f 302/3/3 294/3/3 293/3/3
f 302/2/3 293/2/3 301/2/3
f 303/2/3 295/2/3 294/2/3
f 303/3/3 294/3/3 302/3/3
f 304/2/3 295/2/3 303/2/3
f 305/2/3 297/2/3 296/2/3
f 306/1/3 298/1/3 297/1/3
f 306/2/3 297/2/3 305/2/3
f 307/2/3 299/2/3 298/2/3
f 307/1/3 298/1/3 306/1/3
f 308/2/3 299/2/3 307/2/3
f 311/3/3 310/3/3 309/3/3
f 312/3/3 310/3/3 311/3/3
f 313/3/4 314/3/4 315/3/4
f 315/3/4 314/3/4 316/3/4
f 317/2/4 318/2/4 326/2/4
f 318/1/4 319/1/4 327/1/4
f 326/2/4 318/2/4 327/2/4
f 319/2/4 320/2/4 328/2/4
f 327/1/4 319/1/4 328/1/4
f 328/2/4 320/2/4 329/2/4
f 321/2/4 322/2/4 330/2/4
f 322/3/4 323/3/4 331/3/4
f 330/2/4 322/2/4 331/2/4
f 323/2/4 324/2/4 332/2/4
f 331/3/4 323/3/4 332/3/4
f 332/2/4 324/2/4 333/2/4
f 325/1/4 326/1/4 335/1/4
f 335/1/4 326/1/4 336/1/4
f 332/2/4 333/2/4 342/2/4
f 333/3/4 334/3/4 343/3/4
f 342/2/4 333/2/4 343/2/4
f 343/3/4 334/3/4 344/3/4
f 336/2/4 337/2/4 345/2/4
f 337/1/4 338/1/4 346/1/4
f 345/2/4 337/2/4 346/2/4
f 338/2/4 339/2/4 347/2/4
f 346/1/4 338/1/4 347/1/4
f 347/2/4 339/2/4 348/2/4
f 340/2/4 341/2/4 349/2/4
f 341/3/4 342/3/4 350/3/4
f 349/2/4 341/2/4 350/2/4
f 342/2/4 343/2/4 351/2/4
f 350/3/4 342/3/4 351/3/4
f 351/2/4 343/2/4 352/2/4
f 353/2/4 354/2/4 357/2/4
f 357/2/4 354/2/4 358/2/4
f 355/2/4 356/2/4 359/2/4
f 359/2/4 356/2/4 360/2/4
f 361/2/4 362/2/4 363/2/4
f 363/2/4 362/2/4 364/2/4
f 365/2/4 366/2/4 369/2/4
f 366/3/4 367/3/4 370/3/4
f 369/2/4 366/2/4 370/2/4
f 367/2/4 368/2/4 371/2/4
f 370/3/4 367/3/4 371/3/4
f 371/2/4 368/2/4 372/2/4
f 372/2/4 373/2/4 377/2/4
f 377/2/4 373/2/4 378/2/4
f 374/2/4 375/2/4 379/2/4
f 375/3/4 376/3/4 380/3/4
f 379/2/4 375/2/4 380/2/4
f 376/2/4 377/2/4 381/2/4
f 380/3/4 376/3/4 381/3/4
f 381/2/4 377/2/4 382/2/4
f 383/3/4 384/3/4 386/3/4
f 384/1/4 385/1/4 387/1/4
f 386/3/4 384/3/4 387/3/4
f 387/1/4 385/1/4 388/1/4
f 391/3/5 390/3/5 389/3/5
f 392/3/5 390/3/5 391/3/5
f 393/1/5 392/1/5 391/1/5
f 394/1/5 392/1/5 393/1/5
f 399/2/5 396/2/5 395/2/5
f 400/2/5 396/2/5 399/2/5
f 401/2/5 398/2/5 397/2/5
f 402/2/5 398/2/5 401/2/5
f 403/3/5 400/3/5 399/3/5
f 404/3/5 400/3/5 403/3/5
f 405/3/5 402/3/5 401/3/5
f 406/3/5 402/3/5 405/3/5
f 407/2/5 404/2/5 403/2/5
f 408/2/5 404/2/5 407/2/5
f 409/2/5 406/2/5 405/2/5
f 410/2/5 406/2/5 409/2/5
f 411/2/5 409/2/5 408/2/5
f 412/2/5 409/2/5 411/2/5
f 415/2/5 414/2/5 413/2/5
f 416/2/5 414/2/5 415/2/5
f 419/2/5 418/2/5 417/2/5
f 420/2/5 418/2/5 419/2/5
f 423/2/5 422/2/5 421/2/5
f 424/2/5 422/2/5 423/2/5
f 428/1/5 426/1/5 425/1/5
f 429/1/5 426/1/5 428/1/5
f 431/2/5 428/2/5 427/2/5
f 432/2/5 428/2/5 431/2/5
f 433/2/5 430/2/5 429/2/5
f 434/2/5 430/2/5 433/2/5
f 435/1/5 432/1/5 431/1/5
f 436/1/5 432/1/5 435/1/5
f 437/1/5 434/1/5 433/1/5
f 438/1/5 434/1/5 437/1/5
f 439/2/5 436/2/5 435/2/5
f 440/2/5 436/2/5 439/2/5
f 441/2/5 438/2/5 437/2/5
f 442/2/5 438/2/5 441/2/5
f 447/2/5 444/2/5 443/2/5
f 448/2/5 444/2/5 447/2/5
f 449/2/5 446/2/5 445/2/5
f 450/2/5 446/2/5 449/2/5
f 451/3/5 448/3/5 447/3/5
f 452/3/5 448/3/5 451/3/5
f 453/3/5 450/3/5 449/3/5
f 454/3/5 450/3/5 453/3/5
f 455/2/5 452/2/5 451/2/5
f 455/2/5 453/2/5 452/2/5
f 455/2/5 454/2/5 453/2/5
f 456/2/5 454/2/5 455/2/5
f 457/2/5 454/2/5 456/2/5
f 458/2/5 454/2/5 457/2/5
f 459/3/5 457/3/5 456/3/5
f 460/3/5 457/3/5 459/3/5
f 463/3/5 462/3/5 461/3/5
f 464/3/5 462/3/5 463/3/5
f 465/3/6 466/3/6 467/3/6
f 467/3/6 466/3/6 468/3/6
f 469/3/6 470/3/6 472/3/6
f 472/3/6 470/3/6 473/3/6
f 471/2/6 472/2/6 475/2/6
f 473/2/6 474/2/6 475/2/6
f 472/2/6 473/2/6 475/2/6
f 475/2/6 474/2/6 476/2/6
f 476/2/6 474/2/6 477/2/6
f 477/2/6 474/2/6 478/2/6
f 475/3/6 476/3/6 479/3/6
f 479/3/6 476/3/6 480/3/6
f 477/3/6 478/3/6 481/3/6
f 481/3/6 478/3/6 482/3/6
f 479/2/6 480/2/6 483/2/6
f 483/2/6 480/2/6 484/2/6
f 481/2/6 482/2/6 485/2/6
f 485/2/6 482/2/6 486/2/6
f 487/2/6 488/2/6 491/2/6
f 491/2/6 488/2/6 492/2/6
f 489/2/6 490/2/6 493/2/6
f 493/2/6 490/2/6 494/2/6
f 491/1/6 492/1/6 495/1/6
f 495/1/6 492/1/6 496/1/6
f 493/1/6 494/1/6 497/1/6
f 497/1/6 494/1/6 498/1/6
f 495/2/6 496/2/6 499/2/6
f 499/2/6 496/2/6 500/2/6
f 497/2/6 498/2/6 501/2/6
f 501/2/6 498/2/6 502/2/6
f 500/1/6 501/1/6 503/1/6
f 503/1/6 501/1/6 504/1/6
f 505/2/6 506/2/6 507/2/6
f 507/2/6 506/2/6 508/2/6
f 509/2/6 510/2/6 511/2/6
f 511/2/6 510/2/6 512/2/6
f 513/2/6 514/2/6 515/2/6
f 515/2/6 514/2/6 516/2/6
f 517/2/6 518/2/6 520/2/6
f 520/2/6 518/2/6 521/2/6
f 519/2/6 520/2/6 523/2/6
f 523/2/6 520/2/6 524/2/6
f 521/2/6 522/2/6 525/2/6
f 525/2/6 522/2/6 526/2/6
f 523/3/6 524/3/6 527/3/6
f 527/3/6 524/3/6 528/3/6
f 525/3/6 526/3/6 529/3/6
f 529/3/6 526/3/6 530/3/6
f 527/2/6 528/2/6 531/2/6
f 531/2/6 528/2/6 532/2/6
f 529/2/6 530/2/6 533/2/6
f 533/2/6 530/2/6 534/2/6
f 535/1/6 536/1/6 537/1/6
f 537/1/6 536/1/6 538/1/6
f 537/3/6 538/3/6 539/3/6
f 539/3/6 538/3/6 540/3/6
